<svg xmlns="http://www.w3.org/2000/svg" id="canvas" viewBox="135.647 419.248 716.427 123.171">
  <path
    d="M 201.64,459.81 C 201.75 458.92, 201.67 457.88, 200.58 456.68 C 199.49 455.49, 198.46 454.63, 196.20 453.84 C 193.94 453.05, 192.45 452.36, 189.27 452.72 C 186.08 453.08, 184.19 453.90, 180.27 455.66 C 176.35 457.41, 173.99 458.54, 169.68 461.49 C 165.37 464.44, 162.93 466.38, 158.73 470.41 C 154.52 474.43, 152.12 476.75, 148.66 481.64 C 145.21 486.52, 143.47 489.53, 141.47 494.84 C 139.47 500.15, 138.77 503.07, 138.66 508.18 C 138.55 513.28, 139.10 516.00, 140.92 520.36 C 142.74 524.72, 144.33 526.81, 147.75 529.98 C 151.18 533.16, 153.56 534.40, 158.05 536.23 C 162.54 538.07, 165.29 538.67, 170.21 539.15 C 175.13 539.63, 177.81 539.47, 182.65 538.65 C 187.49 537.82, 189.95 537.02, 194.41 535.02 C 198.88 533.02, 201.07 531.63, 204.97 528.65 C 208.88 525.68, 210.73 523.80, 213.94 520.13 C 217.15 516.45, 218.60 514.41, 221.02 510.27 C 223.44 506.13, 224.47 503.83, 226.05 499.44 C 227.62 495.06, 228.17 492.81, 228.88 488.36 C 229.59 483.91, 229.71 481.40, 229.59 477.19 C 229.48 472.98, 229.02 471.00, 228.31 467.30 C 227.60 463.59, 227.17 461.73, 226.04 458.66 C 224.90 455.59, 224.07 454.02, 222.64 451.96 C 221.21 449.89, 220.38 449.02, 218.88 448.31 C 217.39 447.61, 216.38 447.64, 215.17 448.41 C 213.97 449.19, 213.21 449.89, 212.87 452.18 C 212.53 454.46, 212.88 456.10, 213.47 459.83 C 214.05 463.56, 214.76 466.03, 215.81 470.82 C 216.86 475.61, 217.47 478.63, 218.71 483.78 C 219.96 488.93, 220.72 491.83, 222.03 496.58 C 223.35 501.33, 224.12 503.74, 225.27 507.55 C 226.42 511.35, 226.66 513.10, 227.79 515.61 C 228.91 518.13, 229.68 519.15, 230.90 520.12 C 232.12 521.09, 232.80 521.00, 233.89 520.46 C 234.97 519.92, 235.43 519.12, 236.32 517.43 C 237.22 515.74, 237.68 514.50, 238.38 511.99 C 239.08 509.49, 239.10 507.60, 239.82 504.92 C 240.53 502.25, 240.94 500.71, 241.97 498.62 C 243.00 496.54, 243.69 495.63, 244.97 494.48 C 246.24 493.34, 246.95 493.01, 248.37 492.89 C 249.79 492.77, 250.34 493.01, 252.08 493.90 C 253.82 494.78, 254.95 495.71, 257.06 497.33 C 259.18 498.95, 260.46 500.01, 262.64 502.01 C 264.81 504.02, 265.93 505.13, 267.93 507.36 C 269.94 509.59, 270.75 510.95, 272.67 513.16 C 274.59 515.37, 275.58 516.69, 277.55 518.41 C 279.53 520.14, 280.53 520.92, 282.55 521.78 C 284.58 522.65, 285.70 522.88, 287.68 522.76 C 289.66 522.64, 290.78 522.45, 292.46 521.18 C 294.14 519.91, 295.11 518.69, 296.08 516.40 C 297.05 514.11, 297.29 512.40, 297.32 509.75 C 297.35 507.09, 297.05 505.58, 296.25 503.12 C 295.44 500.67, 294.82 499.30, 293.28 497.47 C 291.74 495.65, 290.53 494.79, 288.55 494.01 C 286.56 493.23, 285.22 493.15, 283.35 493.58 C 281.48 494.01, 280.41 494.71, 279.21 496.16 C 278.00 497.61, 277.50 498.74, 277.31 500.82 C 277.12 502.91, 277.31 504.23, 278.27 506.59 C 279.22 508.94, 280.07 510.40, 282.07 512.61 C 284.07 514.81, 285.48 515.83, 288.27 517.61 C 291.06 519.38, 292.74 520.24, 296.02 521.50 C 299.29 522.76, 301.21 523.45, 304.64 523.92 C 308.06 524.39, 309.93 524.15, 313.14 523.86 C 316.36 523.56, 318.02 523.18, 320.71 522.43 C 323.41 521.68, 324.76 521.07, 326.63 520.09 C 328.51 519.11, 329.23 518.42, 330.09 517.55 C 330.94 516.68, 330.90 516.42, 330.90 515.74 C 330.91 515.06, 330.47 514.74, 330.11 514.16 C 329.76 513.57, 329.34 513.09, 329.12 512.82 C 328.90 512.55, 329.15 512.95, 329.02 512.82 C 328.89 512.69, 328.78 512.75, 328.47 512.16 C 328.17 511.57, 327.96 510.97, 327.49 509.87 C 327.02 508.77, 326.60 508.01, 326.12 506.67 C 325.64 505.34, 325.39 504.58, 325.10 503.19 C 324.80 501.79, 324.63 501.00, 324.67 499.69 C 324.70 498.37, 324.87 497.76, 325.26 496.61 C 325.65 495.46, 325.88 494.82, 326.63 493.94 C 327.38 493.06, 327.84 492.77, 329.03 492.22 C 330.21 491.68, 331.01 491.56, 332.56 491.23 C 334.10 490.90, 335.09 490.70, 336.74 490.58 C 338.40 490.46, 339.34 490.37, 340.82 490.63 C 342.29 490.88, 342.80 491.01, 344.11 491.87 C 345.43 492.74, 346.04 493.56, 347.40 494.94 C 348.77 496.32, 349.57 497.13, 350.93 498.77 C 352.29 500.41, 352.76 501.39, 354.21 503.12 C 355.65 504.84, 356.48 505.94, 358.14 507.37 C 359.80 508.81, 360.64 509.34, 362.50 510.30 C 364.35 511.25, 365.27 511.72, 367.40 512.13 C 369.53 512.53, 370.90 512.64, 373.15 512.32 C 375.40 512.00, 376.57 511.45, 378.65 510.53 C 380.74 509.60, 381.63 508.95, 383.55 507.70 C 385.47 506.45, 386.62 505.61, 388.25 504.28 C 389.89 502.95, 390.61 502.04, 391.72 501.06 C 392.82 500.07, 392.90 499.52, 393.77 499.35 C 394.63 499.18, 394.89 499.54, 396.03 500.19 C 397.18 500.84, 397.82 501.47, 399.48 502.58 C 401.14 503.69, 402.11 504.53, 404.35 505.74 C 406.59 506.95, 408.02 507.73, 410.69 508.63 C 413.37 509.52, 415.08 509.75, 417.71 510.21 C 420.35 510.67, 421.75 510.89, 423.86 510.94 C 425.98 510.99, 426.92 510.77, 428.29 510.48 C 429.65 510.18, 430.19 509.96, 430.67 509.46 C 431.14 508.97, 431.12 508.52, 430.68 508.02 C 430.25 507.52, 429.72 507.41, 428.49 506.96 C 427.26 506.52, 426.47 506.28, 424.54 505.80 C 422.61 505.32, 421.24 505.11, 418.85 504.56 C 416.45 504.02, 414.92 503.88, 412.57 503.07 C 410.23 502.27, 409.18 501.63, 407.13 500.54 C 405.09 499.46, 404.25 498.61, 402.35 497.65 C 400.45 496.69, 399.47 496.17, 397.63 495.74 C 395.78 495.32, 394.83 495.25, 393.12 495.51 C 391.40 495.78, 390.72 496.21, 389.06 497.06 C 387.40 497.90, 386.55 498.53, 384.82 499.74 C 383.10 500.95, 382.11 501.92, 380.43 503.11 C 378.76 504.31, 378.06 504.94, 376.44 505.73 C 374.81 506.52, 373.96 506.75, 372.31 507.05 C 370.66 507.35, 369.71 507.41, 368.19 507.23 C 366.66 507.05, 366.00 506.85, 364.69 506.13 C 363.38 505.42, 362.88 504.94, 361.64 503.65 C 360.40 502.36, 359.78 501.38, 358.50 499.69 C 357.22 497.99, 356.69 496.93, 355.23 495.18 C 353.76 493.43, 352.88 492.45, 351.17 490.94 C 349.46 489.43, 348.53 488.69, 346.68 487.63 C 344.84 486.58, 343.98 486.20, 341.94 485.66 C 339.90 485.13, 338.64 484.90, 336.50 484.95 C 334.35 484.99, 333.20 485.35, 331.23 485.90 C 329.26 486.45, 328.33 486.74, 326.65 487.69 C 324.98 488.65, 324.08 489.26, 322.85 490.69 C 321.62 492.12, 321.19 493.12, 320.51 494.84 C 319.83 496.56, 319.66 497.48, 319.46 499.30 C 319.27 501.13, 319.34 502.15, 319.52 503.99 C 319.69 505.82, 319.86 506.77, 320.33 508.48 C 320.80 510.18, 321.16 511.10, 321.87 512.52 C 322.58 513.93, 322.99 514.50, 323.89 515.55 C 324.80 516.60, 325.32 517.25, 326.40 517.76 C 327.49 518.28, 328.48 518.41, 329.32 518.10 C 330.17 517.79, 330.44 516.94, 330.62 516.22 C 330.80 515.51, 330.71 514.93, 330.23 514.52 C 329.75 514.11, 329.34 513.95, 328.22 514.17 C 327.10 514.39, 326.42 514.97, 324.64 515.62 C 322.86 516.28, 321.72 516.78, 319.32 517.45 C 316.91 518.13, 315.43 518.65, 312.62 519.01 C 309.81 519.37, 308.23 519.65, 305.27 519.25 C 302.32 518.85, 300.64 518.22, 297.83 517.02 C 295.03 515.81, 293.51 514.90, 291.24 513.23 C 288.97 511.57, 288.04 510.50, 286.46 508.69 C 284.89 506.89, 284.25 505.77, 283.37 504.21 C 282.49 502.64, 282.24 501.94, 282.07 500.86 C 281.91 499.78, 282.12 499.42, 282.55 498.81 C 282.97 498.20, 283.37 497.92, 284.19 497.81 C 285.02 497.70, 285.64 497.72, 286.67 498.27 C 287.70 498.82, 288.47 499.27, 289.33 500.54 C 290.19 501.81, 290.57 502.79, 290.96 504.61 C 291.36 506.43, 291.37 507.64, 291.32 509.64 C 291.27 511.64, 291.09 512.93, 290.73 514.60 C 290.37 516.27, 290.17 517.14, 289.54 517.99 C 288.91 518.83, 288.56 518.85, 287.57 518.82 C 286.57 518.78, 285.87 518.63, 284.56 517.81 C 283.25 516.99, 282.60 516.34, 281.01 514.72 C 279.42 513.10, 278.48 511.87, 276.61 509.73 C 274.74 507.59, 273.74 506.32, 271.68 504.01 C 269.63 501.70, 268.58 500.45, 266.34 498.19 C 264.10 495.93, 262.98 494.48, 260.49 492.70 C 258.00 490.92, 256.41 490.06, 253.89 489.28 C 251.38 488.49, 250.23 488.45, 247.90 488.76 C 245.56 489.07, 244.34 489.42, 242.22 490.83 C 240.10 492.25, 238.93 493.41, 237.28 495.84 C 235.62 498.26, 235.10 500.06, 233.96 502.97 C 232.82 505.88, 232.10 507.69, 231.57 510.37 C 231.03 513.06, 231.08 514.59, 231.28 516.42 C 231.47 518.24, 232.13 519.06, 232.53 519.50 C 232.92 519.94, 233.37 519.74, 233.25 518.62 C 233.13 517.50, 232.85 516.35, 231.93 513.90 C 231.02 511.46, 230.03 510.04, 228.67 506.40 C 227.31 502.76, 226.48 500.38, 225.13 495.71 C 223.78 491.04, 223.01 488.17, 221.90 483.05 C 220.79 477.94, 220.28 474.90, 219.58 470.13 C 218.88 465.35, 218.79 462.77, 218.42 459.18 C 218.04 455.58, 218.07 454.03, 217.71 452.15 C 217.35 450.27, 216.79 450.07, 216.60 449.79 C 216.41 449.51, 216.37 449.81, 216.76 450.75 C 217.15 451.68, 217.53 452.55, 218.55 454.47 C 219.57 456.39, 220.67 457.61, 221.86 460.34 C 223.06 463.07, 223.68 464.73, 224.52 468.12 C 225.36 471.52, 225.84 473.38, 226.05 477.33 C 226.27 481.28, 226.19 483.65, 225.58 487.86 C 224.98 492.07, 224.49 494.21, 223.04 498.38 C 221.58 502.55, 220.60 504.75, 218.31 508.70 C 216.03 512.64, 214.65 514.60, 211.61 518.10 C 208.57 521.60, 206.80 523.39, 203.11 526.22 C 199.42 529.04, 197.36 530.35, 193.16 532.23 C 188.97 534.11, 186.67 534.84, 182.14 535.60 C 177.61 536.36, 175.09 536.49, 170.51 536.03 C 165.93 535.58, 163.37 534.99, 159.23 533.33 C 155.10 531.66, 152.95 530.54, 149.83 527.71 C 146.71 524.89, 145.31 523.11, 143.63 519.21 C 141.96 515.31, 141.39 512.91, 141.46 508.23 C 141.53 503.54, 142.10 500.80, 143.98 495.79 C 145.86 490.78, 147.51 487.85, 150.86 483.20 C 154.20 478.54, 156.57 476.29, 160.70 472.51 C 164.83 468.72, 167.29 466.89, 171.50 464.29 C 175.72 461.68, 178.14 460.70, 181.78 459.49 C 185.41 458.28, 187.13 458.29, 189.68 458.23 C 192.23 458.16, 192.89 458.71, 194.53 459.15 C 196.16 459.59, 196.76 460.01, 197.86 460.41 C 198.96 460.82, 199.26 461.28, 200.02 461.16 C 200.78 461.04, 201.53 460.70, 201.64 459.81"
    style="stroke: #282e43; fill: #282e43;" />
  <path
    d="M 497.43,452.44 C 497.33 453.32, 498.38 455.18, 499.19 455.55 C 500.00 455.91, 501.37 455.14, 501.47 454.26 C 501.58 453.38, 500.53 451.51, 499.72 451.15 C 498.91 450.79, 497.54 451.56, 497.43 452.44"
    style="stroke: #282e43; fill: #282e43;" />
  <path
    d="M 487.16,448.41 C 486.22 448.87, 485.31 449.63, 484.44 451.56 C 483.56 453.50, 482.90 455.08, 482.79 458.09 C 482.67 461.09, 483.00 463.06, 483.85 466.59 C 484.70 470.12, 485.57 472.18, 487.02 475.74 C 488.47 479.31, 489.45 481.25, 491.11 484.41 C 492.77 487.58, 493.68 489.07, 495.31 491.56 C 496.94 494.05, 497.91 495.23, 499.26 496.86 C 500.62 498.49, 501.08 499.01, 502.06 499.71 C 503.04 500.41, 503.47 500.58, 504.16 500.37 C 504.84 500.16, 505.31 499.62, 505.48 498.65 C 505.65 497.68, 505.46 496.96, 505.00 495.52 C 504.55 494.08, 503.98 493.33, 503.21 491.46 C 502.43 489.59, 501.87 488.47, 501.13 486.16 C 500.40 483.85, 499.90 482.40, 499.54 479.91 C 499.18 477.42, 499.04 476.08, 499.35 473.71 C 499.66 471.34, 500.05 470.15, 501.08 468.06 C 502.12 465.96, 502.73 464.83, 504.52 463.24 C 506.31 461.64, 507.37 460.92, 510.03 460.07 C 512.69 459.22, 514.56 459.09, 517.81 458.98 C 521.06 458.86, 523.00 458.90, 526.27 459.49 C 529.53 460.08, 531.29 460.68, 534.13 461.94 C 536.97 463.20, 538.45 464.30, 540.44 465.78 C 542.43 467.27, 543.24 467.91, 544.09 469.38 C 544.94 470.84, 544.95 471.58, 544.69 473.10 C 544.43 474.61, 544.02 475.37, 542.80 476.95 C 541.57 478.52, 540.53 479.28, 538.56 480.98 C 536.58 482.69, 535.43 483.80, 532.93 485.47 C 530.42 487.15, 528.74 488.06, 526.03 489.36 C 523.31 490.65, 521.61 490.94, 519.35 491.94 C 517.10 492.93, 516.05 493.59, 514.74 494.33 C 513.43 495.07, 513.17 495.15, 512.80 495.66 C 512.44 496.16, 512.39 496.44, 512.94 496.84 C 513.48 497.24, 513.89 497.62, 515.54 497.66 C 517.18 497.70, 518.62 497.76, 521.17 497.04 C 523.73 496.32, 525.39 495.49, 528.31 494.06 C 531.23 492.62, 532.98 491.62, 535.78 489.85 C 538.57 488.08, 540.04 487.22, 542.29 485.19 C 544.53 483.15, 545.67 482.01, 546.99 479.68 C 548.31 477.36, 548.71 475.99, 548.88 473.55 C 549.05 471.11, 548.92 469.81, 547.84 467.47 C 546.77 465.14, 545.90 463.82, 543.51 461.88 C 541.12 459.93, 539.21 459.09, 535.91 457.74 C 532.62 456.39, 530.70 455.80, 527.05 455.14 C 523.41 454.48, 521.38 454.36, 517.69 454.43 C 514.00 454.51, 511.89 454.50, 508.60 455.50 C 505.31 456.51, 503.64 457.40, 501.23 459.45 C 498.83 461.50, 498.00 463.06, 496.58 465.75 C 495.16 468.43, 494.68 469.92, 494.13 472.87 C 493.58 475.83, 493.61 477.54, 493.84 480.52 C 494.07 483.50, 494.64 485.11, 495.29 487.78 C 495.95 490.45, 496.27 491.71, 497.10 493.88 C 497.93 496.05, 498.32 497.25, 499.44 498.63 C 500.57 500.01, 501.60 500.55, 502.72 500.80 C 503.85 501.05, 504.61 500.53, 505.05 499.88 C 505.49 499.23, 505.36 498.68, 504.95 497.54 C 504.54 496.39, 504.09 495.89, 502.99 494.15 C 501.89 492.40, 501.03 491.20, 499.44 488.83 C 497.85 486.46, 496.69 485.23, 495.04 482.29 C 493.40 479.34, 492.47 477.44, 491.23 474.10 C 489.98 470.76, 489.31 468.77, 488.82 465.60 C 488.34 462.43, 488.74 460.84, 488.78 458.26 C 488.83 455.69, 488.99 454.53, 489.06 452.73 C 489.13 450.92, 489.51 450.10, 489.13 449.23 C 488.75 448.37, 488.10 447.94, 487.16 448.41"
    style="stroke: #282e43; fill: #282e43;" />
  <path
    d="M 554.84,491.69 C 555.66 492.32, 556.89 492.49, 558.61 492.48 C 560.33 492.48, 561.43 492.33, 563.45 491.68 C 565.47 491.02, 566.89 490.50, 568.71 489.22 C 570.53 487.95, 571.31 486.95, 572.55 485.28 C 573.80 483.62, 574.28 482.69, 574.92 480.91 C 575.55 479.14, 575.87 478.14, 575.72 476.41 C 575.57 474.67, 575.25 473.63, 574.17 472.23 C 573.09 470.83, 572.19 470.07, 570.32 469.42 C 568.44 468.76, 567.09 468.64, 564.80 468.95 C 562.52 469.25, 561.02 469.70, 558.90 470.95 C 556.78 472.20, 555.56 473.20, 554.21 475.20 C 552.85 477.19, 552.30 478.54, 552.14 480.92 C 551.98 483.29, 552.12 484.72, 553.41 487.08 C 554.69 489.44, 555.83 490.83, 558.57 492.72 C 561.32 494.60, 563.46 495.28, 567.14 496.50 C 570.82 497.72, 572.98 498.10, 576.96 498.80 C 580.93 499.50, 583.18 499.69, 587.01 500.00 C 590.83 500.32, 592.83 500.38, 596.08 500.37 C 599.33 500.36, 600.86 500.35, 603.24 499.96 C 605.62 499.57, 606.53 499.28, 607.97 498.43 C 609.42 497.57, 609.88 496.98, 610.46 495.71 C 611.04 494.43, 611.10 493.56, 610.86 492.03 C 610.62 490.50, 610.17 489.55, 609.26 488.06 C 608.34 486.58, 607.55 485.86, 606.29 484.59 C 605.03 483.32, 604.15 482.72, 602.97 481.70 C 601.79 480.67, 601.31 480.15, 600.40 479.47 C 599.49 478.79, 599.00 478.41, 598.41 478.29 C 597.83 478.17, 597.44 478.47, 597.47 478.86 C 597.50 479.24, 597.70 479.78, 598.57 480.23 C 599.45 480.68, 600.18 480.85, 601.83 481.10 C 603.48 481.35, 604.55 481.46, 606.84 481.48 C 609.12 481.51, 610.57 481.66, 613.24 481.21 C 615.91 480.75, 617.54 480.38, 620.19 479.22 C 622.83 478.07, 624.24 477.38, 626.46 475.45 C 628.68 473.52, 629.78 472.34, 631.29 469.58 C 632.80 466.82, 633.34 465.03, 634.03 461.64 C 634.71 458.24, 634.84 456.22, 634.70 452.61 C 634.56 448.99, 634.03 447.00, 633.34 443.57 C 632.64 440.13, 632.28 438.45, 631.24 435.44 C 630.20 432.43, 629.48 430.81, 628.14 428.53 C 626.81 426.24, 626.08 425.28, 624.56 424.03 C 623.05 422.77, 622.04 422.29, 620.56 422.25 C 619.09 422.22, 618.19 422.51, 617.19 423.86 C 616.19 425.21, 615.44 426.44, 615.55 429.00 C 615.65 431.57, 616.44 433.33, 617.70 436.71 C 618.96 440.08, 620.08 441.93, 621.85 445.87 C 623.62 449.81, 624.55 452.09, 626.56 456.41 C 628.56 460.74, 629.76 463.16, 631.88 467.49 C 633.99 471.81, 635.21 474.07, 637.14 478.03 C 639.07 481.99, 639.89 484.00, 641.53 487.28 C 643.17 490.55, 643.75 492.25, 645.34 494.40 C 646.92 496.55, 647.91 497.25, 649.47 498.04 C 651.03 498.82, 651.78 498.69, 653.13 498.31 C 654.48 497.94, 655.10 497.41, 656.21 496.16 C 657.31 494.92, 657.82 493.91, 658.65 492.09 C 659.47 490.27, 659.59 488.98, 660.34 487.06 C 661.09 485.14, 661.38 484.06, 662.40 482.49 C 663.42 480.92, 664.09 480.15, 665.43 479.21 C 666.78 478.27, 667.44 478.09, 669.12 477.81 C 670.80 477.52, 672.01 477.64, 673.83 477.79 C 675.66 477.94, 676.60 478.01, 678.22 478.55 C 679.84 479.09, 680.54 479.46, 681.94 480.50 C 683.33 481.54, 684.03 482.26, 685.19 483.75 C 686.35 485.23, 686.71 486.18, 687.73 487.91 C 688.76 489.64, 689.15 490.69, 690.32 492.39 C 691.48 494.09, 692.03 495.00, 693.55 496.41 C 695.08 497.82, 695.90 498.56, 697.95 499.44 C 699.99 500.33, 701.24 500.74, 703.79 500.83 C 706.33 500.92, 707.95 500.69, 710.65 499.89 C 713.36 499.09, 714.78 498.33, 717.30 496.82 C 719.81 495.31, 721.07 494.29, 723.22 492.35 C 725.38 490.40, 726.46 489.19, 728.07 487.09 C 729.68 484.99, 730.39 483.85, 731.27 481.86 C 732.15 479.87, 732.54 478.86, 732.48 477.15 C 732.42 475.43, 732.06 474.44, 730.96 473.29 C 729.86 472.14, 728.91 471.63, 726.99 471.38 C 725.07 471.14, 723.70 471.29, 721.37 472.07 C 719.05 472.85, 717.60 473.60, 715.36 475.30 C 713.11 477.00, 711.83 478.33, 710.15 480.58 C 708.46 482.84, 707.78 484.23, 706.95 486.56 C 706.12 488.89, 705.81 490.15, 705.99 492.23 C 706.17 494.31, 706.66 495.52, 707.86 496.96 C 709.05 498.41, 710.16 499.05, 711.96 499.45 C 713.77 499.86, 715.05 499.70, 716.90 498.98 C 718.76 498.26, 719.73 497.49, 721.23 495.86 C 722.73 494.23, 723.58 492.92, 724.40 490.83 C 725.23 488.75, 725.38 487.07, 725.34 485.42 C 725.30 483.77, 724.61 482.98, 724.22 482.59 C 723.84 482.19, 723.38 482.52, 723.42 483.44 C 723.45 484.35, 723.44 485.48, 724.40 487.16 C 725.37 488.84, 726.35 490.34, 728.23 491.83 C 730.11 493.32, 731.69 493.97, 733.82 494.61 C 735.95 495.25, 737.04 495.18, 738.88 495.02 C 740.72 494.85, 741.49 494.59, 743.03 493.78 C 744.56 492.98, 745.31 492.34, 746.55 490.98 C 747.80 489.61, 748.35 488.64, 749.24 486.97 C 750.13 485.30, 750.53 484.25, 751.00 482.63 C 751.47 481.01, 751.67 479.92, 751.58 478.87 C 751.50 477.83, 750.87 477.28, 750.58 477.41 C 750.29 477.55, 749.78 478.24, 750.12 479.55 C 750.45 480.87, 751.02 482.20, 752.25 483.99 C 753.48 485.78, 754.51 486.77, 756.25 488.48 C 757.98 490.18, 759.05 491.13, 760.93 492.51 C 762.81 493.89, 763.76 494.51, 765.65 495.39 C 767.54 496.27, 768.53 496.64, 770.39 496.89 C 772.25 497.14, 773.24 497.10, 774.95 496.64 C 776.66 496.19, 777.65 495.54, 778.94 494.62 C 780.24 493.69, 780.76 492.85, 781.44 492.02 C 782.12 491.19, 782.03 490.64, 782.34 490.47 C 782.66 490.29, 782.54 490.40, 783.03 491.13 C 783.53 491.86, 783.74 492.80, 784.82 494.12 C 785.90 495.45, 786.79 496.51, 788.45 497.76 C 790.11 499.00, 791.21 499.58, 793.11 500.33 C 795.00 501.09, 795.99 501.36, 797.92 501.53 C 799.84 501.70, 800.85 501.63, 802.74 501.19 C 804.62 500.74, 805.56 500.33, 807.34 499.31 C 809.13 498.30, 810.12 497.60, 811.65 496.10 C 813.17 494.61, 814.10 493.44, 814.98 491.85 C 815.86 490.25, 816.04 489.19, 816.05 488.13 C 816.06 487.08, 815.53 486.56, 815.04 486.58 C 814.55 486.59, 813.76 487.03, 813.59 488.19 C 813.43 489.36, 813.39 490.63, 814.21 492.41 C 815.03 494.20, 815.93 495.43, 817.70 497.13 C 819.47 498.83, 820.82 499.69, 823.05 500.90 C 825.28 502.11, 826.55 502.51, 828.87 503.19 C 831.19 503.87, 832.56 504.17, 834.64 504.30 C 836.73 504.42, 837.71 504.15, 839.29 503.82 C 840.87 503.49, 841.55 503.19, 842.53 502.65 C 843.52 502.10, 843.96 501.66, 844.21 501.09 C 844.46 500.52, 844.23 499.89, 843.80 499.80 C 843.36 499.71, 842.46 500.00, 842.04 500.64 C 841.63 501.28, 841.45 502.14, 841.73 502.99 C 842.01 503.83, 842.69 504.32, 843.43 504.86 C 844.17 505.40, 844.61 505.60, 845.42 505.67 C 846.24 505.75, 846.87 505.52, 847.50 505.22 C 848.14 504.92, 848.40 504.54, 848.59 504.18 C 848.77 503.83, 848.38 503.79, 848.44 503.46 C 848.50 503.14, 848.78 503.12, 848.89 502.56 C 849.00 501.99, 849.18 501.25, 848.99 500.61 C 848.80 499.97, 848.28 499.72, 847.92 499.36 C 847.56 499.00, 847.65 498.93, 847.17 498.79 C 846.69 498.65, 846.27 498.64, 845.51 498.66 C 844.75 498.69, 843.98 498.92, 843.36 498.92 C 842.74 498.92, 842.86 498.71, 842.40 498.68 C 841.94 498.64, 841.83 498.63, 841.07 498.74 C 840.31 498.85, 839.77 499.13, 838.59 499.22 C 837.41 499.31, 836.79 499.45, 835.18 499.19 C 833.58 498.93, 832.41 498.56, 830.57 497.91 C 828.73 497.25, 827.63 496.96, 825.99 495.90 C 824.35 494.83, 823.59 493.95, 822.38 492.58 C 821.16 491.21, 820.84 490.26, 819.91 489.06 C 818.97 487.86, 818.61 487.29, 817.69 486.57 C 816.78 485.85, 816.35 485.57, 815.34 485.45 C 814.33 485.32, 813.71 485.34, 812.66 485.95 C 811.60 486.55, 811.11 487.24, 810.06 488.47 C 809.01 489.69, 808.51 490.77, 807.39 492.05 C 806.28 493.33, 805.68 493.97, 804.49 494.86 C 803.31 495.74, 802.68 496.08, 801.47 496.47 C 800.26 496.86, 799.64 496.98, 798.44 496.81 C 797.24 496.63, 796.66 496.37, 795.46 495.59 C 794.27 494.82, 793.73 494.10, 792.48 492.92 C 791.22 491.74, 790.59 490.81, 789.20 489.69 C 787.81 488.57, 787.03 487.91, 785.53 487.33 C 784.03 486.74, 783.17 486.64, 781.69 486.78 C 780.21 486.92, 779.36 487.29, 778.14 488.02 C 776.92 488.76, 776.51 489.59, 775.59 490.46 C 774.67 491.33, 774.42 491.95, 773.53 492.35 C 772.65 492.75, 772.28 492.73, 771.16 492.47 C 770.05 492.20, 769.30 491.85, 767.96 491.02 C 766.62 490.19, 765.85 489.70, 764.47 488.33 C 763.09 486.95, 762.42 485.85, 761.05 484.13 C 759.68 482.41, 759.04 481.24, 757.62 479.71 C 756.20 478.18, 755.34 477.32, 753.95 476.48 C 752.57 475.64, 751.96 475.43, 750.68 475.51 C 749.39 475.60, 748.61 475.91, 747.54 476.91 C 746.47 477.90, 746.03 478.96, 745.31 480.47 C 744.59 481.99, 744.54 483.00, 743.95 484.47 C 743.36 485.93, 742.98 486.67, 742.34 487.81 C 741.70 488.95, 741.46 489.57, 740.76 490.18 C 740.05 490.78, 739.73 490.94, 738.81 490.82 C 737.88 490.70, 737.30 490.47, 736.12 489.59 C 734.94 488.71, 734.28 487.74, 732.90 486.42 C 731.53 485.09, 730.69 484.06, 729.24 482.96 C 727.80 481.87, 727.05 481.30, 725.67 480.94 C 724.30 480.57, 723.52 480.50, 722.34 481.14 C 721.16 481.78, 720.54 482.63, 719.77 484.13 C 719.01 485.62, 719.09 486.97, 718.51 488.62 C 717.93 490.27, 717.61 491.19, 716.87 492.37 C 716.12 493.55, 715.63 493.96, 714.79 494.51 C 713.95 495.06, 713.44 495.15, 712.68 495.13 C 711.92 495.11, 711.45 495.00, 710.98 494.41 C 710.51 493.82, 710.20 493.33, 710.34 492.17 C 710.47 491.01, 710.80 490.20, 711.67 488.61 C 712.53 487.03, 713.20 485.92, 714.68 484.26 C 716.17 482.61, 717.29 481.64, 719.09 480.34 C 720.90 479.04, 722.05 478.60, 723.70 477.76 C 725.34 476.93, 726.27 476.60, 727.31 476.16 C 728.34 475.72, 728.61 475.47, 728.89 475.57 C 729.18 475.67, 729.10 475.87, 728.72 476.66 C 728.33 477.45, 727.93 478.11, 726.96 479.52 C 725.99 480.93, 725.36 481.97, 723.87 483.70 C 722.39 485.44, 721.43 486.55, 719.53 488.20 C 717.64 489.86, 716.53 490.73, 714.42 491.98 C 712.30 493.23, 711.10 493.74, 708.97 494.44 C 706.83 495.13, 705.60 495.35, 703.76 495.46 C 701.91 495.57, 701.11 495.49, 699.74 494.99 C 698.36 494.50, 697.90 494.06, 696.88 492.99 C 695.87 491.92, 695.55 491.22, 694.66 489.65 C 693.76 488.09, 693.48 487.04, 692.41 485.18 C 691.35 483.32, 690.83 482.12, 689.33 480.35 C 687.83 478.59, 686.79 477.70, 684.91 476.38 C 683.03 475.05, 682.05 474.53, 679.92 473.75 C 677.79 472.96, 676.61 472.63, 674.25 472.45 C 671.89 472.28, 670.41 472.34, 668.11 472.87 C 665.81 473.40, 664.77 473.85, 662.76 475.11 C 660.74 476.36, 659.64 477.26, 658.02 479.14 C 656.40 481.02, 655.72 482.34, 654.64 484.50 C 653.56 486.66, 653.13 488.00, 652.61 489.93 C 652.10 491.87, 652.15 492.94, 652.07 494.18 C 651.98 495.41, 652.32 495.84, 652.19 496.10 C 652.06 496.35, 652.04 496.29, 651.41 495.44 C 650.77 494.59, 650.31 493.85, 649.03 491.84 C 647.74 489.84, 646.75 488.50, 644.98 485.42 C 643.22 482.35, 642.23 480.36, 640.21 476.48 C 638.18 472.61, 636.94 470.33, 634.85 466.04 C 632.75 461.74, 631.58 459.34, 629.73 455.00 C 627.89 450.67, 627.02 448.35, 625.61 444.36 C 624.21 440.38, 623.61 438.29, 622.72 435.07 C 621.83 431.85, 621.68 430.28, 621.18 428.27 C 620.68 426.25, 620.48 425.67, 620.23 424.98 C 619.97 424.29, 619.68 424.43, 619.92 424.83 C 620.15 425.23, 620.61 425.75, 621.38 426.97 C 622.16 428.19, 622.75 428.91, 623.80 430.93 C 624.85 432.96, 625.64 434.37, 626.65 437.08 C 627.66 439.80, 628.17 441.37, 628.86 444.50 C 629.54 447.64, 629.98 449.54, 630.07 452.76 C 630.16 455.99, 629.96 457.76, 629.30 460.63 C 628.65 463.50, 628.03 464.92, 626.80 467.10 C 625.58 469.28, 624.92 470.15, 623.19 471.54 C 621.45 472.94, 620.29 473.29, 618.13 474.05 C 615.97 474.81, 614.62 475.09, 612.40 475.34 C 610.18 475.58, 609.05 475.39, 607.03 475.27 C 605.01 475.16, 604.02 474.78, 602.32 474.77 C 600.62 474.76, 599.80 474.76, 598.53 475.23 C 597.25 475.69, 596.59 476.14, 595.95 477.11 C 595.31 478.08, 595.17 478.95, 595.32 480.09 C 595.48 481.24, 596.00 481.74, 596.72 482.84 C 597.44 483.95, 597.95 484.39, 598.95 485.61 C 599.94 486.82, 600.59 487.67, 601.70 488.91 C 602.81 490.15, 603.47 490.84, 604.49 491.81 C 605.51 492.79, 606.14 493.21, 606.81 493.79 C 607.49 494.37, 607.89 494.41, 607.86 494.69 C 607.83 494.97, 607.69 495.04, 606.66 495.19 C 605.64 495.34, 604.86 495.31, 602.73 495.43 C 600.60 495.54, 599.10 495.68, 596.01 495.76 C 592.93 495.85, 590.96 496.07, 587.30 495.86 C 583.64 495.64, 581.45 495.42, 577.73 494.68 C 574.01 493.94, 571.94 493.43, 568.70 492.15 C 565.47 490.88, 563.80 489.84, 561.57 488.33 C 559.33 486.81, 558.51 486.00, 557.52 484.59 C 556.52 483.18, 556.45 482.54, 556.60 481.29 C 556.74 480.05, 557.22 479.40, 558.25 478.38 C 559.27 477.35, 560.19 476.89, 561.71 476.17 C 563.24 475.45, 564.38 475.18, 565.88 474.79 C 567.38 474.40, 568.19 474.21, 569.20 474.22 C 570.21 474.23, 570.51 474.40, 570.92 474.85 C 571.33 475.30, 571.35 475.62, 571.23 476.46 C 571.11 477.30, 570.87 477.92, 570.32 479.04 C 569.78 480.16, 569.45 480.98, 568.51 482.05 C 567.56 483.12, 567.01 483.60, 565.60 484.40 C 564.19 485.20, 563.07 485.42, 561.46 486.05 C 559.85 486.68, 558.95 486.89, 557.56 487.55 C 556.17 488.20, 555.04 488.51, 554.50 489.34 C 553.95 490.17, 554.02 491.06, 554.84 491.69"
    style="stroke: #282e43; fill: #282e43;" />
</svg>