<svg xmlns="http://www.w3.org/2000/svg" id="canvas" viewBox="147.713 437.016 626.580 140.900">
  <path
    d="M 154.95,440.72 C 155.41 440.53, 154.36 440.41, 153.65 440.66 C 152.94 440.91, 151.97 441.48, 151.39 441.97 C 150.82 442.45, 150.83 442.33, 150.75 443.10 C 150.68 443.87, 150.68 444.40, 151.02 445.82 C 151.37 447.24, 151.87 448.16, 152.47 450.19 C 153.07 452.22, 153.34 453.48, 154.03 455.98 C 154.71 458.49, 155.30 459.85, 155.87 462.71 C 156.45 465.58, 156.43 467.01, 156.90 470.32 C 157.37 473.63, 157.79 475.62, 158.21 479.29 C 158.64 482.95, 158.76 484.83, 159.02 488.65 C 159.28 492.47, 159.24 494.51, 159.50 498.39 C 159.75 502.26, 159.94 504.32, 160.29 508.04 C 160.63 511.76, 160.96 513.59, 161.21 517.00 C 161.45 520.42, 161.31 522.09, 161.53 525.12 C 161.75 528.15, 161.93 529.46, 162.30 532.14 C 162.67 534.83, 162.68 536.45, 163.39 538.54 C 164.10 540.63, 164.88 541.58, 165.86 542.59 C 166.84 543.59, 167.56 543.48, 168.29 543.56 C 169.02 543.63, 169.34 543.25, 169.52 542.97 C 169.70 542.68, 169.26 542.31, 169.19 542.13 C 169.11 541.94, 169.09 542.34, 169.14 542.04 C 169.19 541.74, 169.57 541.59, 169.45 540.61 C 169.33 539.62, 168.92 538.98, 168.55 537.12 C 168.18 535.27, 168.04 533.83, 167.62 531.33 C 167.20 528.83, 166.83 527.58, 166.46 524.63 C 166.08 521.68, 166.11 519.99, 165.74 516.59 C 165.36 513.18, 164.97 511.30, 164.56 507.61 C 164.15 503.91, 163.94 501.96, 163.69 498.11 C 163.45 494.27, 163.52 492.25, 163.33 488.39 C 163.15 484.54, 163.05 482.56, 162.75 478.84 C 162.46 475.12, 162.10 473.18, 161.85 469.79 C 161.59 466.40, 161.77 464.94, 161.48 461.90 C 161.20 458.85, 160.90 457.26, 160.43 454.56 C 159.95 451.86, 159.63 450.54, 159.11 448.41 C 158.59 446.27, 158.32 445.37, 157.84 443.89 C 157.36 442.40, 157.34 441.76, 156.72 440.98 C 156.09 440.21, 155.56 439.98, 154.72 440.02 C 153.88 440.05, 153.19 440.86, 152.51 441.18 C 151.83 441.50, 150.85 441.73, 151.34 441.63 C 151.83 441.54, 154.49 440.91, 154.95 440.72"
    style="stroke: #282e43; fill: #282e43;" />
  <path
    d="M 202.73,444.60 C 202.14 445.76, 202.21 447.53, 202.28 449.99 C 202.35 452.44, 202.67 453.81, 203.09 456.85 C 203.52 459.89, 203.89 461.74, 204.42 465.19 C 204.95 468.64, 205.30 470.53, 205.75 474.10 C 206.21 477.66, 206.29 479.32, 206.69 482.99 C 207.09 486.67, 207.39 488.73, 207.74 492.47 C 208.10 496.21, 208.27 498.12, 208.48 501.70 C 208.68 505.28, 208.63 507.11, 208.75 510.37 C 208.88 513.63, 208.91 515.18, 209.09 518.01 C 209.28 520.84, 209.31 522.14, 209.68 524.51 C 210.05 526.88, 210.16 528.05, 210.95 529.84 C 211.74 531.63, 212.68 532.90, 213.63 533.45 C 214.57 534.01, 215.36 533.57, 215.68 532.61 C 216.00 531.65, 215.42 530.39, 215.23 528.65 C 215.04 526.91, 214.90 526.12, 214.73 523.91 C 214.56 521.70, 214.64 520.37, 214.39 517.60 C 214.14 514.83, 213.78 513.31, 213.49 510.07 C 213.20 506.83, 213.23 505.00, 212.94 501.39 C 212.65 497.79, 212.44 495.81, 212.06 492.04 C 211.67 488.28, 211.37 486.24, 211.03 482.56 C 210.68 478.87, 210.63 477.21, 210.32 473.61 C 210.01 470.01, 209.81 468.06, 209.48 464.56 C 209.15 461.06, 209.07 459.19, 208.68 456.11 C 208.29 453.03, 208.22 451.55, 207.53 449.16 C 206.85 446.77, 206.20 445.06, 205.24 444.15 C 204.27 443.24, 203.32 443.43, 202.73 444.60"
    style="stroke: #282e43; fill: #282e43;" />
  <path
    d="M 160.13,500.18 C 160.77 500.20, 160.79 499.96, 161.17 499.81 C 161.55 499.67, 161.14 499.48, 162.03 499.45 C 162.91 499.41, 163.53 499.77, 165.60 499.65 C 167.67 499.53, 169.65 499.41, 172.38 498.86 C 175.10 498.31, 176.81 497.70, 179.21 496.90 C 181.61 496.09, 183.37 495.73, 184.39 494.84 C 185.40 493.95, 185.45 493.25, 184.28 492.47 C 183.10 491.68, 181.14 491.13, 178.51 490.91 C 175.89 490.69, 173.98 491.02, 171.16 491.37 C 168.34 491.72, 166.70 492.05, 164.43 492.66 C 162.16 493.26, 161.21 493.46, 159.82 494.42 C 158.43 495.39, 157.85 496.43, 157.47 497.48 C 157.10 498.54, 157.41 499.15, 157.95 499.69 C 158.48 500.22, 159.48 500.15, 160.13 500.18"
    style="stroke: #282e43; fill: #282e43;" />
  <path
    d="M 241.23,506.78 C 241.96 506.99, 242.43 506.88, 242.89 506.80 C 243.34 506.72, 243.10 506.59, 243.52 506.37 C 243.95 506.15, 244.29 506.20, 245.01 505.69 C 245.74 505.19, 246.18 504.64, 247.16 503.84 C 248.15 503.04, 248.81 502.73, 249.93 501.68 C 251.06 500.64, 251.61 499.90, 252.80 498.62 C 253.99 497.33, 254.73 496.68, 255.89 495.25 C 257.06 493.81, 257.64 493.05, 258.63 491.44 C 259.61 489.82, 260.30 488.85, 260.81 487.17 C 261.32 485.50, 261.40 484.62, 261.20 483.05 C 260.99 481.49, 260.71 480.64, 259.78 479.36 C 258.84 478.08, 258.16 477.36, 256.53 476.66 C 254.89 475.96, 253.72 475.77, 251.61 475.87 C 249.50 475.97, 248.21 476.34, 245.98 477.15 C 243.74 477.96, 242.61 478.55, 240.44 479.91 C 238.26 481.26, 237.06 482.07, 235.09 483.93 C 233.11 485.79, 232.19 486.99, 230.57 489.21 C 228.96 491.43, 228.20 492.54, 227.01 495.02 C 225.82 497.51, 225.06 498.99, 224.64 501.64 C 224.22 504.28, 224.39 505.69, 224.90 508.22 C 225.41 510.76, 225.82 511.94, 227.20 514.29 C 228.57 516.64, 229.47 518.00, 231.78 519.96 C 234.09 521.91, 235.72 522.68, 238.76 524.07 C 241.79 525.46, 243.56 526.10, 246.95 526.90 C 250.34 527.70, 252.17 527.86, 255.69 528.06 C 259.21 528.26, 261.07 528.30, 264.55 527.92 C 268.03 527.54, 269.74 527.05, 273.10 526.16 C 276.47 525.28, 278.20 524.69, 281.38 523.48 C 284.55 522.27, 286.24 521.69, 288.99 520.10 C 291.73 518.50, 292.95 517.49, 295.10 515.51 C 297.25 513.54, 298.18 512.45, 299.74 510.22 C 301.30 507.98, 301.99 506.77, 302.89 504.34 C 303.80 501.91, 303.88 500.45, 304.28 498.05 C 304.67 495.66, 304.73 494.67, 304.87 492.35 C 305.00 490.03, 305.34 488.56, 304.95 486.45 C 304.57 484.34, 304.01 482.89, 302.94 481.78 C 301.87 480.67, 300.88 480.55, 299.62 480.88 C 298.36 481.21, 297.53 481.78, 296.65 483.43 C 295.78 485.09, 295.42 486.66, 295.22 489.15 C 295.02 491.64, 295.49 493.25, 295.66 495.86 C 295.83 498.47, 295.88 499.68, 296.09 502.21 C 296.31 504.74, 296.43 506.21, 296.75 508.51 C 297.07 510.81, 297.32 511.85, 297.69 513.71 C 298.06 515.57, 298.11 516.50, 298.62 517.83 C 299.12 519.16, 299.36 519.85, 300.21 520.36 C 301.05 520.87, 301.93 520.68, 302.83 520.37 C 303.72 520.06, 304.01 519.76, 304.67 518.81 C 305.33 517.86, 305.73 517.26, 306.11 515.62 C 306.49 513.98, 306.48 512.79, 306.55 510.62 C 306.62 508.46, 306.52 507.03, 306.46 504.79 C 306.39 502.55, 306.18 501.48, 306.21 499.42 C 306.23 497.36, 306.41 496.33, 306.60 494.50 C 306.80 492.67, 306.80 491.78, 307.17 490.27 C 307.54 488.75, 307.71 488.02, 308.45 486.92 C 309.19 485.82, 309.75 485.50, 310.89 484.77 C 312.03 484.05, 312.81 483.78, 314.15 483.28 C 315.50 482.78, 316.31 482.41, 317.61 482.28 C 318.91 482.15, 319.42 482.20, 320.63 482.63 C 321.85 483.05, 322.45 483.47, 323.68 484.43 C 324.90 485.39, 325.59 485.97, 326.75 487.43 C 327.91 488.88, 328.44 489.80, 329.47 491.70 C 330.50 493.60, 331.03 494.68, 331.90 496.93 C 332.77 499.18, 333.17 500.45, 333.83 502.95 C 334.49 505.44, 334.66 506.90, 335.20 509.43 C 335.74 511.95, 336.05 513.42, 336.54 515.59 C 337.04 517.77, 337.15 518.70, 337.67 520.30 C 338.20 521.90, 338.48 522.97, 339.17 523.60 C 339.86 524.22, 340.54 524.17, 341.11 523.43 C 341.69 522.69, 341.81 521.63, 342.02 519.89 C 342.23 518.15, 342.34 517.08, 342.16 514.75 C 341.98 512.42, 341.62 510.90, 341.11 508.23 C 340.60 505.56, 340.33 504.09, 339.60 501.40 C 338.86 498.71, 338.42 497.29, 337.45 494.78 C 336.47 492.27, 335.95 491.06, 334.71 488.83 C 333.48 486.60, 332.84 485.41, 331.28 483.63 C 329.72 481.84, 328.71 481.10, 326.92 479.90 C 325.13 478.70, 324.24 478.25, 322.31 477.62 C 320.38 477.00, 319.32 476.72, 317.29 476.78 C 315.26 476.85, 314.05 477.23, 312.15 477.94 C 310.25 478.66, 309.39 479.15, 307.78 480.36 C 306.17 481.57, 305.25 482.29, 304.10 483.99 C 302.96 485.69, 302.63 486.92, 302.05 488.87 C 301.48 490.83, 301.55 491.73, 301.22 493.77 C 300.89 495.81, 300.62 496.89, 300.39 499.07 C 300.15 501.25, 300.22 502.45, 300.06 504.66 C 299.91 506.88, 299.82 508.14, 299.59 510.13 C 299.37 512.12, 299.02 512.97, 298.94 514.61 C 298.85 516.25, 298.70 517.24, 299.17 518.33 C 299.65 519.41, 300.54 519.82, 301.32 520.05 C 302.10 520.27, 302.60 520.07, 303.07 519.43 C 303.54 518.79, 303.69 518.19, 303.67 516.85 C 303.66 515.52, 303.29 514.57, 303.02 512.77 C 302.75 510.97, 302.53 510.01, 302.32 507.85 C 302.10 505.69, 301.95 504.36, 301.97 501.97 C 301.98 499.58, 302.20 498.41, 302.40 495.89 C 302.60 493.37, 303.02 491.71, 302.96 489.36 C 302.89 487.02, 302.54 485.61, 302.07 484.15 C 301.60 482.69, 301.24 482.28, 300.62 482.06 C 300.01 481.85, 299.37 482.06, 299.00 483.07 C 298.64 484.09, 298.74 485.30, 298.79 487.13 C 298.84 488.95, 299.22 490.18, 299.25 492.20 C 299.27 494.22, 299.18 495.17, 298.90 497.24 C 298.61 499.30, 298.52 500.52, 297.83 502.52 C 297.14 504.52, 296.72 505.42, 295.46 507.24 C 294.19 509.06, 293.33 509.93, 291.51 511.61 C 289.69 513.30, 288.74 514.20, 286.35 515.66 C 283.96 517.12, 282.47 517.74, 279.58 518.92 C 276.68 520.10, 274.97 520.71, 271.86 521.57 C 268.76 522.43, 267.22 522.89, 264.05 523.22 C 260.88 523.55, 259.19 523.47, 256.02 523.22 C 252.85 522.97, 251.18 522.79, 248.21 521.96 C 245.23 521.14, 243.69 520.40, 241.14 519.11 C 238.60 517.81, 237.37 517.01, 235.49 515.49 C 233.60 513.96, 232.83 513.13, 231.72 511.48 C 230.61 509.83, 230.28 508.98, 229.93 507.22 C 229.58 505.45, 229.53 504.57, 229.98 502.65 C 230.42 500.73, 231.11 499.61, 232.17 497.61 C 233.23 495.62, 233.89 494.55, 235.28 492.68 C 236.67 490.81, 237.48 489.78, 239.13 488.27 C 240.78 486.75, 241.74 486.11, 243.53 485.10 C 245.33 484.09, 246.34 483.79, 248.10 483.20 C 249.86 482.60, 250.93 482.43, 252.34 482.12 C 253.74 481.81, 254.33 481.66, 255.14 481.64 C 255.94 481.62, 256.04 481.71, 256.36 482.03 C 256.68 482.36, 256.84 482.66, 256.72 483.25 C 256.61 483.84, 256.43 484.02, 255.80 484.99 C 255.16 485.97, 254.44 486.84, 253.54 488.12 C 252.63 489.40, 252.34 490.16, 251.28 491.39 C 250.22 492.62, 249.36 493.11, 248.23 494.25 C 247.10 495.39, 246.63 496.14, 245.63 497.09 C 244.63 498.03, 244.09 498.28, 243.22 498.99 C 242.34 499.70, 242.02 500.03, 241.26 500.63 C 240.50 501.22, 239.99 501.26, 239.42 501.96 C 238.85 502.66, 238.46 503.39, 238.42 504.13 C 238.39 504.88, 238.68 505.17, 239.24 505.70 C 239.81 506.23, 240.50 506.56, 241.23 506.78"
    style="stroke: #282e43; fill: #282e43;" />
  <path
    d="M 353.39,499.17 C 352.71 499.56, 352.62 500.06, 352.28 500.80 C 351.94 501.53, 351.95 501.78, 351.69 502.84 C 351.43 503.89, 351.15 504.67, 350.99 506.06 C 350.83 507.45, 351.04 508.32, 350.89 509.78 C 350.74 511.23, 350.43 511.87, 350.23 513.34 C 350.03 514.82, 349.84 515.92, 349.90 517.15 C 349.96 518.38, 350.19 518.85, 350.52 519.51 C 350.84 520.18, 350.92 520.35, 351.53 520.47 C 352.14 520.59, 352.99 520.67, 353.55 520.11 C 354.11 519.55, 354.37 518.91, 354.33 517.68 C 354.29 516.45, 353.97 515.61, 353.36 513.97 C 352.75 512.34, 352.00 511.37, 351.27 509.51 C 350.54 507.64, 350.21 506.55, 349.69 504.64 C 349.17 502.74, 348.94 501.72, 348.69 499.98 C 348.43 498.24, 348.37 497.40, 348.42 495.94 C 348.47 494.48, 348.47 493.86, 348.95 492.69 C 349.43 491.52, 349.88 491.05, 350.81 490.08 C 351.73 489.11, 352.30 488.61, 353.57 487.86 C 354.85 487.11, 355.60 486.78, 357.18 486.35 C 358.76 485.91, 359.57 485.91, 361.49 485.68 C 363.41 485.45, 364.81 485.40, 366.76 485.20 C 368.71 485.00, 369.67 484.91, 371.23 484.68 C 372.79 484.45, 373.43 484.35, 374.57 484.04 C 375.70 483.74, 376.41 483.69, 376.91 483.14 C 377.41 482.58, 377.50 481.89, 377.07 481.26 C 376.64 480.62, 375.94 480.39, 374.77 479.97 C 373.59 479.54, 372.87 479.35, 371.18 479.16 C 369.48 478.96, 368.41 478.87, 366.29 478.98 C 364.17 479.09, 362.72 479.31, 360.57 479.71 C 358.42 480.10, 357.54 480.31, 355.54 480.96 C 353.55 481.62, 352.37 481.86, 350.60 482.96 C 348.82 484.07, 347.94 484.91, 346.66 486.49 C 345.39 488.07, 344.88 489.05, 344.21 490.85 C 343.53 492.66, 343.50 493.61, 343.29 495.53 C 343.07 497.45, 343.05 498.37, 343.12 500.45 C 343.18 502.52, 343.28 503.68, 343.62 505.90 C 343.96 508.13, 344.27 509.46, 344.82 511.59 C 345.38 513.72, 345.78 514.83, 346.41 516.55 C 347.05 518.28, 347.12 519.14, 348.00 520.21 C 348.88 521.29, 349.74 521.71, 350.82 521.93 C 351.91 522.16, 352.57 521.75, 353.42 521.35 C 354.27 520.94, 354.62 520.66, 355.07 519.90 C 355.52 519.13, 355.45 518.65, 355.66 517.52 C 355.87 516.39, 355.89 515.60, 356.13 514.25 C 356.37 512.90, 356.50 512.20, 356.84 510.78 C 357.17 509.36, 357.50 508.67, 357.80 507.16 C 358.11 505.64, 358.48 504.62, 358.37 503.23 C 358.25 501.83, 357.77 501.05, 357.22 500.17 C 356.68 499.29, 356.42 499.02, 355.65 498.82 C 354.88 498.61, 354.06 498.77, 353.39 499.17"
    style="stroke: #282e43; fill: #282e43;" />
  <path
    d="M 375.52,492.73 C 375.14 493.38, 375.03 493.65, 375.22 494.72 C 375.41 495.79, 375.55 496.65, 376.47 498.08 C 377.38 499.50, 378.17 500.39, 379.78 501.84 C 381.40 503.28, 382.63 503.99, 384.52 505.29 C 386.41 506.58, 387.32 506.98, 389.23 508.31 C 391.15 509.65, 392.08 510.60, 394.09 511.95 C 396.09 513.31, 397.25 513.91, 399.26 515.09 C 401.27 516.28, 402.20 516.96, 404.12 517.89 C 406.04 518.81, 407.16 519.22, 408.85 519.71 C 410.54 520.20, 411.24 520.31, 412.57 520.34 C 413.91 520.37, 414.84 520.38, 415.53 519.88 C 416.21 519.38, 416.36 518.58, 415.99 517.85 C 415.62 517.11, 414.74 516.81, 413.68 516.20 C 412.61 515.59, 412.06 515.47, 410.66 514.82 C 409.26 514.16, 408.36 513.86, 406.68 512.93 C 405.00 512.00, 404.13 511.33, 402.28 510.16 C 400.43 508.99, 399.35 508.40, 397.43 507.07 C 395.51 505.74, 394.51 504.86, 392.68 503.51 C 390.85 502.16, 389.91 501.65, 388.28 500.30 C 386.65 498.94, 385.87 498.05, 384.55 496.75 C 383.23 495.45, 382.75 494.77, 381.69 493.79 C 380.62 492.80, 380.14 492.28, 379.23 491.82 C 378.31 491.36, 377.84 491.31, 377.10 491.49 C 376.36 491.67, 375.89 492.09, 375.52 492.73"
    style="stroke: #282e43; fill: #282e43;" />
  <path
    d="M 422.15,490.67 C 421.64 490.52, 421.45 490.24, 420.72 490.47 C 419.98 490.71, 419.22 490.79, 418.46 491.85 C 417.70 492.91, 417.45 493.92, 416.92 495.76 C 416.40 497.61, 416.38 498.80, 415.84 501.07 C 415.31 503.34, 415.01 504.45, 414.25 507.11 C 413.49 509.77, 412.96 511.34, 412.04 514.37 C 411.12 517.39, 410.52 518.96, 409.65 522.24 C 408.78 525.52, 408.41 527.31, 407.69 530.78 C 406.98 534.26, 406.60 536.17, 406.07 539.61 C 405.54 543.06, 405.52 544.83, 405.05 548.01 C 404.57 551.20, 404.19 552.72, 403.70 555.54 C 403.21 558.36, 402.96 559.67, 402.61 562.10 C 402.26 564.53, 402.00 565.72, 401.94 567.70 C 401.89 569.68, 402.03 570.63, 402.35 572.01 C 402.67 573.38, 402.96 574.07, 403.55 574.57 C 404.15 575.07, 404.76 575.01, 405.31 574.50 C 405.87 574.00, 405.99 573.30, 406.33 572.03 C 406.67 570.77, 406.72 569.99, 407.02 568.16 C 407.32 566.34, 407.44 565.26, 407.83 562.91 C 408.21 560.55, 408.54 559.23, 408.95 556.38 C 409.37 553.53, 409.56 551.86, 409.92 548.65 C 410.28 545.43, 410.27 543.69, 410.76 540.31 C 411.24 536.94, 411.60 535.11, 412.34 531.78 C 413.07 528.44, 413.47 526.74, 414.45 523.62 C 415.42 520.50, 416.06 519.09, 417.22 516.17 C 418.37 513.26, 419.24 511.73, 420.23 509.06 C 421.21 506.39, 421.41 505.07, 422.13 502.83 C 422.86 500.60, 423.31 499.58, 423.87 497.88 C 424.42 496.17, 424.83 495.46, 424.91 494.32 C 424.99 493.18, 424.62 492.78, 424.29 492.17 C 423.95 491.55, 423.66 491.55, 423.24 491.26 C 422.81 490.96, 422.65 490.83, 422.15 490.67"
    style="stroke: #282e43; fill: #282e43;" />
  <path
    d="M 538.56,463.38 C 537.98 463.99, 537.99 464.56, 537.81 465.83 C 537.63 467.10, 537.66 467.88, 537.66 469.73 C 537.66 471.58, 537.82 472.67, 537.81 475.07 C 537.79 477.47, 537.67 478.87, 537.60 481.73 C 537.53 484.60, 537.42 486.26, 537.46 489.39 C 537.50 492.52, 537.73 494.35, 537.80 497.39 C 537.86 500.43, 537.85 501.80, 537.77 504.59 C 537.69 507.38, 537.48 508.84, 537.41 511.33 C 537.34 513.83, 537.37 515.14, 537.41 517.05 C 537.45 518.95, 537.32 519.69, 537.61 520.86 C 537.90 522.03, 538.36 522.47, 538.86 522.89 C 539.36 523.31, 539.86 523.07, 540.10 522.97 C 540.33 522.87, 539.96 522.49, 540.04 522.41 C 540.11 522.32, 540.11 522.81, 540.47 522.57 C 540.84 522.32, 541.39 522.22, 541.84 521.16 C 542.29 520.11, 542.49 519.23, 542.72 517.31 C 542.95 515.39, 542.87 514.08, 542.99 511.56 C 543.12 509.04, 543.32 507.57, 543.36 504.71 C 543.41 501.86, 543.28 500.33, 543.22 497.28 C 543.16 494.23, 542.96 492.48, 543.06 489.45 C 543.16 486.41, 543.46 484.96, 543.74 482.11 C 544.02 479.25, 544.36 477.77, 544.44 475.19 C 544.52 472.60, 544.46 471.24, 544.13 469.17 C 543.79 467.11, 543.43 466.14, 542.75 464.86 C 542.07 463.58, 541.56 463.07, 540.73 462.77 C 539.89 462.48, 539.15 462.77, 538.56 463.38"
    style="stroke: #282e43; fill: #282e43;" />
  <path
    d="M 521.41,461.68 C 522.19 461.77, 522.32 461.28, 523.52 460.85 C 524.73 460.41, 525.39 460.31, 527.45 459.51 C 529.50 458.71, 531.04 457.95, 533.79 456.84 C 536.54 455.74, 538.31 454.94, 541.20 453.99 C 544.08 453.04, 545.51 452.69, 548.21 452.07 C 550.90 451.45, 552.11 451.22, 554.66 450.90 C 557.21 450.58, 558.69 450.52, 560.98 450.46 C 563.27 450.40, 564.31 450.45, 566.11 450.60 C 567.91 450.75, 568.68 450.83, 569.99 451.19 C 571.30 451.56, 571.92 452.12, 572.66 452.41 C 573.39 452.70, 573.76 452.51, 573.66 452.65 C 573.57 452.80, 572.99 452.70, 572.19 453.14 C 571.38 453.57, 570.78 454.07, 569.63 454.81 C 568.49 455.56, 567.93 456.10, 566.47 456.87 C 565.01 457.64, 564.03 458.00, 562.32 458.64 C 560.62 459.29, 559.59 459.63, 557.95 460.10 C 556.31 460.56, 555.41 460.76, 554.13 460.98 C 552.85 461.20, 552.31 461.10, 551.54 461.21 C 550.77 461.32, 550.66 461.24, 550.28 461.54 C 549.90 461.84, 549.66 462.06, 549.64 462.70 C 549.63 463.35, 549.63 464.19, 550.20 464.76 C 550.78 465.33, 551.45 465.23, 552.52 465.54 C 553.59 465.86, 554.06 465.78, 555.54 466.32 C 557.02 466.87, 557.99 467.46, 559.92 468.28 C 561.86 469.10, 563.12 469.48, 565.21 470.42 C 567.29 471.36, 568.25 471.78, 570.34 472.98 C 572.42 474.17, 573.55 474.99, 575.62 476.40 C 577.70 477.81, 578.82 478.55, 580.72 480.03 C 582.63 481.51, 583.66 482.27, 585.13 483.79 C 586.59 485.32, 587.21 486.20, 588.05 487.66 C 588.89 489.12, 589.27 489.81, 589.33 491.08 C 589.39 492.36, 589.08 492.73, 588.34 494.04 C 587.59 495.35, 586.87 496.18, 585.63 497.63 C 584.39 499.09, 583.92 499.88, 582.12 501.31 C 580.33 502.74, 579.26 503.41, 576.66 504.78 C 574.05 506.15, 572.28 506.99, 569.10 508.17 C 565.92 509.34, 564.32 509.82, 560.76 510.67 C 557.20 511.53, 555.08 511.82, 551.29 512.43 C 547.50 513.04, 545.47 513.39, 541.80 513.74 C 538.14 514.09, 536.30 514.17, 532.95 514.17 C 529.59 514.18, 527.95 513.83, 525.02 513.75 C 522.10 513.67, 520.74 513.77, 518.31 513.79 C 515.88 513.80, 514.77 513.81, 512.86 513.84 C 510.95 513.86, 509.92 513.62, 508.74 513.90 C 507.56 514.18, 507.22 515.04, 506.95 515.23 C 506.68 515.41, 507.61 514.97, 507.40 514.82 C 507.19 514.67, 506.24 514.05, 505.90 514.46 C 505.55 514.87, 505.15 516.08, 505.67 516.88 C 506.19 517.67, 507.08 518.03, 508.50 518.45 C 509.92 518.87, 510.79 518.87, 512.76 518.97 C 514.74 519.06, 515.91 518.96, 518.36 518.93 C 520.80 518.90, 522.05 518.86, 524.99 518.82 C 527.93 518.78, 529.60 518.90, 533.05 518.75 C 536.50 518.59, 538.47 518.48, 542.25 518.06 C 546.03 517.65, 548.07 517.27, 551.96 516.66 C 555.86 516.06, 557.99 515.81, 561.73 515.04 C 565.47 514.28, 567.19 513.88, 570.66 512.82 C 574.14 511.77, 576.10 511.16, 579.11 509.77 C 582.12 508.38, 583.53 507.60, 585.73 505.88 C 587.92 504.16, 588.63 503.12, 590.09 501.18 C 591.54 499.23, 592.22 498.21, 593.00 496.16 C 593.79 494.11, 594.06 493.10, 594.01 490.94 C 593.97 488.78, 593.70 487.54, 592.76 485.35 C 591.82 483.17, 590.99 482.01, 589.31 480.03 C 587.63 478.06, 586.43 477.18, 584.36 475.48 C 582.29 473.78, 581.16 473.05, 578.95 471.53 C 576.75 470.01, 575.55 469.23, 573.34 467.89 C 571.13 466.56, 570.06 465.97, 567.91 464.86 C 565.75 463.74, 564.57 463.22, 562.55 462.30 C 560.53 461.39, 559.54 460.94, 557.82 460.28 C 556.10 459.62, 555.43 459.25, 553.94 459.00 C 552.46 458.76, 551.53 458.56, 550.40 459.07 C 549.28 459.58, 548.67 460.53, 548.32 461.55 C 547.98 462.57, 548.19 463.35, 548.67 464.17 C 549.15 465.00, 549.58 465.22, 550.73 465.68 C 551.88 466.14, 552.72 466.43, 554.44 466.48 C 556.16 466.54, 557.33 466.34, 559.33 465.95 C 561.32 465.56, 562.38 465.21, 564.41 464.54 C 566.43 463.87, 567.62 463.55, 569.46 462.59 C 571.30 461.63, 572.26 460.99, 573.59 459.74 C 574.93 458.49, 575.43 457.77, 576.14 456.35 C 576.84 454.92, 577.23 454.10, 577.12 452.61 C 577.01 451.12, 576.67 450.15, 575.57 448.91 C 574.47 447.67, 573.39 447.09, 571.61 446.41 C 569.83 445.72, 568.82 445.78, 566.68 445.49 C 564.54 445.19, 563.46 444.94, 560.91 444.93 C 558.37 444.93, 556.73 445.09, 553.96 445.46 C 551.18 445.82, 549.92 446.16, 547.04 446.76 C 544.17 447.36, 542.70 447.68, 539.59 448.46 C 536.49 449.25, 534.55 449.65, 531.52 450.66 C 528.50 451.67, 526.67 452.20, 524.47 453.52 C 522.27 454.83, 521.47 455.85, 520.51 457.23 C 519.55 458.60, 519.49 459.49, 519.67 460.38 C 519.85 461.27, 520.64 461.58, 521.41 461.68"
    style="stroke: #282e43; fill: #282e43;" />
  <path
    d="M 633.49,489.59 C 634.01 488.92, 634.15 488.21, 633.87 487.19 C 633.59 486.18, 633.12 485.49, 632.09 484.53 C 631.06 483.57, 630.27 483.02, 628.71 482.40 C 627.15 481.78, 626.21 481.75, 624.29 481.42 C 622.37 481.10, 621.47 480.84, 619.11 480.75 C 616.74 480.67, 615.34 480.60, 612.47 481.00 C 609.60 481.40, 607.89 481.94, 604.75 482.74 C 601.62 483.54, 599.87 483.91, 596.79 485.01 C 593.70 486.10, 592.13 486.78, 589.33 488.23 C 586.53 489.68, 585.16 490.50, 582.78 492.24 C 580.40 493.98, 579.25 494.83, 577.43 496.93 C 575.61 499.03, 574.77 500.29, 573.69 502.73 C 572.62 505.16, 572.22 506.56, 572.05 509.10 C 571.89 511.64, 572.07 513.05, 572.85 515.41 C 573.63 517.77, 574.35 518.90, 575.97 520.89 C 577.60 522.88, 578.64 523.85, 580.99 525.37 C 583.33 526.89, 584.81 527.63, 587.70 528.49 C 590.60 529.35, 592.32 529.44, 595.46 529.67 C 598.61 529.90, 600.19 529.94, 603.44 529.64 C 606.68 529.35, 608.51 529.00, 611.69 528.18 C 614.86 527.37, 616.53 526.90, 619.30 525.58 C 622.08 524.25, 623.31 523.32, 625.57 521.54 C 627.84 519.76, 628.95 518.78, 630.64 516.69 C 632.33 514.60, 632.95 513.37, 634.01 511.09 C 635.07 508.80, 635.48 507.53, 635.94 505.26 C 636.40 502.99, 636.36 501.76, 636.31 499.76 C 636.26 497.76, 636.22 496.58, 635.69 495.26 C 635.17 493.94, 634.66 493.50, 633.69 493.15 C 632.72 492.80, 631.78 492.79, 630.84 493.49 C 629.90 494.18, 629.36 495.04, 629.00 496.61 C 628.63 498.18, 628.79 499.25, 629.02 501.31 C 629.25 503.38, 629.74 504.60, 630.13 506.93 C 630.53 509.25, 630.66 510.40, 630.99 512.93 C 631.33 515.46, 631.42 516.93, 631.81 519.57 C 632.19 522.20, 632.36 523.52, 632.93 526.10 C 633.51 528.68, 633.89 530.12, 634.69 532.47 C 635.49 534.82, 635.95 536.21, 636.93 537.86 C 637.91 539.50, 638.71 539.92, 639.59 540.71 C 640.47 541.49, 640.75 541.70, 641.34 541.78 C 641.94 541.87, 642.31 541.68, 642.57 541.14 C 642.84 540.59, 642.80 540.13, 642.66 539.04 C 642.53 537.95, 642.37 537.36, 641.90 535.69 C 641.43 534.01, 640.96 532.82, 640.30 530.65 C 639.63 528.48, 639.10 527.21, 638.57 524.84 C 638.04 522.47, 637.95 521.30, 637.65 518.79 C 637.35 516.27, 637.29 514.79, 637.08 512.27 C 636.87 509.74, 636.73 508.52, 636.58 506.17 C 636.43 503.82, 636.53 502.52, 636.32 500.53 C 636.11 498.55, 636.07 497.53, 635.54 496.25 C 635.02 494.96, 634.40 494.54, 633.70 494.10 C 633.01 493.65, 632.67 493.70, 632.06 494.02 C 631.45 494.34, 630.96 494.52, 630.64 495.68 C 630.33 496.84, 630.49 498.10, 630.49 499.83 C 630.49 501.56, 630.90 502.51, 630.63 504.31 C 630.37 506.11, 629.97 507.04, 629.14 508.84 C 628.32 510.64, 627.87 511.64, 626.49 513.33 C 625.12 515.02, 624.18 515.82, 622.27 517.29 C 620.36 518.75, 619.33 519.51, 616.95 520.66 C 614.56 521.81, 613.14 522.30, 610.35 523.03 C 607.56 523.76, 605.87 524.10, 603.00 524.31 C 600.12 524.52, 598.69 524.39, 595.97 524.09 C 593.26 523.78, 591.81 523.49, 589.42 522.77 C 587.02 522.05, 585.87 521.56, 584.00 520.48 C 582.13 519.40, 581.31 518.72, 580.06 517.37 C 578.81 516.03, 578.31 515.32, 577.76 513.74 C 577.21 512.17, 577.15 511.27, 577.31 509.50 C 577.46 507.72, 577.72 506.70, 578.54 504.88 C 579.36 503.07, 579.90 502.08, 581.39 500.43 C 582.88 498.78, 583.91 498.15, 585.99 496.65 C 588.07 495.15, 589.28 494.26, 591.78 492.94 C 594.29 491.63, 595.67 491.00, 598.51 490.09 C 601.35 489.17, 603.05 488.92, 606.00 488.37 C 608.96 487.82, 610.72 487.64, 613.31 487.32 C 615.90 486.99, 616.99 486.72, 618.97 486.74 C 620.95 486.75, 621.70 487.08, 623.20 487.38 C 624.70 487.68, 625.45 487.86, 626.47 488.23 C 627.50 488.60, 627.71 488.87, 628.34 489.24 C 628.98 489.60, 629.07 489.79, 629.65 490.05 C 630.24 490.31, 630.49 490.63, 631.26 490.54 C 632.02 490.45, 632.97 490.26, 633.49 489.59"
    style="stroke: #282e43; fill: #282e43;" />
  <path
    d="M 683.79,489.63 C 683.57 488.77, 683.05 488.35, 681.92 487.53 C 680.79 486.71, 680.05 486.02, 678.15 485.52 C 676.25 485.03, 674.69 485.04, 672.43 485.04 C 670.17 485.04, 669.21 485.11, 666.85 485.52 C 664.50 485.94, 662.97 486.39, 660.63 487.11 C 658.29 487.83, 657.20 488.16, 655.15 489.12 C 653.11 490.08, 651.99 490.65, 650.42 491.92 C 648.84 493.20, 648.09 493.94, 647.27 495.48 C 646.46 497.02, 646.17 498.02, 646.35 499.64 C 646.52 501.25, 646.92 502.11, 648.15 503.57 C 649.37 505.03, 650.36 505.77, 652.47 506.94 C 654.58 508.11, 655.88 508.55, 658.71 509.41 C 661.54 510.27, 663.23 510.44, 666.61 511.22 C 669.99 512.00, 672.00 512.46, 675.59 513.31 C 679.19 514.15, 681.05 514.41, 684.60 515.45 C 688.15 516.49, 689.97 517.09, 693.36 518.51 C 696.75 519.94, 698.55 520.94, 701.55 522.57 C 704.55 524.19, 705.97 525.12, 708.35 526.63 C 710.73 528.14, 711.86 528.79, 713.44 530.10 C 715.03 531.40, 715.53 532.08, 716.27 533.15 C 717.01 534.21, 717.15 534.64, 717.17 535.43 C 717.19 536.22, 716.95 536.50, 716.38 537.09 C 715.80 537.67, 715.47 537.92, 714.29 538.34 C 713.10 538.75, 712.34 538.91, 710.45 539.17 C 708.56 539.42, 707.40 539.58, 704.83 539.61 C 702.25 539.65, 700.79 539.56, 697.59 539.35 C 694.39 539.13, 692.34 539.01, 688.80 538.53 C 685.27 538.05, 683.36 537.63, 679.89 536.93 C 676.43 536.23, 674.59 535.82, 671.47 535.04 C 668.35 534.25, 666.78 533.64, 664.29 533.01 C 661.80 532.38, 660.76 532.14, 659.01 531.89 C 657.25 531.63, 656.35 531.45, 655.53 531.73 C 654.71 532.02, 654.48 532.55, 654.90 533.33 C 655.32 534.10, 656.06 534.64, 657.63 535.61 C 659.21 536.58, 660.23 537.33, 662.77 538.18 C 665.32 539.03, 667.12 539.18, 670.36 539.85 C 673.60 540.53, 675.44 540.85, 678.97 541.54 C 682.51 542.24, 684.45 542.71, 688.05 543.34 C 691.66 543.97, 693.66 544.21, 697.00 544.71 C 700.35 545.21, 701.85 545.74, 704.76 545.83 C 707.67 545.92, 709.14 545.70, 711.55 545.16 C 713.96 544.63, 715.07 544.25, 716.79 543.16 C 718.51 542.07, 719.27 541.25, 720.16 539.70 C 721.06 538.14, 721.30 537.13, 721.28 535.37 C 721.27 533.62, 721.02 532.72, 720.11 530.93 C 719.20 529.13, 718.55 528.14, 716.74 526.41 C 714.93 524.67, 713.67 523.85, 711.05 522.26 C 708.43 520.67, 706.86 520.02, 703.65 518.47 C 700.44 516.92, 698.57 515.93, 695.01 514.50 C 691.46 513.06, 689.51 512.42, 685.87 511.28 C 682.22 510.13, 680.34 509.81, 676.77 508.79 C 673.21 507.76, 671.24 507.25, 668.04 506.16 C 664.84 505.08, 663.34 504.37, 660.78 503.38 C 658.21 502.38, 657.11 501.94, 655.22 501.19 C 653.33 500.44, 652.40 500.02, 651.32 499.63 C 650.25 499.23, 649.89 499.50, 649.84 499.22 C 649.79 498.94, 650.34 498.83, 651.07 498.23 C 651.81 497.64, 652.25 497.01, 653.52 496.25 C 654.78 495.49, 655.64 495.07, 657.41 494.42 C 659.17 493.76, 660.27 493.55, 662.36 492.97 C 664.44 492.38, 665.88 491.81, 667.85 491.51 C 669.82 491.20, 670.42 491.30, 672.23 491.43 C 674.03 491.55, 675.25 491.96, 676.88 492.14 C 678.50 492.32, 679.14 492.39, 680.36 492.34 C 681.58 492.28, 682.31 492.39, 682.99 491.85 C 683.68 491.31, 684.00 490.49, 683.79 489.63"
    style="stroke: #282e43; fill: #282e43;" />
  <path
    d="M 753.40,491.22 C 753.96 490.52, 754.11 489.60, 753.75 488.40 C 753.39 487.21, 752.89 486.34, 751.60 485.24 C 750.30 484.13, 749.22 483.50, 747.27 482.86 C 745.31 482.21, 744.17 482.24, 741.81 482.02 C 739.45 481.80, 738.00 481.68, 735.47 481.75 C 732.95 481.83, 731.49 482.08, 729.18 482.39 C 726.88 482.69, 725.89 482.88, 723.95 483.29 C 722.01 483.71, 721.07 483.93, 719.48 484.44 C 717.89 484.96, 717.13 485.00, 715.99 485.87 C 714.85 486.75, 714.26 487.39, 713.77 488.82 C 713.29 490.26, 713.06 491.25, 713.56 493.06 C 714.07 494.87, 714.63 496.02, 716.28 497.88 C 717.93 499.74, 719.29 500.60, 721.80 502.34 C 724.30 504.08, 725.84 504.87, 728.79 506.58 C 731.74 508.28, 733.40 509.14, 736.55 510.86 C 739.70 512.58, 741.41 513.43, 744.53 515.18 C 747.65 516.93, 749.36 517.90, 752.15 519.60 C 754.93 521.31, 756.28 522.13, 758.46 523.70 C 760.65 525.27, 761.52 526.01, 763.06 527.46 C 764.59 528.92, 765.29 529.83, 766.14 530.97 C 766.99 532.11, 767.31 532.41, 767.32 533.17 C 767.33 533.92, 767.05 534.13, 766.20 534.76 C 765.35 535.38, 764.86 535.64, 763.06 536.28 C 761.26 536.92, 760.01 537.22, 757.20 537.96 C 754.39 538.70, 752.67 539.32, 749.02 539.97 C 745.36 540.61, 743.05 540.91, 738.92 541.19 C 734.78 541.47, 732.56 541.39, 728.33 541.38 C 724.09 541.37, 721.71 541.36, 717.74 541.12 C 713.77 540.89, 711.82 540.76, 708.49 540.21 C 705.16 539.66, 703.54 539.13, 701.08 538.36 C 698.62 537.58, 697.76 537.00, 696.19 536.33 C 694.62 535.65, 694.08 535.44, 693.23 534.96 C 692.38 534.48, 692.47 534.03, 691.94 533.93 C 691.42 533.84, 690.82 533.86, 690.61 534.50 C 690.39 535.14, 690.21 535.96, 690.87 537.13 C 691.52 538.29, 692.14 539.11, 693.88 540.33 C 695.62 541.56, 696.75 542.42, 699.56 543.27 C 702.36 544.12, 704.31 544.21, 707.91 544.59 C 711.51 544.96, 713.47 544.98, 717.55 545.13 C 721.63 545.28, 723.99 545.29, 728.30 545.34 C 732.61 545.39, 734.85 545.49, 739.12 545.38 C 743.38 545.26, 745.76 545.09, 749.64 544.75 C 753.52 544.42, 755.35 544.34, 758.52 543.70 C 761.68 543.06, 763.24 542.75, 765.46 541.57 C 767.68 540.38, 768.46 539.43, 769.62 537.78 C 770.78 536.14, 771.15 535.16, 771.27 533.33 C 771.38 531.49, 771.11 530.51, 770.20 528.61 C 769.28 526.72, 768.44 525.70, 766.70 523.85 C 764.97 522.00, 763.94 521.07, 761.52 519.38 C 759.10 517.70, 757.54 517.08, 754.59 515.43 C 751.65 513.77, 749.94 512.85, 746.81 511.11 C 743.67 509.36, 741.95 508.50, 738.93 506.70 C 735.90 504.89, 734.34 503.98, 731.69 502.08 C 729.04 500.17, 727.84 498.95, 725.68 497.18 C 723.52 495.41, 722.40 494.52, 720.90 493.25 C 719.41 491.97, 718.93 491.52, 718.20 490.80 C 717.48 490.09, 717.34 489.92, 717.27 489.67 C 717.19 489.42, 717.13 489.57, 717.81 489.54 C 718.50 489.51, 719.26 489.71, 720.68 489.51 C 722.09 489.32, 723.09 488.83, 724.89 488.58 C 726.68 488.32, 727.53 488.30, 729.65 488.26 C 731.77 488.22, 733.15 488.30, 735.49 488.36 C 737.83 488.42, 739.32 488.46, 741.34 488.55 C 743.36 488.65, 744.23 488.55, 745.59 488.84 C 746.95 489.12, 747.35 489.57, 748.13 489.98 C 748.92 490.39, 748.95 490.50, 749.52 490.88 C 750.09 491.27, 750.19 491.86, 750.97 491.92 C 751.75 491.99, 752.85 491.93, 753.40 491.22"
    style="stroke: #282e43; fill: #282e43;" />
</svg>