<svg xmlns="http://www.w3.org/2000/svg" id="canvas" viewBox="170.416 324.707 774.554 196.284"><path d="M 210.24,379.55 C 209.73 380.53, 209.40 381.76, 209.67 384.22 C 209.95 386.67, 210.55 388.15, 211.60 391.82 C 212.65 395.50, 213.46 397.90, 214.92 402.57 C 216.37 407.24, 217.39 409.75, 218.87 415.18 C 220.36 420.62, 221.23 423.64, 222.35 429.74 C 223.48 435.85, 224.06 439.21, 224.51 445.70 C 224.96 452.20, 225.09 455.74, 224.60 462.22 C 224.12 468.70, 223.58 472.11, 222.10 478.09 C 220.62 484.08, 219.60 487.13, 217.20 492.14 C 214.80 497.16, 213.15 499.47, 210.09 503.15 C 207.04 506.83, 205.15 508.39, 201.92 510.55 C 198.69 512.71, 196.96 513.30, 193.94 513.93 C 190.91 514.57, 189.40 514.85, 186.80 513.74 C 184.20 512.63, 182.84 511.28, 180.94 508.41 C 179.05 505.54, 178.11 503.47, 177.32 499.40 C 176.52 495.32, 176.44 492.71, 176.95 488.04 C 177.47 483.38, 178.13 480.68, 179.90 476.06 C 181.66 471.45, 183.06 469.01, 185.78 464.97 C 188.50 460.94, 190.23 459.11, 193.50 455.89 C 196.77 452.67, 198.53 451.47, 202.13 448.87 C 205.74 446.26, 207.78 445.23, 211.52 442.88 C 215.27 440.53, 217.43 439.30, 220.86 437.11 C 224.29 434.92, 226.22 433.90, 228.69 431.91 C 231.15 429.92, 231.98 428.52, 233.17 427.17 C 234.36 425.82, 234.45 425.73, 234.64 425.15 C 234.83 424.56, 234.79 424.34, 234.12 424.26 C 233.45 424.18, 232.91 423.91, 231.29 424.76 C 229.67 425.61, 228.50 426.62, 226.02 428.50 C 223.53 430.38, 222.11 431.83, 218.86 434.17 C 215.62 436.51, 213.50 437.75, 209.80 440.21 C 206.10 442.66, 204.03 443.73, 200.37 446.46 C 196.70 449.18, 194.85 450.45, 191.46 453.83 C 188.07 457.21, 186.26 459.13, 183.40 463.37 C 180.54 467.60, 179.08 470.15, 177.18 475.01 C 175.28 479.87, 174.53 482.68, 173.90 487.68 C 173.26 492.68, 173.21 495.47, 174.02 500.01 C 174.83 504.56, 175.68 506.98, 177.95 510.39 C 180.23 513.81, 182.07 515.71, 185.41 517.08 C 188.75 518.45, 191.01 518.07, 194.66 517.27 C 198.31 516.46, 200.15 515.54, 203.65 513.05 C 207.15 510.57, 209.02 508.80, 212.17 504.83 C 215.31 500.85, 216.94 498.41, 219.37 493.17 C 221.79 487.93, 222.80 484.78, 224.29 478.62 C 225.78 472.47, 226.31 469.00, 226.80 462.38 C 227.30 455.77, 227.18 452.17, 226.76 445.55 C 226.35 438.94, 225.78 435.53, 224.73 429.32 C 223.69 423.11, 222.85 420.04, 221.54 414.50 C 220.23 408.97, 219.34 406.41, 218.18 401.67 C 217.02 396.92, 216.58 394.42, 215.73 390.76 C 214.88 387.09, 214.65 385.63, 213.95 383.34 C 213.25 381.04, 212.96 380.04, 212.22 379.28 C 211.48 378.52, 210.75 378.56, 210.24 379.55" style="stroke: #282e43; fill: #282e43;"/><path d="M 226.17,368.66 C 226.74 368.05, 227.03 367.15, 226.76 366.44 C 226.49 365.73, 225.69 365.14, 224.82 365.09 C 223.95 365.03, 222.96 365.52, 222.41 366.18 C 221.86 366.83, 221.78 367.70, 222.07 368.37 C 222.37 369.03, 223.08 369.44, 223.90 369.50 C 224.71 369.56, 225.60 369.27, 226.17 368.66" style="stroke: #282e43; fill: #282e43;"/><path d="M 236.38,400.36 C 235.73 401.27, 235.43 402.45, 235.17 404.85 C 234.92 407.25, 234.95 409.08, 235.11 412.35 C 235.27 415.62, 235.35 417.98, 235.97 421.22 C 236.59 424.46, 236.97 426.32, 238.22 428.57 C 239.46 430.81, 240.61 431.61, 242.20 432.43 C 243.79 433.25, 244.91 433.04, 246.17 432.68 C 247.43 432.32, 248.26 431.38, 248.51 430.64 C 248.76 429.89, 248.03 429.13, 247.41 428.95 C 246.79 428.78, 246.09 429.61, 245.40 429.77 C 244.70 429.93, 244.54 430.37, 243.95 429.76 C 243.37 429.16, 242.99 428.63, 242.48 426.75 C 241.96 424.86, 241.75 423.30, 241.37 420.35 C 240.98 417.39, 240.85 415.10, 240.56 411.97 C 240.26 408.83, 240.34 407.01, 239.91 404.68 C 239.49 402.34, 239.13 401.16, 238.43 400.30 C 237.72 399.43, 237.03 399.45, 236.38 400.36" style="stroke: #282e43; fill: #282e43;"/><path d="M 246.62,363.71 C 247.17 363.18, 247.57 362.49, 247.45 362.21 C 247.33 361.93, 246.75 361.86, 246.04 362.33 C 245.33 362.79, 244.42 363.89, 243.89 364.53 C 243.37 365.18, 243.25 365.50, 243.42 365.57 C 243.59 365.63, 244.10 365.23, 244.74 364.86 C 245.38 364.49, 246.08 364.25, 246.62 363.71" style="stroke: #282e43; fill: #282e43;"/><path d="M 276.43,391.83 C 276.07 391.35, 276.03 391.14, 275.32 390.90 C 274.61 390.66, 274.09 390.42, 272.88 390.62 C 271.67 390.82, 270.82 391.07, 269.28 391.91 C 267.75 392.76, 266.71 393.31, 265.20 394.85 C 263.70 396.40, 262.87 397.44, 261.75 399.64 C 260.64 401.85, 260.03 403.19, 259.62 405.87 C 259.21 408.55, 259.19 410.34, 259.72 413.04 C 260.25 415.75, 260.83 417.37, 262.29 419.40 C 263.74 421.43, 264.86 422.41, 267.01 423.20 C 269.17 423.99, 270.64 424.13, 273.08 423.36 C 275.53 422.59, 277.03 421.57, 279.22 419.35 C 281.41 417.14, 282.27 415.41, 284.04 412.29 C 285.80 409.18, 286.62 407.16, 288.07 403.77 C 289.52 400.38, 290.48 398.33, 291.30 395.34 C 292.12 392.34, 292.34 390.72, 292.19 388.77 C 292.04 386.82, 291.49 385.96, 290.55 385.57 C 289.62 385.17, 288.63 385.42, 287.52 386.79 C 286.41 388.16, 285.56 389.61, 284.99 392.40 C 284.43 395.20, 284.56 397.35, 284.69 400.78 C 284.82 404.20, 284.94 406.27, 285.66 409.53 C 286.38 412.80, 286.82 414.64, 288.29 417.10 C 289.75 419.56, 290.85 420.72, 292.98 421.82 C 295.10 422.92, 296.45 423.03, 298.91 422.60 C 301.37 422.18, 302.89 421.61, 305.28 419.70 C 307.67 417.79, 308.79 415.96, 310.87 413.04 C 312.95 410.11, 313.99 408.10, 315.67 405.07 C 317.34 402.03, 318.43 400.14, 319.24 397.86 C 320.05 395.57, 319.87 394.26, 319.72 393.65 C 319.57 393.03, 318.96 393.31, 318.49 394.79 C 318.03 396.27, 317.65 397.93, 317.38 401.04 C 317.12 404.15, 317.21 406.49, 317.16 410.33 C 317.10 414.16, 317.02 416.72, 317.10 420.24 C 317.18 423.76, 316.93 425.57, 317.57 427.93 C 318.20 430.29, 318.88 431.27, 320.27 432.03 C 321.66 432.79, 322.81 432.84, 324.53 431.74 C 326.25 430.63, 327.29 429.35, 328.86 426.52 C 330.44 423.69, 330.92 421.34, 332.41 417.58 C 333.90 413.81, 334.74 411.36, 336.30 407.69 C 337.86 404.01, 339.12 401.89, 340.21 399.19 C 341.30 396.49, 341.55 395.17, 341.76 394.20 C 341.97 393.23, 341.59 393.36, 341.26 394.36 C 340.93 395.35, 340.39 396.57, 340.11 399.17 C 339.83 401.77, 339.83 403.99, 339.88 407.36 C 339.93 410.74, 339.90 412.96, 340.36 416.02 C 340.82 419.09, 341.08 420.79, 342.17 422.69 C 343.25 424.59, 344.06 425.30, 345.78 425.53 C 347.49 425.76, 348.88 425.50, 350.73 423.85 C 352.59 422.21, 353.41 420.48, 355.05 417.29 C 356.69 414.10, 357.33 411.69, 358.93 407.90 C 360.53 404.12, 361.65 401.66, 363.06 398.36 C 364.46 395.05, 365.35 393.35, 365.96 391.39 C 366.56 389.43, 366.25 388.60, 366.09 388.54 C 365.93 388.48, 365.43 389.26, 365.14 391.07 C 364.86 392.89, 364.71 394.60, 364.65 397.61 C 364.59 400.62, 364.77 402.70, 364.85 406.11 C 364.92 409.52, 364.91 411.56, 365.03 414.66 C 365.15 417.76, 365.06 419.30, 365.44 421.60 C 365.83 423.90, 366.10 424.99, 366.97 426.16 C 367.85 427.33, 368.60 427.63, 369.80 427.44 C 371.00 427.25, 371.75 426.81, 372.98 425.23 C 374.22 423.65, 374.93 422.46, 375.97 419.55 C 377.02 416.63, 377.12 414.25, 378.19 410.65 C 379.26 407.05, 380.01 404.75, 381.33 401.55 C 382.66 398.36, 383.75 396.82, 384.81 394.67 C 385.87 392.51, 386.23 391.48, 386.64 390.78 C 387.04 390.08, 386.94 390.27, 386.83 391.17 C 386.72 392.08, 386.30 393.08, 386.10 395.32 C 385.90 397.57, 385.93 399.38, 385.84 402.41 C 385.76 405.45, 385.59 407.55, 385.69 410.49 C 385.80 413.43, 385.84 415.05, 386.38 417.09 C 386.91 419.14, 387.25 419.96, 388.35 420.70 C 389.45 421.43, 390.42 421.49, 391.87 420.76 C 393.32 420.03, 394.20 418.97, 395.60 417.04 C 396.99 415.11, 397.60 413.59, 398.84 411.12 C 400.08 408.64, 400.79 406.92, 401.80 404.67 C 402.81 402.42, 403.30 401.17, 403.91 399.87 C 404.51 398.57, 404.57 398.13, 404.83 398.18 C 405.08 398.23, 404.94 398.73, 405.19 400.10 C 405.43 401.48, 405.45 402.93, 406.04 405.06 C 406.64 407.18, 407.18 408.58, 408.16 410.72 C 409.15 412.87, 409.65 414.05, 410.97 415.77 C 412.29 417.48, 413.08 418.51, 414.75 419.28 C 416.42 420.06, 417.51 420.19, 419.31 419.64 C 421.12 419.09, 422.16 418.43, 423.79 416.54 C 425.41 414.65, 426.11 413.07, 427.44 410.18 C 428.77 407.30, 429.25 405.20, 430.43 402.10 C 431.61 399.01, 432.63 397.17, 433.34 394.72 C 434.06 392.27, 434.06 390.93, 434.00 389.85 C 433.94 388.77, 433.55 388.53, 433.03 389.30 C 432.51 390.08, 431.75 391.22, 431.40 393.73 C 431.05 396.24, 431.24 398.39, 431.28 401.85 C 431.32 405.30, 431.46 407.49, 431.59 411.01 C 431.71 414.53, 431.39 416.55, 431.91 419.45 C 432.43 422.35, 433.00 423.79, 434.18 425.51 C 435.35 427.24, 436.17 427.73, 437.79 428.08 C 439.40 428.43, 440.58 428.08, 442.27 427.25 C 443.95 426.42, 445.24 425.55, 446.22 423.93 C 447.19 422.31, 447.42 420.38, 447.14 419.16 C 446.85 417.94, 445.91 417.57, 444.79 417.84 C 443.67 418.11, 442.59 419.34, 441.54 420.51 C 440.48 421.67, 440.18 422.67, 439.50 423.67 C 438.82 424.67, 438.55 425.44, 438.14 425.50 C 437.73 425.57, 437.70 425.34, 437.46 424.00 C 437.22 422.66, 437.15 421.41, 436.95 418.79 C 436.75 416.17, 436.47 414.28, 436.45 410.91 C 436.43 407.53, 436.73 405.36, 436.87 401.92 C 437.00 398.49, 437.45 396.39, 437.11 393.75 C 436.77 391.10, 436.22 389.78, 435.17 388.69 C 434.13 387.61, 433.26 387.56, 431.87 388.34 C 430.49 389.13, 429.54 390.24, 428.25 392.60 C 426.97 394.97, 426.65 397.12, 425.44 400.16 C 424.23 403.21, 423.39 405.14, 422.21 407.83 C 421.03 410.52, 420.41 411.89, 419.54 413.62 C 418.68 415.36, 418.45 415.97, 417.89 416.50 C 417.32 417.02, 417.25 416.91, 416.72 416.26 C 416.19 415.60, 415.86 414.77, 415.25 413.23 C 414.64 411.69, 414.34 410.61, 413.67 408.56 C 413.01 406.50, 412.85 405.08, 411.92 402.95 C 410.99 400.82, 410.39 399.35, 409.03 397.91 C 407.66 396.47, 406.73 395.91, 405.10 395.75 C 403.47 395.58, 402.56 395.90, 400.88 397.09 C 399.20 398.27, 398.32 399.47, 396.71 401.67 C 395.11 403.86, 394.13 405.54, 392.84 408.06 C 391.54 410.58, 390.92 412.16, 390.23 414.27 C 389.54 416.38, 389.48 417.55, 389.38 418.63 C 389.28 419.71, 389.45 420.01, 389.75 419.66 C 390.05 419.31, 390.52 418.71, 390.88 416.90 C 391.24 415.09, 391.36 413.47, 391.57 410.59 C 391.78 407.71, 391.92 405.62, 391.92 402.49 C 391.92 399.37, 392.08 397.48, 391.56 394.96 C 391.05 392.44, 390.56 391.17, 389.34 389.89 C 388.11 388.61, 387.13 388.11, 385.42 388.56 C 383.71 389.02, 382.46 389.93, 380.79 392.18 C 379.13 394.42, 378.54 396.39, 377.10 399.77 C 375.66 403.16, 374.94 405.54, 373.59 409.10 C 372.24 412.66, 371.32 414.75, 370.35 417.58 C 369.37 420.41, 369.01 421.56, 368.72 423.24 C 368.44 424.93, 368.72 425.58, 368.93 426.00 C 369.13 426.42, 369.49 426.29, 369.73 425.34 C 369.98 424.39, 370.09 423.41, 370.14 421.25 C 370.20 419.09, 370.04 417.57, 370.02 414.54 C 370.00 411.52, 369.95 409.52, 370.04 406.12 C 370.13 402.71, 370.63 400.64, 370.47 397.51 C 370.32 394.39, 370.10 392.51, 369.25 390.47 C 368.40 388.44, 367.57 387.54, 366.22 387.35 C 364.87 387.15, 363.96 387.67, 362.50 389.51 C 361.04 391.34, 360.45 393.20, 358.92 396.52 C 357.39 399.84, 356.53 402.42, 354.85 406.11 C 353.17 409.81, 352.03 412.01, 350.53 414.99 C 349.03 417.97, 348.26 419.34, 347.33 421.01 C 346.41 422.68, 346.22 423.23, 345.91 423.34 C 345.60 423.46, 345.77 423.11, 345.78 421.56 C 345.78 420.01, 345.95 418.43, 345.94 415.58 C 345.93 412.73, 345.74 410.62, 345.73 407.31 C 345.71 403.99, 346.28 401.77, 345.86 399.02 C 345.44 396.26, 344.78 394.81, 343.64 393.52 C 342.49 392.22, 341.68 391.80, 340.14 392.52 C 338.60 393.23, 337.48 394.39, 335.93 397.10 C 334.38 399.81, 333.94 402.31, 332.39 406.05 C 330.85 409.78, 329.87 412.17, 328.20 415.78 C 326.54 419.38, 325.31 421.37, 324.07 424.08 C 322.82 426.80, 322.50 428.07, 321.99 429.36 C 321.47 430.64, 321.53 430.91, 321.48 430.52 C 321.44 430.13, 321.69 429.45, 321.76 427.39 C 321.83 425.33, 321.76 423.61, 321.84 420.23 C 321.92 416.86, 321.95 414.30, 322.16 410.50 C 322.37 406.70, 322.93 404.44, 322.88 401.23 C 322.82 398.01, 322.69 396.21, 321.88 394.43 C 321.07 392.66, 320.24 392.12, 318.84 392.34 C 317.44 392.56, 316.40 393.48, 314.90 395.55 C 313.40 397.62, 312.94 399.76, 311.34 402.68 C 309.74 405.61, 308.78 407.56, 306.88 410.17 C 304.98 412.79, 303.65 414.04, 301.85 415.75 C 300.06 417.47, 299.32 418.18, 297.92 418.75 C 296.51 419.33, 295.91 419.39, 294.82 418.63 C 293.72 417.88, 293.27 416.96, 292.43 414.96 C 291.59 412.95, 291.03 411.44, 290.61 408.61 C 290.19 405.77, 290.17 403.86, 290.33 400.79 C 290.48 397.72, 291.21 395.85, 291.37 393.26 C 291.53 390.68, 291.40 389.31, 291.12 387.86 C 290.85 386.41, 290.54 385.97, 289.98 386.04 C 289.43 386.10, 289.04 386.60, 288.34 388.17 C 287.65 389.75, 287.38 391.13, 286.49 393.90 C 285.59 396.67, 285.19 398.82, 283.88 402.01 C 282.57 405.20, 281.65 407.13, 279.94 409.86 C 278.23 412.59, 277.04 413.77, 275.33 415.66 C 273.63 417.55, 272.81 418.52, 271.43 419.31 C 270.05 420.10, 269.45 420.09, 268.43 419.62 C 267.42 419.16, 267.01 418.46, 266.34 416.96 C 265.67 415.46, 265.36 414.20, 265.09 412.15 C 264.83 410.09, 264.73 408.69, 265.02 406.68 C 265.32 404.67, 265.77 403.68, 266.58 402.10 C 267.39 400.51, 268.00 399.75, 269.06 398.76 C 270.12 397.78, 270.78 397.64, 271.89 397.17 C 273.00 396.71, 273.65 396.88, 274.59 396.44 C 275.54 396.01, 276.11 395.64, 276.62 395.01 C 277.13 394.38, 277.18 393.94, 277.14 393.31 C 277.10 392.67, 276.79 392.31, 276.43 391.83" style="stroke: #282e43; fill: #282e43;"/><path d="M 438.95,349.74 C 438.60 350.56, 438.87 351.48, 439.21 352.21 C 439.55 352.95, 440.01 353.09, 440.67 353.42 C 441.32 353.76, 441.78 354.02, 442.47 353.89 C 443.16 353.76, 443.77 353.39, 444.13 352.77 C 444.49 352.15, 444.43 351.56, 444.27 350.79 C 444.12 350.02, 444.03 349.45, 443.36 348.91 C 442.69 348.38, 441.82 347.95, 440.93 348.11 C 440.05 348.28, 439.29 348.92, 438.95 349.74" style="stroke: #282e43; fill: #282e43;"/><path d="M 452.38,401.17 C 451.60 401.81, 451.25 402.96, 450.75 404.61 C 450.25 406.25, 449.92 407.35, 449.87 409.38 C 449.82 411.42, 449.78 412.95, 450.48 414.79 C 451.18 416.64, 451.96 417.77, 453.37 418.60 C 454.78 419.44, 455.76 419.55, 457.53 418.96 C 459.29 418.38, 460.40 417.63, 462.19 415.68 C 463.97 413.73, 464.67 411.87, 466.45 409.21 C 468.24 406.56, 469.42 404.80, 471.10 402.42 C 472.78 400.05, 473.78 398.69, 474.85 397.34 C 475.93 395.99, 476.14 395.46, 476.50 395.66 C 476.86 395.85, 476.56 396.51, 476.65 398.32 C 476.74 400.13, 476.76 401.77, 476.93 404.71 C 477.09 407.64, 477.28 409.68, 477.47 412.98 C 477.66 416.29, 477.36 418.31, 477.90 421.22 C 478.45 424.13, 478.98 425.61, 480.18 427.53 C 481.39 429.46, 482.29 430.32, 483.92 430.83 C 485.54 431.34, 487.46 430.64, 488.30 430.07 C 489.14 429.50, 488.76 428.41, 488.10 427.98 C 487.44 427.55, 485.86 428.34, 484.99 427.92 C 484.12 427.51, 484.11 427.37, 483.74 425.89 C 483.37 424.41, 483.35 423.15, 483.16 420.52 C 482.96 417.89, 482.88 416.01, 482.78 412.75 C 482.67 409.48, 483.03 407.32, 482.65 404.19 C 482.27 401.06, 481.93 399.25, 480.87 397.10 C 479.82 394.95, 479.08 394.07, 477.37 393.45 C 475.65 392.83, 474.44 392.92, 472.31 394.01 C 470.19 395.11, 468.88 396.54, 466.75 398.92 C 464.61 401.30, 463.47 403.27, 461.63 405.91 C 459.79 408.56, 458.75 410.14, 457.53 412.16 C 456.32 414.17, 455.99 415.11, 455.55 415.99 C 455.12 416.86, 455.28 416.98, 455.36 416.53 C 455.45 416.08, 455.88 415.19, 455.95 413.75 C 456.03 412.32, 455.82 411.11, 455.75 409.36 C 455.68 407.62, 455.84 406.62, 455.62 405.03 C 455.40 403.43, 455.30 402.15, 454.65 401.38 C 454.00 400.61, 453.16 400.53, 452.38 401.17" style="stroke: #282e43; fill: #282e43;"/><path d="M 566.97,331.30 C 566.98 330.54, 566.79 329.85, 565.85 329.15 C 564.91 328.44, 564.04 327.87, 562.27 327.76 C 560.50 327.66, 559.20 327.59, 557.00 328.62 C 554.80 329.65, 553.48 330.45, 551.28 332.91 C 549.07 335.36, 547.98 337.05, 545.96 340.91 C 543.93 344.77, 542.86 347.11, 541.14 352.22 C 539.42 357.33, 538.50 360.28, 537.36 366.45 C 536.22 372.62, 535.83 376.32, 535.44 383.06 C 535.05 389.79, 535.03 393.32, 535.40 400.13 C 535.78 406.93, 536.16 410.62, 537.30 417.09 C 538.44 423.55, 539.38 426.93, 541.10 432.46 C 542.83 437.98, 543.76 440.69, 545.94 444.71 C 548.12 448.74, 549.57 450.45, 551.99 452.58 C 554.41 454.71, 556.03 454.91, 558.05 455.37 C 560.06 455.83, 561.25 455.25, 562.07 454.87 C 562.89 454.48, 562.76 453.91, 562.14 453.45 C 561.52 452.99, 560.52 453.30, 558.98 452.58 C 557.43 451.85, 556.53 451.68, 554.42 449.82 C 552.31 447.96, 550.63 446.91, 548.43 443.28 C 546.23 439.66, 545.21 437.02, 543.42 431.70 C 541.63 426.39, 540.65 423.03, 539.48 416.69 C 538.31 410.36, 537.92 406.71, 537.57 400.01 C 537.22 393.31, 537.26 389.82, 537.71 383.20 C 538.17 376.59, 538.59 372.93, 539.84 366.94 C 541.09 360.95, 542.07 358.06, 543.95 353.24 C 545.83 348.42, 547.05 346.19, 549.24 342.83 C 551.44 339.47, 552.93 338.35, 554.94 336.45 C 556.94 334.56, 557.82 334.06, 559.26 333.35 C 560.70 332.64, 561.18 332.94, 562.15 332.90 C 563.12 332.86, 563.40 333.13, 564.13 333.14 C 564.86 333.15, 565.24 333.32, 565.80 332.96 C 566.37 332.59, 566.96 332.06, 566.97 331.30" style="stroke: #282e43; fill: #282e43;"/><path d="M 592.61,398.23 C 591.96 398.72, 591.71 399.41, 591.47 400.67 C 591.22 401.93, 591.11 402.77, 591.39 404.53 C 591.67 406.29, 592.05 407.52, 592.88 409.47 C 593.71 411.43, 594.36 412.47, 595.54 414.31 C 596.71 416.15, 597.32 417.05, 598.76 418.67 C 600.19 420.30, 601.04 421.23, 602.73 422.43 C 604.43 423.64, 605.61 424.11, 607.25 424.69 C 608.89 425.27, 609.87 425.17, 610.92 425.32 C 611.97 425.48, 612.35 424.95, 612.49 425.48 C 612.64 426.01, 612.24 426.34, 611.64 427.97 C 611.05 429.59, 610.57 430.74, 609.52 433.58 C 608.47 436.43, 608.01 438.35, 606.39 442.18 C 604.78 446.01, 603.51 448.48, 601.45 452.74 C 599.39 456.99, 598.09 459.47, 596.08 463.45 C 594.08 467.44, 593.05 469.50, 591.41 472.66 C 589.78 475.83, 588.74 477.26, 587.92 479.26 C 587.09 481.26, 587.23 482.04, 587.29 482.64 C 587.35 483.24, 587.85 483.07, 588.23 482.24 C 588.61 481.41, 588.97 480.73, 589.20 478.49 C 589.44 476.24, 589.24 474.60, 589.41 471.01 C 589.58 467.42, 589.46 465.06, 590.06 460.53 C 590.66 456.01, 591.10 453.23, 592.42 448.37 C 593.74 443.52, 594.71 440.92, 596.66 436.26 C 598.62 431.61, 599.77 429.20, 602.20 425.09 C 604.63 420.99, 606.00 419.11, 608.82 415.75 C 611.63 412.39, 613.25 411.01, 616.27 408.29 C 619.30 405.58, 621.03 404.19, 623.96 402.18 C 626.90 400.18, 628.50 399.53, 630.96 398.27 C 633.42 397.02, 634.56 396.66, 636.25 395.90 C 637.94 395.15, 638.73 395.03, 639.40 394.49 C 640.06 393.95, 640.03 393.55, 639.58 393.21 C 639.13 392.87, 638.54 392.51, 637.15 392.77 C 635.76 393.02, 634.61 393.31, 632.65 394.48 C 630.69 395.66, 629.50 396.61, 627.36 398.64 C 625.23 400.67, 623.95 402.00, 621.98 404.64 C 620.01 407.27, 618.69 408.81, 617.52 411.80 C 616.36 414.79, 616.06 416.61, 616.14 419.58 C 616.22 422.55, 616.61 424.18, 617.91 426.67 C 619.22 429.16, 620.26 430.39, 622.65 432.03 C 625.03 433.67, 626.72 434.51, 629.83 434.87 C 632.94 435.22, 634.78 434.86, 638.19 433.82 C 641.60 432.78, 643.36 431.69, 646.89 429.65 C 650.42 427.61, 652.42 426.19, 655.83 423.60 C 659.25 421.01, 660.94 419.23, 663.97 416.69 C 667.00 414.15, 668.98 412.86, 670.99 410.88 C 672.99 408.91, 673.37 407.77, 674.00 406.82 C 674.63 405.87, 674.54 405.66, 674.13 406.14 C 673.73 406.62, 672.80 407.21, 671.97 409.22 C 671.13 411.22, 670.46 413.15, 669.95 416.17 C 669.44 419.20, 669.38 421.12, 669.40 424.36 C 669.42 427.60, 669.47 429.41, 670.04 432.37 C 670.61 435.33, 671.07 436.81, 672.24 439.14 C 673.42 441.48, 674.18 442.62, 675.93 444.03 C 677.68 445.44, 678.91 445.85, 680.99 446.20 C 683.07 446.55, 684.26 446.47, 686.34 445.78 C 688.42 445.09, 689.61 444.45, 691.40 442.75 C 693.18 441.05, 694.05 439.73, 695.27 437.27 C 696.48 434.81, 696.92 433.20, 697.48 430.45 C 698.04 427.70, 698.02 426.12, 698.07 423.51 C 698.13 420.89, 698.01 419.49, 697.77 417.37 C 697.52 415.24, 697.28 414.26, 696.86 412.86 C 696.45 411.46, 696.07 410.91, 695.70 410.37 C 695.34 409.83, 695.03 409.99, 695.04 410.17 C 695.05 410.35, 695.07 410.89, 695.75 411.27 C 696.42 411.64, 697.07 412.04, 698.43 412.05 C 699.79 412.07, 700.80 411.87, 702.54 411.33 C 704.27 410.80, 705.22 410.39, 707.08 409.40 C 708.95 408.40, 710.10 407.86, 711.86 406.36 C 713.62 404.86, 714.50 403.78, 715.88 401.91 C 717.25 400.05, 717.83 399.10, 718.76 397.05 C 719.69 394.99, 720.10 393.82, 720.53 391.64 C 720.97 389.46, 721.10 388.13, 720.95 386.17 C 720.80 384.21, 720.27 383.19, 719.78 381.83 C 719.28 380.47, 718.95 380.04, 718.48 379.38 C 718.00 378.72, 717.89 378.56, 717.40 378.54 C 716.92 378.52, 716.38 378.76, 716.06 379.28 C 715.74 379.79, 715.58 380.19, 715.80 381.11 C 716.03 382.02, 716.29 382.61, 717.21 383.85 C 718.12 385.09, 718.98 385.85, 720.38 387.32 C 721.78 388.78, 722.63 389.49, 724.19 391.18 C 725.74 392.88, 726.71 393.89, 728.16 395.79 C 729.61 397.70, 730.40 398.70, 731.43 400.72 C 732.46 402.75, 732.96 403.65, 733.31 405.92 C 733.66 408.19, 733.81 409.30, 733.19 412.08 C 732.56 414.86, 732.07 416.44, 730.20 419.81 C 728.33 423.17, 726.81 425.21, 723.84 428.91 C 720.88 432.62, 718.87 434.73, 715.36 438.34 C 711.85 441.95, 709.79 443.96, 706.30 446.95 C 702.80 449.93, 700.71 451.26, 697.91 453.25 C 695.11 455.24, 693.80 456.00, 692.28 456.90 C 690.76 457.79, 690.53 458.00, 690.32 457.71 C 690.10 457.43, 690.35 456.89, 691.19 455.46 C 692.04 454.04, 693.14 452.86, 694.53 450.61 C 695.92 448.35, 697.00 446.71, 698.16 444.18 C 699.31 441.66, 700.25 439.49, 700.29 437.99 C 700.34 436.48, 699.77 436.06, 698.37 436.66 C 696.96 437.27, 695.16 438.83, 693.27 441.01 C 691.37 443.20, 690.12 444.89, 688.87 447.59 C 687.62 450.30, 687.00 452.21, 687.01 454.54 C 687.02 456.87, 687.62 458.14, 688.92 459.24 C 690.22 460.34, 691.28 460.63, 693.52 460.04 C 695.75 459.46, 697.12 458.45, 700.09 456.31 C 703.07 454.17, 704.91 452.51, 708.41 449.35 C 711.91 446.19, 713.98 444.17, 717.58 440.51 C 721.18 436.84, 723.23 434.78, 726.41 431.02 C 729.58 427.26, 731.25 425.29, 733.45 421.72 C 735.66 418.14, 736.54 416.42, 737.44 413.15 C 738.34 409.87, 738.24 408.24, 737.94 405.34 C 737.65 402.44, 737.02 401.18, 735.96 398.64 C 734.90 396.10, 734.12 394.87, 732.63 392.63 C 731.13 390.38, 730.05 389.28, 728.49 387.42 C 726.93 385.56, 726.11 384.85, 724.83 383.33 C 723.56 381.82, 723.13 380.93, 722.12 379.82 C 721.11 378.71, 720.72 378.28, 719.79 377.80 C 718.85 377.31, 718.33 377.29, 717.46 377.40 C 716.59 377.50, 715.99 377.71, 715.44 378.32 C 714.89 378.94, 714.71 379.50, 714.70 380.46 C 714.69 381.42, 715.13 381.92, 715.38 383.12 C 715.63 384.32, 715.93 384.93, 715.96 386.44 C 716.00 387.94, 715.90 388.94, 715.56 390.64 C 715.22 392.35, 715.02 393.36, 714.26 394.98 C 713.50 396.59, 712.94 397.29, 711.76 398.72 C 710.58 400.15, 709.80 401.00, 708.37 402.14 C 706.94 403.29, 706.07 403.76, 704.60 404.45 C 703.12 405.14, 702.36 405.27, 700.98 405.58 C 699.60 405.89, 698.83 405.69, 697.69 406.01 C 696.55 406.33, 696.07 406.62, 695.26 407.17 C 694.46 407.72, 694.20 408.06, 693.67 408.77 C 693.14 409.47, 692.84 409.72, 692.63 410.68 C 692.42 411.64, 692.56 412.16, 692.61 413.57 C 692.66 414.97, 692.85 415.75, 692.88 417.69 C 692.91 419.64, 692.93 420.95, 692.77 423.28 C 692.62 425.61, 692.61 427.01, 692.12 429.34 C 691.63 431.67, 691.19 432.95, 690.32 434.94 C 689.44 436.92, 688.86 437.92, 687.74 439.25 C 686.63 440.57, 685.97 440.99, 684.74 441.56 C 683.51 442.12, 682.81 442.22, 681.58 442.09 C 680.35 441.96, 679.63 441.88, 678.60 440.91 C 677.57 439.95, 677.14 439.15, 676.43 437.27 C 675.73 435.40, 675.42 434.09, 675.08 431.54 C 674.73 428.99, 674.51 427.38, 674.71 424.52 C 674.91 421.65, 675.57 420.09, 676.07 417.23 C 676.57 414.37, 677.23 412.54, 677.21 410.21 C 677.20 407.88, 676.91 406.70, 676.00 405.56 C 675.09 404.42, 674.29 404.14, 672.66 404.50 C 671.02 404.87, 670.10 405.53, 667.84 407.38 C 665.59 409.23, 664.23 411.10, 661.38 413.75 C 658.52 416.40, 656.86 418.14, 653.57 420.63 C 650.29 423.12, 648.28 424.42, 644.97 426.21 C 641.65 428.01, 639.90 428.83, 636.98 429.60 C 634.07 430.37, 632.75 430.35, 630.39 430.07 C 628.03 429.79, 626.91 429.29, 625.20 428.20 C 623.49 427.11, 622.72 426.36, 621.84 424.64 C 620.96 422.91, 620.74 421.75, 620.80 419.57 C 620.86 417.39, 621.10 416.07, 622.16 413.74 C 623.21 411.42, 624.24 410.05, 626.09 407.94 C 627.94 405.84, 629.39 404.86, 631.41 403.21 C 633.43 401.56, 634.56 400.98, 636.21 399.69 C 637.86 398.41, 638.74 397.95, 639.65 396.78 C 640.55 395.61, 640.82 394.83, 640.73 393.84 C 640.63 392.85, 640.35 392.20, 639.18 391.81 C 638.02 391.42, 636.97 391.39, 634.91 391.89 C 632.84 392.39, 631.48 392.86, 628.85 394.32 C 626.22 395.78, 624.72 396.86, 621.76 399.18 C 618.80 401.49, 617.10 402.96, 614.05 405.90 C 610.99 408.83, 609.36 410.30, 606.49 413.84 C 603.63 417.39, 602.22 419.37, 599.72 423.63 C 597.22 427.89, 596.06 430.36, 594.00 435.13 C 591.95 439.91, 590.96 442.56, 589.45 447.52 C 587.95 452.47, 587.45 455.31, 586.48 459.92 C 585.50 464.52, 585.14 466.83, 584.60 470.54 C 584.05 474.26, 583.54 476.00, 583.77 478.48 C 583.99 480.96, 584.82 481.86, 585.74 482.95 C 586.67 484.03, 587.26 484.26, 588.40 483.90 C 589.54 483.55, 590.15 483.08, 591.45 481.18 C 592.74 479.28, 593.34 477.63, 594.89 474.39 C 596.43 471.14, 597.23 468.99, 599.17 464.97 C 601.11 460.96, 602.41 458.53, 604.59 454.31 C 606.77 450.10, 608.12 447.66, 610.07 443.90 C 612.02 440.14, 613.07 438.48, 614.34 435.49 C 615.60 432.51, 616.15 431.25, 616.38 428.97 C 616.61 426.69, 616.28 425.57, 615.50 424.09 C 614.71 422.61, 613.73 422.35, 612.45 421.56 C 611.17 420.77, 610.45 420.78, 609.09 420.14 C 607.72 419.51, 606.94 419.33, 605.64 418.38 C 604.35 417.44, 603.69 416.78, 602.61 415.42 C 601.54 414.06, 601.09 413.24, 600.26 411.59 C 599.42 409.94, 599.11 408.87, 598.44 407.18 C 597.77 405.49, 597.41 404.51, 596.90 403.14 C 596.40 401.76, 596.33 401.28, 595.90 400.30 C 595.47 399.32, 595.41 398.65, 594.75 398.23 C 594.10 397.82, 593.27 397.75, 592.61 398.23" style="stroke: #282e43; fill: #282e43;"/><path d="M 803.24,383.07 C 802.64 382.70, 802.16 382.46, 800.96 382.82 C 799.75 383.17, 798.73 383.45, 797.21 384.85 C 795.69 386.25, 794.64 387.30, 793.34 389.81 C 792.04 392.31, 791.50 394.09, 790.71 397.36 C 789.93 400.64, 789.45 402.74, 789.40 406.20 C 789.35 409.65, 789.43 411.68, 790.45 414.64 C 791.46 417.59, 792.35 419.04, 794.47 420.98 C 796.59 422.91, 798.15 424.01, 801.05 424.31 C 803.95 424.61, 805.89 424.12, 808.96 422.48 C 812.03 420.85, 813.43 419.39, 816.42 416.13 C 819.42 412.86, 821.01 410.66, 823.94 406.15 C 826.88 401.64, 828.55 398.74, 831.10 393.57 C 833.65 388.41, 834.76 385.49, 836.67 380.32 C 838.59 375.15, 839.47 372.41, 840.68 367.73 C 841.89 363.05, 842.60 360.51, 842.72 356.91 C 842.83 353.31, 842.39 351.50, 841.27 349.72 C 840.14 347.94, 838.85 347.52, 837.10 348.02 C 835.34 348.52, 833.95 349.49, 832.50 352.23 C 831.05 354.97, 830.78 357.29, 829.86 361.72 C 828.94 366.15, 828.53 369.05, 827.92 374.40 C 827.31 379.76, 827.01 383.10, 826.81 388.49 C 826.62 393.88, 826.69 396.69, 826.94 401.35 C 827.19 406.01, 827.36 408.33, 828.06 411.78 C 828.76 415.24, 829.10 416.72, 830.45 418.62 C 831.80 420.53, 833.03 421.08, 834.80 421.30 C 836.57 421.51, 837.72 420.94, 839.31 419.70 C 840.89 418.45, 841.70 417.02, 842.74 415.09 C 843.78 413.16, 844.19 411.76, 844.51 410.03 C 844.83 408.30, 844.61 407.20, 844.34 406.43 C 844.06 405.66, 843.43 405.59, 843.13 406.17 C 842.83 406.75, 842.42 407.73, 842.82 409.32 C 843.22 410.91, 843.66 412.35, 845.12 414.11 C 846.57 415.86, 847.85 416.98, 850.09 418.10 C 852.33 419.23, 853.76 419.61, 856.33 419.73 C 858.90 419.85, 860.40 419.69, 862.96 418.71 C 865.51 417.72, 866.84 416.92, 869.10 414.81 C 871.36 412.69, 872.46 411.05, 874.24 408.14 C 876.02 405.23, 876.85 403.44, 877.99 400.25 C 879.13 397.06, 879.73 395.16, 879.94 392.20 C 880.15 389.24, 879.92 387.54, 879.04 385.47 C 878.15 383.40, 877.16 382.54, 875.52 381.85 C 873.88 381.17, 872.70 381.12, 870.83 382.04 C 868.97 382.96, 867.68 383.99, 866.20 386.44 C 864.72 388.88, 864.21 390.87, 863.42 394.26 C 862.64 397.65, 862.35 399.80, 862.29 403.40 C 862.24 407.00, 862.26 409.23, 863.15 412.25 C 864.03 415.28, 864.92 416.70, 866.71 418.53 C 868.50 420.35, 869.77 421.13, 872.09 421.39 C 874.42 421.65, 875.97 421.23, 878.35 419.81 C 880.73 418.38, 881.88 416.98, 883.99 414.25 C 886.09 411.53, 887.01 409.48, 888.87 406.20 C 890.73 402.92, 891.79 400.77, 893.29 397.85 C 894.80 394.94, 895.61 393.37, 896.40 391.62 C 897.19 389.87, 897.15 389.06, 897.23 389.11 C 897.31 389.17, 896.87 390.01, 896.80 391.90 C 896.72 393.78, 896.71 395.55, 896.85 398.53 C 896.99 401.51, 897.20 403.67, 897.51 406.79 C 897.82 409.91, 897.86 411.69, 898.40 414.13 C 898.93 416.57, 899.23 417.62, 900.17 418.99 C 901.11 420.37, 901.71 420.85, 903.09 420.99 C 904.47 421.13, 905.43 420.79, 907.08 419.70 C 908.73 418.60, 909.67 417.53, 911.34 415.51 C 913.00 413.49, 913.72 411.91, 915.39 409.60 C 917.06 407.28, 918.08 405.90, 919.68 403.93 C 921.28 401.97, 922.20 400.94, 923.38 399.78 C 924.57 398.61, 924.99 398.12, 925.62 398.10 C 926.25 398.09, 926.27 398.50, 926.53 399.69 C 926.79 400.89, 926.71 401.85, 926.92 404.08 C 927.14 406.31, 927.28 407.99, 927.60 410.85 C 927.92 413.70, 927.95 415.59, 928.53 418.37 C 929.11 421.16, 929.40 422.92, 930.50 424.76 C 931.60 426.60, 932.45 427.46, 934.02 427.59 C 935.59 427.73, 936.85 426.87, 938.36 425.43 C 939.87 423.99, 940.95 422.52, 941.57 420.39 C 942.19 418.27, 942.03 416.08, 941.49 414.80 C 940.95 413.52, 940.01 413.32, 938.87 413.98 C 937.72 414.65, 936.66 416.35, 935.76 418.13 C 934.86 419.92, 934.73 421.41, 934.38 422.92 C 934.03 424.44, 933.99 425.57, 934.02 425.70 C 934.04 425.84, 934.40 425.24, 934.50 423.60 C 934.59 421.97, 934.67 420.25, 934.49 417.54 C 934.30 414.84, 933.98 413.00, 933.57 410.09 C 933.15 407.17, 933.14 405.44, 932.42 402.98 C 931.70 400.52, 931.24 399.35, 929.96 397.78 C 928.67 396.21, 927.81 395.47, 926.01 395.14 C 924.21 394.80, 923.02 395.10, 920.94 396.11 C 918.87 397.11, 917.67 398.19, 915.62 400.16 C 913.56 402.13, 912.54 403.66, 910.66 405.97 C 908.79 408.28, 907.66 409.59, 906.24 411.69 C 904.81 413.79, 904.21 415.02, 903.54 416.48 C 902.87 417.95, 902.94 418.70, 902.87 419.00 C 902.80 419.30, 903.08 419.08, 903.21 417.99 C 903.33 416.90, 903.48 415.88, 903.48 413.56 C 903.48 411.23, 903.33 409.50, 903.18 406.38 C 903.04 403.26, 903.19 401.08, 902.76 397.98 C 902.34 394.88, 902.07 393.00, 901.04 390.89 C 900.01 388.77, 899.20 387.75, 897.63 387.42 C 896.05 387.09, 894.88 387.60, 893.17 389.23 C 891.45 390.86, 890.72 392.63, 889.06 395.57 C 887.40 398.51, 886.67 400.79, 884.88 403.92 C 883.08 407.06, 881.91 408.83, 880.07 411.25 C 878.23 413.67, 877.23 414.68, 875.68 416.01 C 874.14 417.34, 873.54 417.90, 872.35 417.89 C 871.17 417.89, 870.63 417.36, 869.75 415.98 C 868.86 414.61, 868.45 413.52, 867.93 411.03 C 867.41 408.54, 867.01 406.63, 867.14 403.53 C 867.27 400.44, 867.77 398.47, 868.59 395.57 C 869.40 392.68, 870.32 391.18, 871.23 389.08 C 872.13 386.98, 872.49 386.02, 873.11 385.07 C 873.73 384.13, 873.91 384.06, 874.32 384.36 C 874.73 384.65, 875.04 385.10, 875.16 386.56 C 875.28 388.03, 875.25 389.26, 874.90 391.68 C 874.55 394.09, 874.37 395.86, 873.41 398.63 C 872.45 401.40, 871.67 403.06, 870.08 405.54 C 868.49 408.01, 867.26 409.26, 865.47 411.00 C 863.68 412.75, 862.91 413.49, 861.14 414.26 C 859.38 415.04, 858.31 415.05, 856.65 414.89 C 854.99 414.73, 854.14 414.44, 852.85 413.47 C 851.56 412.49, 851.26 411.35, 850.20 410.00 C 849.14 408.65, 848.62 407.77, 847.56 406.71 C 846.49 405.64, 846.01 405.06, 844.87 404.67 C 843.73 404.28, 843.09 404.13, 841.86 404.76 C 840.64 405.39, 839.70 406.23, 838.75 407.83 C 837.79 409.42, 837.62 410.89, 837.09 412.75 C 836.56 414.61, 836.51 415.89, 836.11 417.10 C 835.71 418.31, 835.62 418.85, 835.08 418.80 C 834.54 418.76, 834.08 418.45, 833.40 416.89 C 832.71 415.34, 832.34 414.18, 831.67 411.03 C 831.00 407.88, 830.42 405.62, 830.04 401.14 C 829.66 396.65, 829.55 393.87, 829.77 388.61 C 829.99 383.35, 830.34 380.02, 831.13 374.83 C 831.92 369.64, 832.58 366.79, 833.73 362.65 C 834.88 358.52, 835.99 356.71, 836.88 354.17 C 837.76 351.62, 837.80 350.61, 838.16 349.93 C 838.52 349.25, 838.53 349.42, 838.70 350.78 C 838.87 352.14, 839.20 353.49, 839.02 356.75 C 838.84 360.00, 838.77 362.52, 837.79 367.04 C 836.81 371.57, 835.96 374.33, 834.12 379.39 C 832.29 384.45, 831.16 387.32, 828.61 392.33 C 826.07 397.34, 824.34 400.17, 821.39 404.43 C 818.43 408.69, 816.72 410.78, 813.83 413.63 C 810.94 416.48, 809.43 417.38, 806.95 418.68 C 804.47 419.99, 803.34 420.30, 801.43 420.16 C 799.53 420.02, 798.68 419.36, 797.41 417.97 C 796.13 416.58, 795.66 415.54, 795.05 413.22 C 794.44 410.90, 794.18 409.26, 794.35 406.37 C 794.52 403.49, 795.03 401.53, 795.90 398.79 C 796.76 396.04, 797.56 394.66, 798.67 392.65 C 799.78 390.64, 800.52 390.00, 801.44 388.72 C 802.37 387.45, 802.79 387.08, 803.30 386.27 C 803.80 385.47, 803.98 385.34, 803.97 384.70 C 803.96 384.06, 803.85 383.45, 803.24 383.07" style="stroke: #282e43; fill: #282e43;"/></svg>