<svg xmlns="http://www.w3.org/2000/svg" id="canvas" viewBox="106.933 453.306 507.164 83.173">
  <path
    d="M 110.71,497.69 C 111.07 497.43, 111.31 496.96, 111.79 496.09 C 112.27 495.22, 112.49 494.65, 113.08 493.35 C 113.67 492.05, 114.01 491.17, 114.74 489.60 C 115.47 488.02, 115.88 487.07, 116.73 485.47 C 117.58 483.87, 118.10 482.99, 118.99 481.59 C 119.87 480.19, 120.43 479.37, 121.14 478.48 C 121.86 477.58, 122.11 477.12, 122.56 477.11 C 123.02 477.11, 123.13 477.30, 123.42 478.45 C 123.71 479.60, 123.77 480.51, 124.02 482.85 C 124.27 485.20, 124.45 486.82, 124.67 490.16 C 124.89 493.49, 124.97 495.63, 125.12 499.55 C 125.26 503.46, 125.27 505.78, 125.41 509.73 C 125.54 513.68, 125.57 515.85, 125.78 519.31 C 125.99 522.77, 126.04 524.50, 126.44 527.02 C 126.85 529.53, 127.15 530.60, 127.81 531.89 C 128.47 533.19, 128.93 533.54, 129.75 533.47 C 130.57 533.41, 131.10 533.03, 131.92 531.57 C 132.74 530.11, 133.20 528.96, 133.86 526.17 C 134.52 523.38, 134.64 521.47, 135.21 517.62 C 135.77 513.76, 136.08 511.35, 136.68 506.88 C 137.28 502.42, 137.61 499.82, 138.22 495.28 C 138.83 490.74, 139.14 488.29, 139.75 484.18 C 140.35 480.07, 140.71 478.03, 141.25 474.71 C 141.78 471.39, 142.06 469.89, 142.40 467.56 C 142.74 465.23, 142.96 463.98, 142.95 463.05 C 142.95 462.13, 142.74 462.08, 142.36 462.93 C 141.98 463.78, 141.57 465.00, 141.05 467.31 C 140.53 469.62, 140.29 471.14, 139.77 474.48 C 139.24 477.81, 139.01 479.87, 138.45 484.00 C 137.89 488.12, 137.58 490.57, 136.95 495.11 C 136.33 499.64, 135.99 502.24, 135.31 506.69 C 134.63 511.13, 134.26 513.54, 133.53 517.33 C 132.80 521.13, 132.28 522.94, 131.66 525.67 C 131.04 528.39, 130.85 529.51, 130.45 530.95 C 130.05 532.40, 129.97 532.78, 129.66 532.88 C 129.36 532.99, 129.24 532.69, 128.93 531.46 C 128.63 530.24, 128.47 529.22, 128.16 526.77 C 127.85 524.32, 127.62 522.62, 127.37 519.21 C 127.12 515.79, 127.03 513.62, 126.90 509.68 C 126.78 505.74, 126.78 503.43, 126.73 499.51 C 126.67 495.58, 126.74 493.45, 126.63 490.06 C 126.52 486.68, 126.56 485.01, 126.20 482.58 C 125.83 480.14, 125.53 479.15, 124.82 477.87 C 124.11 476.59, 123.61 476.28, 122.64 476.16 C 121.67 476.04, 121.04 476.43, 119.97 477.28 C 118.90 478.14, 118.31 479.02, 117.29 480.45 C 116.26 481.88, 115.78 482.80, 114.85 484.44 C 113.93 486.08, 113.43 487.02, 112.67 488.63 C 111.91 490.25, 111.55 491.16, 111.06 492.53 C 110.56 493.90, 110.41 494.52, 110.19 495.49 C 109.98 496.47, 109.87 496.98, 109.97 497.42 C 110.07 497.86, 110.34 497.96, 110.71 497.69"
    style="stroke: #282e43; fill: #282e43;" />
  <path
    d="M 145.66,491.70 C 145.46 492.20, 145.43 492.75, 145.41 494.12 C 145.38 495.49, 145.40 496.39, 145.55 498.53 C 145.69 500.68, 145.82 502.13, 146.13 504.85 C 146.45 507.57, 146.68 509.25, 147.12 512.14 C 147.56 515.02, 147.73 516.71, 148.32 519.29 C 148.91 521.87, 149.22 523.24, 150.06 525.03 C 150.89 526.81, 151.41 527.55, 152.50 528.20 C 153.59 528.84, 154.26 528.87, 155.51 528.26 C 156.75 527.64, 157.47 526.93, 158.73 525.13 C 159.99 523.32, 160.65 521.92, 161.82 519.24 C 162.99 516.56, 163.50 514.71, 164.57 511.72 C 165.65 508.73, 166.29 506.96, 167.20 504.28 C 168.11 501.61, 168.56 500.22, 169.12 498.35 C 169.69 496.48, 169.87 495.72, 170.04 494.94 C 170.22 494.16, 170.11 494.09, 170.01 494.44 C 169.90 494.80, 169.66 495.37, 169.54 496.74 C 169.41 498.10, 169.31 499.19, 169.39 501.27 C 169.47 503.35, 169.60 504.76, 169.94 507.14 C 170.28 509.52, 170.47 510.96, 171.10 513.18 C 171.72 515.40, 172.09 516.57, 173.06 518.23 C 174.03 519.88, 174.62 520.63, 175.94 521.46 C 177.26 522.28, 178.06 522.54, 179.64 522.36 C 181.22 522.18, 182.14 521.78, 183.84 520.56 C 185.54 519.33, 186.48 518.39, 188.15 516.24 C 189.82 514.09, 190.65 512.60, 192.19 509.81 C 193.73 507.01, 194.51 505.26, 195.84 502.28 C 197.18 499.29, 197.89 497.61, 198.86 494.88 C 199.83 492.16, 200.24 490.76, 200.69 488.66 C 201.14 486.55, 201.24 485.62, 201.10 484.35 C 200.97 483.09, 200.71 482.65, 200.02 482.32 C 199.33 481.99, 198.74 482.01, 197.66 482.70 C 196.58 483.38, 195.85 484.01, 194.63 485.73 C 193.41 487.45, 192.69 488.70, 191.58 491.31 C 190.47 493.92, 189.93 495.65, 189.09 498.77 C 188.25 501.89, 187.78 503.78, 187.36 506.91 C 186.93 510.05, 186.76 511.81, 186.95 514.46 C 187.14 517.11, 187.46 518.41, 188.30 520.16 C 189.14 521.90, 189.78 522.57, 191.14 523.21 C 192.50 523.84, 193.42 523.85, 195.10 523.33 C 196.79 522.82, 197.82 522.14, 199.57 520.62 C 201.33 519.10, 202.28 517.88, 203.87 515.73 C 205.47 513.59, 206.30 512.13, 207.53 509.90 C 208.76 507.67, 209.39 506.28, 210.02 504.58 C 210.66 502.88, 210.74 502.02, 210.69 501.41 C 210.65 500.79, 210.26 500.84, 209.79 501.51 C 209.33 502.17, 208.80 503.04, 208.37 504.75 C 207.94 506.46, 207.65 507.89, 207.66 510.06 C 207.66 512.23, 207.83 513.65, 208.39 515.59 C 208.95 517.54, 209.36 518.54, 210.44 519.80 C 211.51 521.05, 212.25 521.51, 213.76 521.85 C 215.27 522.19, 216.23 522.08, 217.99 521.51 C 219.75 520.93, 220.79 520.31, 222.56 518.97 C 224.32 517.63, 225.36 516.48, 226.81 514.82 C 228.25 513.16, 228.90 512.09, 229.79 510.66 C 230.68 509.22, 231.07 508.31, 231.26 507.63 C 231.44 506.95, 231.26 506.85, 230.71 507.25 C 230.15 507.66, 229.58 508.45, 228.46 509.66 C 227.35 510.87, 226.61 511.79, 225.15 513.31 C 223.70 514.83, 222.75 515.95, 221.19 517.25 C 219.63 518.54, 218.77 519.17, 217.34 519.80 C 215.91 520.43, 215.19 520.60, 214.06 520.40 C 212.93 520.21, 212.41 519.87, 211.68 518.82 C 210.96 517.77, 210.69 516.88, 210.42 515.14 C 210.15 513.39, 210.28 512.10, 210.33 510.09 C 210.38 508.08, 210.59 506.77, 210.68 505.10 C 210.77 503.43, 210.89 502.53, 210.76 501.73 C 210.64 500.94, 210.56 500.73, 210.07 501.14 C 209.58 501.55, 209.20 502.24, 208.31 503.77 C 207.42 505.31, 206.87 506.68, 205.61 508.80 C 204.36 510.93, 203.53 512.33, 202.04 514.39 C 200.55 516.44, 199.64 517.59, 198.15 519.08 C 196.65 520.57, 195.84 521.25, 194.54 521.85 C 193.25 522.45, 192.63 522.55, 191.66 522.10 C 190.69 521.64, 190.25 521.11, 189.68 519.57 C 189.11 518.02, 188.91 516.84, 188.82 514.36 C 188.73 511.88, 188.80 510.19, 189.23 507.18 C 189.67 504.17, 190.10 502.30, 191.00 499.32 C 191.90 496.33, 192.64 494.72, 193.74 492.24 C 194.84 489.77, 195.52 488.62, 196.50 486.93 C 197.48 485.25, 197.99 484.63, 198.63 483.83 C 199.28 483.03, 199.49 482.82, 199.74 482.93 C 199.98 483.03, 200.00 483.28, 199.85 484.35 C 199.71 485.41, 199.56 486.26, 199.00 488.24 C 198.43 490.21, 198.00 491.57, 197.03 494.23 C 196.06 496.88, 195.47 498.60, 194.16 501.52 C 192.84 504.44, 192.02 506.16, 190.47 508.84 C 188.93 511.52, 187.99 512.88, 186.43 514.92 C 184.87 516.97, 184.08 517.87, 182.68 519.06 C 181.28 520.26, 180.61 520.66, 179.42 520.90 C 178.23 521.13, 177.70 520.96, 176.74 520.26 C 175.78 519.56, 175.34 518.92, 174.61 517.40 C 173.89 515.88, 173.58 514.78, 173.11 512.67 C 172.64 510.56, 172.51 509.16, 172.27 506.85 C 172.03 504.54, 172.06 503.17, 171.90 501.12 C 171.73 499.08, 171.72 498.02, 171.45 496.63 C 171.18 495.25, 170.99 494.64, 170.54 494.21 C 170.09 493.78, 169.81 493.79, 169.20 494.49 C 168.58 495.20, 168.26 495.92, 167.47 497.74 C 166.68 499.56, 166.21 500.94, 165.25 503.60 C 164.29 506.25, 163.78 508.07, 162.67 511.02 C 161.56 513.96, 160.84 515.71, 159.70 518.32 C 158.57 520.92, 157.97 522.27, 157.00 524.05 C 156.03 525.82, 155.62 526.54, 154.84 527.19 C 154.06 527.84, 153.76 527.87, 153.11 527.31 C 152.47 526.75, 152.18 526.08, 151.62 524.40 C 151.06 522.71, 150.79 521.38, 150.31 518.87 C 149.84 516.36, 149.60 514.69, 149.23 511.84 C 148.86 508.98, 148.75 507.29, 148.46 504.59 C 148.17 501.88, 148.04 500.44, 147.76 498.31 C 147.48 496.19, 147.33 495.30, 147.06 493.97 C 146.79 492.63, 146.68 492.09, 146.40 491.64 C 146.12 491.18, 145.86 491.20, 145.66 491.70"
    style="stroke: #282e43; fill: #282e43;" />
  <path
    d="M 274.97,471.93 C 274.74 472.46, 274.67 473.00, 274.54 474.59 C 274.40 476.18, 274.29 477.23, 274.29 479.88 C 274.29 482.53, 274.47 484.31, 274.55 487.83 C 274.63 491.36, 274.65 493.53, 274.69 497.49 C 274.74 501.45, 274.74 503.77, 274.76 507.64 C 274.79 511.51, 274.75 513.64, 274.83 516.83 C 274.92 520.02, 274.94 521.61, 275.18 523.59 C 275.42 525.56, 275.70 526.32, 276.01 526.72 C 276.33 527.12, 276.60 526.85, 276.74 525.58 C 276.89 524.31, 276.97 523.07, 276.73 520.35 C 276.50 517.64, 276.05 515.71, 275.57 512.01 C 275.08 508.31, 274.74 505.99, 274.32 501.85 C 273.90 497.71, 273.69 495.38, 273.47 491.29 C 273.26 487.21, 273.18 485.08, 273.25 481.42 C 273.31 477.76, 273.42 475.98, 273.79 473.00 C 274.16 470.02, 274.41 468.67, 275.09 466.52 C 275.78 464.37, 276.20 463.48, 277.21 462.24 C 278.23 461.01, 278.84 460.64, 280.17 460.32 C 281.49 460.01, 282.29 460.15, 283.85 460.67 C 285.40 461.20, 286.35 461.73, 287.94 462.95 C 289.53 464.17, 290.49 465.00, 291.79 466.76 C 293.09 468.52, 293.77 469.63, 294.46 471.75 C 295.15 473.87, 295.37 475.10, 295.23 477.37 C 295.10 479.65, 294.78 480.90, 293.78 483.12 C 292.78 485.34, 291.95 486.52, 290.25 488.46 C 288.55 490.40, 287.34 491.35, 285.28 492.81 C 283.23 494.26, 281.93 494.87, 279.97 495.72 C 278.01 496.58, 276.94 496.83, 275.49 497.09 C 274.05 497.35, 273.53 497.12, 272.74 497.03 C 271.94 496.94, 271.81 496.84, 271.52 496.66 C 271.23 496.48, 271.42 496.22, 271.30 496.13 C 271.17 496.04, 270.95 496.00, 270.89 496.21 C 270.82 496.43, 270.66 496.80, 270.97 497.22 C 271.29 497.63, 271.51 497.98, 272.46 498.28 C 273.41 498.58, 274.07 498.88, 275.72 498.72 C 277.36 498.55, 278.56 498.33, 280.70 497.48 C 282.85 496.62, 284.22 495.98, 286.43 494.44 C 288.64 492.89, 289.93 491.87, 291.75 489.76 C 293.56 487.65, 294.45 486.34, 295.52 483.89 C 296.59 481.43, 296.94 480.03, 297.09 477.48 C 297.25 474.94, 297.04 473.55, 296.31 471.17 C 295.57 468.78, 294.87 467.52, 293.43 465.56 C 292.00 463.59, 290.97 462.64, 289.15 461.33 C 287.33 460.01, 286.22 459.45, 284.35 458.97 C 282.48 458.49, 281.44 458.44, 279.79 458.91 C 278.15 459.38, 277.35 459.88, 276.10 461.30 C 274.85 462.72, 274.33 463.71, 273.55 466.01 C 272.76 468.31, 272.52 469.73, 272.18 472.81 C 271.83 475.89, 271.82 477.70, 271.81 481.41 C 271.79 485.12, 271.88 487.25, 272.08 491.37 C 272.29 495.48, 272.50 497.82, 272.83 501.99 C 273.15 506.15, 273.39 508.48, 273.71 512.21 C 274.03 515.93, 274.08 517.91, 274.45 520.61 C 274.82 523.31, 275.15 524.48, 275.54 525.70 C 275.94 526.91, 276.17 527.12, 276.40 526.68 C 276.64 526.25, 276.70 525.48, 276.73 523.50 C 276.76 521.52, 276.63 519.96, 276.54 516.78 C 276.45 513.61, 276.34 511.48, 276.28 507.62 C 276.23 503.76, 276.24 501.45, 276.26 497.49 C 276.29 493.53, 276.36 491.35, 276.41 487.83 C 276.46 484.30, 276.57 482.51, 276.52 479.86 C 276.47 477.21, 276.33 476.16, 276.16 474.57 C 275.99 472.98, 275.92 472.45, 275.68 471.92 C 275.44 471.39, 275.19 471.39, 274.97 471.93"
    style="stroke: #282e43; fill: #282e43;" />
  <path
    d="M 307.50,496.99 C 307.41 496.68, 307.25 496.43, 306.71 496.09 C 306.17 495.75, 305.76 495.46, 304.79 495.31 C 303.82 495.16, 303.12 495.03, 301.85 495.32 C 300.58 495.62, 299.82 495.86, 298.46 496.78 C 297.09 497.70, 296.29 498.35, 295.05 499.93 C 293.81 501.50, 293.13 502.60, 292.25 504.65 C 291.36 506.70, 290.96 508.04, 290.62 510.17 C 290.28 512.29, 290.24 513.54, 290.55 515.28 C 290.85 517.02, 291.23 517.91, 292.16 518.87 C 293.09 519.84, 293.82 520.16, 295.18 520.12 C 296.54 520.08, 297.41 519.73, 298.95 518.68 C 300.49 517.62, 301.37 516.70, 302.88 514.84 C 304.38 512.98, 305.20 511.63, 306.49 509.37 C 307.77 507.11, 308.45 505.64, 309.30 503.54 C 310.15 501.44, 310.47 500.19, 310.72 498.87 C 310.96 497.55, 310.80 497.00, 310.54 496.95 C 310.27 496.91, 309.84 497.37, 309.39 498.66 C 308.95 499.95, 308.54 501.20, 308.31 503.40 C 308.08 505.59, 308.03 507.23, 308.24 509.63 C 308.45 512.03, 308.66 513.46, 309.37 515.39 C 310.08 517.32, 310.57 518.29, 311.78 519.28 C 312.98 520.26, 313.79 520.55, 315.40 520.32 C 317.00 520.08, 317.99 519.65, 319.80 518.10 C 321.61 516.55, 322.61 515.31, 324.46 512.57 C 326.32 509.84, 327.28 507.99, 329.06 504.41 C 330.84 500.84, 331.79 498.63, 333.35 494.70 C 334.91 490.76, 335.68 488.47, 336.87 484.73 C 338.07 481.00, 338.66 479.04, 339.31 476.03 C 339.97 473.03, 340.16 471.64, 340.16 469.71 C 340.15 467.79, 339.91 467.06, 339.27 466.42 C 338.63 465.77, 338.03 465.74, 336.96 466.50 C 335.89 467.26, 335.07 468.03, 333.92 470.20 C 332.77 472.37, 332.17 474.01, 331.20 477.34 C 330.23 480.67, 329.74 482.87, 329.07 486.84 C 328.40 490.82, 328.07 493.22, 327.84 497.21 C 327.61 501.19, 327.58 503.37, 327.92 506.76 C 328.27 510.16, 328.59 511.81, 329.57 514.18 C 330.55 516.55, 331.29 517.48, 332.82 518.61 C 334.34 519.74, 335.32 519.95, 337.19 519.83 C 339.05 519.70, 340.16 519.23, 342.15 517.98 C 344.13 516.73, 345.23 515.66, 347.11 513.59 C 348.99 511.51, 349.95 510.01, 351.55 507.60 C 353.15 505.19, 353.99 503.59, 355.10 501.54 C 356.21 499.50, 356.60 498.37, 357.08 497.38 C 357.57 496.38, 357.52 496.22, 357.51 496.59 C 357.50 496.95, 357.24 497.66, 357.03 499.21 C 356.81 500.75, 356.53 502.14, 356.45 504.32 C 356.36 506.49, 356.41 508.01, 356.59 510.09 C 356.78 512.16, 356.89 513.27, 357.38 514.69 C 357.87 516.12, 358.20 516.73, 359.03 517.23 C 359.86 517.74, 360.44 517.76, 361.51 517.22 C 362.59 516.68, 363.24 516.02, 364.41 514.53 C 365.59 513.03, 366.22 511.82, 367.39 509.75 C 368.55 507.69, 369.20 506.27, 370.24 504.21 C 371.27 502.16, 371.86 500.90, 372.57 499.48 C 373.28 498.06, 373.50 497.42, 373.78 497.10 C 374.07 496.78, 374.01 497.01, 374.00 497.87 C 373.99 498.73, 373.81 499.67, 373.73 501.40 C 373.66 503.12, 373.55 504.48, 373.61 506.50 C 373.68 508.52, 373.72 509.80, 374.05 511.50 C 374.38 513.19, 374.59 514.04, 375.24 514.99 C 375.90 515.93, 376.36 516.23, 377.33 516.21 C 378.31 516.19, 378.95 515.86, 380.14 514.87 C 381.32 513.89, 382.01 512.97, 383.25 511.30 C 384.49 509.63, 385.17 508.38, 386.32 506.53 C 387.46 504.68, 388.12 503.48, 388.97 502.06 C 389.81 500.64, 390.14 499.91, 390.56 499.43 C 390.97 498.94, 390.97 499.01, 391.05 499.62 C 391.13 500.23, 390.97 500.98, 390.95 502.48 C 390.94 503.99, 390.81 505.23, 390.97 507.15 C 391.13 509.07, 391.26 510.32, 391.73 512.07 C 392.21 513.83, 392.50 514.77, 393.35 515.94 C 394.19 517.11, 394.74 517.59, 395.95 517.91 C 397.17 518.24, 397.94 518.16, 399.43 517.56 C 400.91 516.96, 401.78 516.33, 403.37 514.91 C 404.95 513.50, 405.83 512.41, 407.36 510.49 C 408.89 508.58, 409.72 507.29, 411.00 505.34 C 412.28 503.38, 413.02 502.18, 413.77 500.72 C 414.52 499.25, 414.71 498.51, 414.75 498.00 C 414.78 497.50, 414.44 497.54, 413.96 498.20 C 413.47 498.85, 412.91 499.64, 412.32 501.27 C 411.72 502.91, 411.28 504.25, 410.99 506.37 C 410.70 508.49, 410.65 509.89, 410.88 511.88 C 411.11 513.86, 411.37 514.92, 412.17 516.29 C 412.96 517.66, 413.57 518.24, 414.83 518.72 C 416.10 519.21, 416.97 519.21, 418.49 518.72 C 420.01 518.22, 420.98 517.66, 422.44 516.24 C 423.90 514.82, 424.72 513.73, 425.80 511.62 C 426.89 509.51, 427.40 508.09, 427.86 505.70 C 428.31 503.31, 428.39 501.86, 428.06 499.68 C 427.73 497.50, 427.29 496.33, 426.20 494.80 C 425.11 493.27, 424.21 492.64, 422.63 492.04 C 421.05 491.44, 419.94 491.47, 418.30 491.81 C 416.67 492.15, 415.69 492.71, 414.46 493.74 C 413.24 494.78, 412.63 495.65, 412.18 496.98 C 411.73 498.32, 411.72 499.22, 412.21 500.41 C 412.69 501.60, 413.25 502.26, 414.60 502.95 C 415.96 503.63, 416.97 503.83, 418.98 503.82 C 421.00 503.81, 422.29 503.56, 424.67 502.89 C 427.05 502.23, 428.46 501.62, 430.90 500.51 C 433.33 499.39, 434.77 498.54, 436.85 497.31 C 438.93 496.07, 439.91 495.35, 441.29 494.32 C 442.67 493.29, 443.33 492.70, 443.76 492.17 C 444.19 491.64, 444.08 491.49, 443.43 491.67 C 442.78 491.84, 442.03 492.29, 440.51 493.05 C 438.99 493.82, 437.95 494.40, 435.84 495.48 C 433.73 496.57, 432.33 497.42, 429.98 498.48 C 427.62 499.54, 426.27 500.11, 424.06 500.77 C 421.85 501.43, 420.67 501.64, 418.91 501.77 C 417.15 501.90, 416.34 501.80, 415.27 501.42 C 414.20 501.04, 413.86 500.63, 413.56 499.87 C 413.25 499.10, 413.34 498.53, 413.77 497.59 C 414.19 496.66, 414.68 496.00, 415.67 495.19 C 416.66 494.38, 417.42 493.86, 418.70 493.53 C 419.98 493.20, 420.85 493.10, 422.08 493.54 C 423.30 493.98, 424.01 494.45, 424.84 495.73 C 425.66 497.00, 426.00 498.01, 426.19 499.92 C 426.38 501.83, 426.27 503.14, 425.80 505.28 C 425.34 507.42, 424.83 508.73, 423.86 510.63 C 422.89 512.53, 422.15 513.49, 420.96 514.80 C 419.77 516.10, 419.02 516.62, 417.89 517.15 C 416.75 517.69, 416.17 517.78, 415.31 517.46 C 414.45 517.14, 414.06 516.71, 413.60 515.57 C 413.13 514.43, 412.98 513.51, 412.99 511.75 C 412.99 509.98, 413.29 508.73, 413.61 506.76 C 413.93 504.78, 414.32 503.53, 414.59 501.87 C 414.87 500.22, 415.06 499.34, 414.99 498.49 C 414.92 497.64, 414.82 497.38, 414.26 497.62 C 413.71 497.86, 413.22 498.41, 412.19 499.70 C 411.17 501.00, 410.49 502.21, 409.16 504.09 C 407.83 505.96, 407.02 507.22, 405.56 509.06 C 404.10 510.91, 403.25 511.94, 401.87 513.33 C 400.49 514.72, 399.79 515.34, 398.67 516.01 C 397.55 516.67, 397.07 516.83, 396.27 516.65 C 395.47 516.47, 395.18 516.12, 394.69 515.12 C 394.21 514.11, 394.07 513.27, 393.83 511.63 C 393.60 510.00, 393.66 508.81, 393.51 506.94 C 393.35 505.07, 393.38 503.84, 393.08 502.28 C 392.77 500.72, 392.58 499.90, 391.97 499.15 C 391.36 498.41, 390.95 498.22, 390.02 498.56 C 389.09 498.91, 388.48 499.54, 387.33 500.87 C 386.19 502.21, 385.50 503.42, 384.29 505.22 C 383.07 507.03, 382.36 508.24, 381.26 509.91 C 380.16 511.57, 379.60 512.50, 378.79 513.56 C 377.98 514.62, 377.68 515.04, 377.20 515.21 C 376.72 515.38, 376.61 515.20, 376.39 514.41 C 376.18 513.62, 376.16 512.86, 376.12 511.27 C 376.08 509.67, 376.21 508.44, 376.19 506.45 C 376.18 504.46, 376.25 503.09, 376.05 501.31 C 375.85 499.53, 375.70 498.52, 375.18 497.54 C 374.67 496.56, 374.30 496.23, 373.47 496.42 C 372.64 496.61, 372.09 497.16, 371.03 498.50 C 369.98 499.83, 369.36 501.10, 368.20 503.11 C 367.03 505.12, 366.35 506.52, 365.23 508.55 C 364.11 510.59, 363.51 511.77, 362.61 513.29 C 361.71 514.80, 361.35 515.48, 360.74 516.12 C 360.14 516.76, 359.94 516.83, 359.59 516.47 C 359.25 516.11, 359.15 515.62, 359.02 514.32 C 358.88 513.03, 358.90 511.98, 358.92 509.99 C 358.94 508.00, 359.09 506.53, 359.10 504.37 C 359.10 502.22, 359.16 500.82, 358.94 499.20 C 358.73 497.58, 358.57 496.79, 358.01 496.27 C 357.45 495.76, 357.08 495.80, 356.14 496.64 C 355.20 497.48, 354.60 498.53, 353.32 500.48 C 352.04 502.42, 351.29 504.05, 349.72 506.38 C 348.15 508.72, 347.20 510.14, 345.47 512.14 C 343.74 514.15, 342.76 515.16, 341.08 516.41 C 339.39 517.66, 338.53 518.16, 337.04 518.40 C 335.55 518.63, 334.82 518.53, 333.62 517.57 C 332.43 516.61, 331.88 515.78, 331.06 513.59 C 330.23 511.40, 329.84 509.86, 329.50 506.60 C 329.15 503.34, 329.11 501.19, 329.34 497.30 C 329.57 493.40, 329.90 491.00, 330.65 487.13 C 331.40 483.25, 332.05 481.12, 333.09 477.92 C 334.13 474.72, 334.91 473.26, 335.85 471.14 C 336.79 469.03, 337.21 468.22, 337.79 467.35 C 338.37 466.49, 338.56 466.36, 338.74 466.82 C 338.93 467.27, 338.93 467.86, 338.72 469.63 C 338.50 471.40, 338.31 472.74, 337.67 475.67 C 337.02 478.61, 336.61 480.60, 335.48 484.30 C 334.35 488.00, 333.59 490.29, 332.02 494.16 C 330.45 498.04, 329.48 500.23, 327.65 503.69 C 325.82 507.15, 324.70 508.88, 322.88 511.48 C 321.05 514.08, 320.06 515.18, 318.51 516.68 C 316.96 518.17, 316.29 518.65, 315.13 518.97 C 313.96 519.29, 313.48 519.10, 312.69 518.28 C 311.91 517.45, 311.61 516.60, 311.21 514.84 C 310.81 513.08, 310.77 511.73, 310.70 509.48 C 310.62 507.22, 310.79 505.68, 310.85 503.57 C 310.91 501.45, 311.06 500.23, 311.01 498.90 C 310.95 497.57, 310.91 497.02, 310.57 496.91 C 310.24 496.81, 309.99 497.22, 309.34 498.37 C 308.69 499.52, 308.30 500.69, 307.33 502.66 C 306.37 504.64, 305.75 506.07, 304.50 508.23 C 303.25 510.39, 302.44 511.66, 301.09 513.45 C 299.75 515.23, 298.99 516.09, 297.78 517.15 C 296.57 518.21, 295.98 518.58, 295.06 518.75 C 294.13 518.92, 293.72 518.74, 293.17 518.00 C 292.62 517.26, 292.41 516.55, 292.31 515.06 C 292.21 513.57, 292.28 512.44, 292.67 510.54 C 293.05 508.63, 293.43 507.38, 294.25 505.52 C 295.06 503.66, 295.66 502.65, 296.74 501.24 C 297.81 499.83, 298.51 499.25, 299.62 498.48 C 300.73 497.70, 301.33 497.58, 302.31 497.37 C 303.29 497.15, 303.77 497.37, 304.53 497.42 C 305.30 497.48, 305.62 497.61, 306.15 497.66 C 306.67 497.71, 306.90 497.79, 307.17 497.66 C 307.44 497.53, 307.59 497.31, 307.50 496.99"
    style="stroke: #282e43; fill: #282e43;" />
  <path
    d="M 476.57,470.72 C 476.38 471.18, 476.36 471.59, 476.28 472.98 C 476.20 474.37, 476.13 475.27, 476.17 477.67 C 476.22 480.07, 476.40 481.66, 476.53 484.98 C 476.66 488.30, 476.74 490.40, 476.83 494.26 C 476.91 498.13, 476.92 500.45, 476.94 504.28 C 476.95 508.12, 476.88 510.25, 476.90 513.42 C 476.91 516.59, 476.90 518.17, 477.01 520.12 C 477.12 522.08, 477.30 522.81, 477.43 523.19 C 477.56 523.57, 477.71 523.28, 477.66 522.01 C 477.60 520.74, 477.57 519.50, 477.15 516.84 C 476.73 514.18, 476.18 512.30, 475.55 508.69 C 474.91 505.08, 474.48 502.83, 473.98 498.79 C 473.48 494.75, 473.24 492.47, 473.03 488.49 C 472.83 484.51, 472.78 482.45, 472.95 478.89 C 473.13 475.34, 473.33 473.62, 473.92 470.71 C 474.50 467.80, 474.90 466.48, 475.87 464.36 C 476.84 462.24, 477.43 461.35, 478.75 460.11 C 480.07 458.87, 480.86 458.48, 482.48 458.15 C 484.09 457.83, 485.05 457.96, 486.81 458.47 C 488.57 458.99, 489.61 459.52, 491.30 460.73 C 492.99 461.94, 493.96 462.79, 495.26 464.53 C 496.56 466.27, 497.22 467.35, 497.81 469.43 C 498.40 471.51, 498.54 472.69, 498.21 474.92 C 497.88 477.15, 497.41 478.35, 496.14 480.57 C 494.88 482.80, 493.87 484.00, 491.89 486.06 C 489.92 488.12, 488.54 489.17, 486.26 490.89 C 483.97 492.62, 482.56 493.38, 480.46 494.69 C 478.36 495.99, 477.24 496.47, 475.77 497.41 C 474.30 498.36, 473.69 498.65, 473.12 499.42 C 472.54 500.20, 472.51 500.49, 472.89 501.29 C 473.27 502.08, 473.78 502.47, 475.00 503.40 C 476.22 504.33, 477.17 504.80, 479.01 505.95 C 480.86 507.09, 482.08 507.74, 484.23 509.13 C 486.39 510.52, 487.64 511.37, 489.81 512.92 C 491.97 514.46, 493.09 515.36, 495.07 516.84 C 497.05 518.32, 497.99 519.14, 499.71 520.31 C 501.42 521.49, 502.20 522.07, 503.64 522.71 C 505.07 523.35, 505.71 523.55, 506.89 523.51 C 508.06 523.47, 508.60 523.25, 509.53 522.50 C 510.45 521.76, 510.85 521.13, 511.51 519.77 C 512.17 518.41, 512.39 517.46, 512.83 515.70 C 513.28 513.94, 513.41 512.82, 513.73 510.98 C 514.05 509.14, 514.20 508.10, 514.44 506.51 C 514.68 504.91, 514.78 504.14, 514.94 503.02 C 515.10 501.91, 515.18 501.50, 515.23 500.94 C 515.27 500.38, 515.25 500.28, 515.14 500.21 C 515.04 500.15, 514.87 500.28, 514.71 500.60 C 514.56 500.91, 514.43 501.22, 514.35 501.78 C 514.28 502.33, 514.34 502.71, 514.35 503.38 C 514.35 504.04, 514.41 504.46, 514.39 505.10 C 514.37 505.74, 514.33 506.08, 514.26 506.57 C 514.19 507.05, 514.15 507.26, 514.05 507.52 C 513.95 507.78, 513.90 507.82, 513.74 507.86 C 513.58 507.91, 513.51 507.80, 513.25 507.77 C 513.00 507.73, 512.84 507.64, 512.48 507.68 C 512.12 507.73, 511.85 507.76, 511.45 508.01 C 511.05 508.26, 510.77 508.42, 510.47 508.93 C 510.17 509.43, 510.03 509.78, 509.95 510.54 C 509.87 511.29, 509.88 511.78, 510.07 512.71 C 510.26 513.64, 510.42 514.23, 510.90 515.20 C 511.38 516.17, 511.70 516.74, 512.46 517.56 C 513.23 518.38, 513.73 518.84, 514.73 519.29 C 515.74 519.74, 516.36 519.91, 517.49 519.83 C 518.62 519.75, 519.27 519.57, 520.37 518.89 C 521.47 518.20, 522.06 517.67, 522.99 516.41 C 523.92 515.16, 524.38 514.30, 525.02 512.60 C 525.66 510.90, 525.93 509.81, 526.18 507.92 C 526.43 506.03, 526.46 504.93, 526.27 503.14 C 526.09 501.36, 525.85 500.42, 525.24 499.00 C 524.64 497.58, 524.17 496.92, 523.23 496.03 C 522.29 495.14, 521.66 494.82, 520.53 494.54 C 519.40 494.25, 518.68 494.30, 517.59 494.60 C 516.49 494.90, 515.88 495.27, 515.06 496.04 C 514.24 496.81, 513.85 497.39, 513.49 498.44 C 513.12 499.50, 513.02 500.19, 513.22 501.31 C 513.42 502.42, 513.71 503.06, 514.48 504.00 C 515.24 504.94, 515.82 505.38, 517.04 506.00 C 518.25 506.62, 519.05 506.85, 520.54 507.10 C 522.04 507.34, 522.94 507.34, 524.52 507.23 C 526.10 507.12, 526.96 506.92, 528.44 506.55 C 529.92 506.18, 530.70 505.88, 531.91 505.40 C 533.12 504.92, 533.73 504.52, 534.50 504.16 C 535.28 503.79, 535.49 503.52, 535.78 503.57 C 536.06 503.62, 535.98 503.75, 535.95 504.39 C 535.92 505.03, 535.75 505.59, 535.64 506.77 C 535.53 507.94, 535.42 508.82, 535.42 510.26 C 535.42 511.70, 535.41 512.64, 535.63 513.97 C 535.86 515.30, 536.01 516.04, 536.55 516.91 C 537.09 517.79, 537.49 518.16, 538.34 518.36 C 539.20 518.55, 539.77 518.47, 540.83 517.87 C 541.89 517.27, 542.50 516.68, 543.64 515.38 C 544.77 514.08, 545.39 513.06, 546.50 511.39 C 547.61 509.71, 548.24 508.60, 549.17 507.00 C 550.11 505.40, 550.59 504.45, 551.17 503.40 C 551.74 502.35, 551.88 501.92, 552.04 501.76 C 552.21 501.59, 552.09 501.83, 552.00 502.58 C 551.92 503.33, 551.71 504.11, 551.62 505.51 C 551.53 506.91, 551.46 507.99, 551.57 509.59 C 551.68 511.19, 551.78 512.18, 552.19 513.49 C 552.60 514.80, 552.88 515.47, 553.62 516.14 C 554.37 516.82, 554.87 517.02, 555.92 516.89 C 556.97 516.75, 557.64 516.42, 558.88 515.48 C 560.11 514.55, 560.84 513.70, 562.10 512.21 C 563.37 510.71, 564.08 509.61, 565.20 508.02 C 566.32 506.43, 566.95 505.40, 567.70 504.23 C 568.45 503.07, 568.68 502.49, 568.95 502.21 C 569.22 501.93, 569.11 502.10, 569.07 502.82 C 569.02 503.55, 568.79 504.32, 568.74 505.83 C 568.68 507.34, 568.57 508.52, 568.79 510.36 C 569.01 512.20, 569.18 513.37, 569.83 515.02 C 570.48 516.66, 570.91 517.53, 572.03 518.61 C 573.15 519.68, 573.89 520.11, 575.41 520.40 C 576.93 520.69, 577.88 520.61, 579.63 520.06 C 581.37 519.51, 582.38 518.93, 584.14 517.66 C 585.90 516.39, 586.86 515.43, 588.43 513.71 C 590.01 511.99, 590.88 510.78, 592.02 509.05 C 593.16 507.32, 593.65 506.26, 594.14 505.08 C 594.63 503.90, 594.58 503.35, 594.46 503.13 C 594.34 502.91, 593.95 503.10, 593.53 503.97 C 593.11 504.85, 592.65 505.76, 592.37 507.50 C 592.08 509.23, 591.95 510.55, 592.11 512.64 C 592.27 514.73, 592.48 516.01, 593.17 517.94 C 593.85 519.87, 594.34 520.86, 595.54 522.29 C 596.74 523.72, 597.51 524.40, 599.17 525.10 C 600.83 525.80, 602.05 525.86, 603.82 525.80 C 605.60 525.74, 606.66 525.35, 608.05 524.79 C 609.45 524.23, 610.32 523.50, 610.81 523.00 C 611.30 522.50, 611.14 522.27, 610.49 522.29 C 609.83 522.32, 608.87 522.82, 607.53 523.14 C 606.18 523.45, 605.29 523.79, 603.75 523.87 C 602.21 523.94, 601.20 524.02, 599.83 523.49 C 598.46 522.95, 597.85 522.42, 596.90 521.19 C 595.96 519.96, 595.57 519.07, 595.11 517.33 C 594.64 515.59, 594.63 514.42, 594.57 512.50 C 594.50 510.59, 594.72 509.40, 594.78 507.74 C 594.85 506.09, 594.99 505.18, 594.90 504.21 C 594.80 503.25, 594.72 502.91, 594.30 502.92 C 593.87 502.93, 593.58 503.28, 592.77 504.26 C 591.97 505.24, 591.47 506.23, 590.27 507.82 C 589.08 509.41, 588.28 510.59, 586.80 512.22 C 585.32 513.85, 584.44 514.76, 582.88 515.97 C 581.32 517.19, 580.44 517.72, 579.00 518.30 C 577.56 518.87, 576.83 519.00, 575.67 518.83 C 574.51 518.67, 573.99 518.37, 573.20 517.47 C 572.42 516.58, 572.14 515.85, 571.75 514.38 C 571.36 512.90, 571.41 511.84, 571.26 510.11 C 571.11 508.37, 571.20 507.24, 571.00 505.72 C 570.80 504.20, 570.71 503.36, 570.24 502.51 C 569.78 501.66, 569.47 501.34, 568.67 501.45 C 567.88 501.55, 567.32 502.00, 566.25 503.03 C 565.18 504.06, 564.52 505.09, 563.31 506.62 C 562.11 508.14, 561.39 509.21, 560.23 510.68 C 559.07 512.15, 558.44 512.97, 557.52 513.96 C 556.59 514.95, 556.20 515.35, 555.61 515.62 C 555.02 515.90, 554.85 515.83, 554.56 515.32 C 554.26 514.82, 554.22 514.27, 554.12 513.10 C 554.03 511.93, 554.12 511.01, 554.09 509.48 C 554.06 507.95, 554.14 506.89, 553.99 505.46 C 553.84 504.02, 553.74 503.18, 553.32 502.31 C 552.91 501.44, 552.61 501.08, 551.91 501.10 C 551.21 501.11, 550.74 501.44, 549.82 502.38 C 548.89 503.32, 548.35 504.26, 547.29 505.80 C 546.22 507.33, 545.58 508.43, 544.50 510.06 C 543.41 511.69, 542.79 512.66, 541.85 513.94 C 540.91 515.23, 540.47 515.82, 539.81 516.49 C 539.15 517.16, 538.92 517.32, 538.54 517.28 C 538.17 517.24, 538.09 517.01, 537.93 516.30 C 537.77 515.60, 537.77 514.97, 537.76 513.77 C 537.74 512.57, 537.83 511.69, 537.86 510.29 C 537.88 508.89, 537.99 508.03, 537.90 506.78 C 537.81 505.54, 537.76 504.90, 537.40 504.07 C 537.05 503.23, 536.79 502.91, 536.11 502.62 C 535.43 502.33, 534.98 502.41, 534.01 502.60 C 533.04 502.79, 532.45 503.17, 531.24 503.57 C 530.04 503.97, 529.34 504.28, 527.97 504.61 C 526.60 504.93, 525.80 505.09, 524.38 505.18 C 522.96 505.27, 522.16 505.25, 520.86 505.06 C 519.56 504.87, 518.88 504.68, 517.88 504.24 C 516.88 503.79, 516.44 503.48, 515.86 502.83 C 515.27 502.18, 515.09 501.75, 514.96 501.00 C 514.83 500.24, 514.92 499.78, 515.19 499.06 C 515.46 498.33, 515.74 497.92, 516.32 497.36 C 516.90 496.80, 517.32 496.51, 518.08 496.25 C 518.85 495.99, 519.35 495.89, 520.15 496.07 C 520.96 496.26, 521.42 496.46, 522.11 497.17 C 522.79 497.89, 523.15 498.43, 523.60 499.65 C 524.04 500.88, 524.21 501.72, 524.31 503.31 C 524.41 504.90, 524.36 505.91, 524.10 507.62 C 523.84 509.33, 523.57 510.33, 523.01 511.85 C 522.46 513.38, 522.06 514.14, 521.33 515.24 C 520.59 516.34, 520.15 516.78, 519.35 517.36 C 518.56 517.94, 518.13 518.07, 517.36 518.13 C 516.60 518.19, 516.21 518.05, 515.53 517.67 C 514.86 517.30, 514.52 516.92, 513.99 516.24 C 513.46 515.56, 513.22 515.08, 512.88 514.28 C 512.54 513.48, 512.43 512.98, 512.27 512.24 C 512.11 511.51, 512.10 511.13, 512.07 510.61 C 512.03 510.10, 512.06 509.90, 512.10 509.65 C 512.13 509.40, 512.14 509.42, 512.24 509.38 C 512.35 509.33, 512.39 509.43, 512.60 509.44 C 512.81 509.45, 512.97 509.48, 513.32 509.43 C 513.66 509.37, 513.94 509.36, 514.34 509.14 C 514.74 508.93, 514.98 508.77, 515.32 508.36 C 515.66 507.94, 515.80 507.67, 516.04 507.07 C 516.28 506.47, 516.37 506.09, 516.52 505.35 C 516.66 504.62, 516.75 504.16, 516.77 503.41 C 516.80 502.66, 516.81 502.22, 516.64 501.59 C 516.47 500.97, 516.27 500.63, 515.93 500.27 C 515.60 499.92, 515.34 499.77, 514.97 499.83 C 514.60 499.88, 514.41 499.98, 514.07 500.55 C 513.73 501.12, 513.59 501.55, 513.27 502.67 C 512.95 503.79, 512.81 504.56, 512.47 506.15 C 512.13 507.73, 511.93 508.77, 511.56 510.58 C 511.20 512.39, 511.02 513.50, 510.65 515.19 C 510.28 516.88, 510.13 517.78, 509.71 519.03 C 509.30 520.29, 509.13 520.82, 508.56 521.46 C 507.99 522.10, 507.72 522.26, 506.88 522.22 C 506.04 522.19, 505.57 521.97, 504.34 521.29 C 503.12 520.61, 502.38 520.03, 500.77 518.83 C 499.15 517.63, 498.21 516.81, 496.26 515.28 C 494.32 513.76, 493.20 512.82, 491.05 511.21 C 488.89 509.60, 487.65 508.70, 485.49 507.23 C 483.33 505.77, 482.13 505.00, 480.24 503.90 C 478.35 502.80, 477.35 502.36, 476.03 501.73 C 474.71 501.09, 474.09 501.05, 473.65 500.73 C 473.21 500.41, 473.22 500.50, 473.81 500.13 C 474.40 499.76, 475.07 499.62, 476.60 498.87 C 478.13 498.11, 479.30 497.63, 481.47 496.35 C 483.64 495.07, 485.08 494.26, 487.45 492.47 C 489.82 490.68, 491.23 489.60, 493.31 487.40 C 495.38 485.21, 496.48 483.96, 497.83 481.51 C 499.17 479.07, 499.66 477.70, 500.02 475.18 C 500.37 472.67, 500.24 471.30, 499.61 468.93 C 498.98 466.57, 498.28 465.32, 496.85 463.36 C 495.42 461.39, 494.36 460.44, 492.44 459.11 C 490.53 457.78, 489.33 457.23, 487.27 456.72 C 485.21 456.22, 484.05 456.16, 482.14 456.61 C 480.22 457.05, 479.26 457.56, 477.70 458.97 C 476.15 460.39, 475.45 461.38, 474.37 463.67 C 473.30 465.95, 472.89 467.37, 472.31 470.40 C 471.74 473.43, 471.63 475.20, 471.49 478.83 C 471.35 482.46, 471.42 484.54, 471.61 488.57 C 471.81 492.59, 472.06 494.88, 472.47 498.96 C 472.88 503.04, 473.20 505.32, 473.68 508.98 C 474.17 512.64, 474.33 514.59, 474.89 517.25 C 475.45 519.92, 475.88 521.10, 476.46 522.32 C 477.05 523.53, 477.39 523.76, 477.81 523.32 C 478.23 522.89, 478.39 522.13, 478.55 520.14 C 478.72 518.16, 478.64 516.58, 478.63 513.41 C 478.62 510.24, 478.53 508.11, 478.50 504.27 C 478.47 500.44, 478.46 498.12, 478.46 494.25 C 478.47 490.38, 478.52 488.27, 478.50 484.94 C 478.49 481.61, 478.51 480.00, 478.38 477.59 C 478.26 475.18, 478.10 474.28, 477.87 472.90 C 477.65 471.51, 477.53 471.11, 477.27 470.67 C 477.01 470.23, 476.77 470.26, 476.57 470.72"
    style="stroke: #282e43; fill: #282e43;" />
</svg>