<svg xmlns="http://www.w3.org/2000/svg" id="canvas" viewBox="143.520 442.250 687.073 161.592">
  <path
    d="M 201.28,450.20 C 200.88 449.34, 200.29 448.81, 198.86 448.33 C 197.44 447.85, 196.33 447.61, 194.16 447.81 C 192.00 448.01, 190.54 448.36, 188.04 449.33 C 185.54 450.30, 184.17 451.10, 181.67 452.66 C 179.17 454.22, 177.78 455.19, 175.54 457.12 C 173.30 459.06, 172.16 460.17, 170.46 462.34 C 168.76 464.51, 167.90 465.68, 167.04 467.98 C 166.18 470.27, 165.99 471.56, 166.17 473.83 C 166.35 476.10, 166.76 477.29, 167.93 479.31 C 169.09 481.33, 170.03 482.20, 172.00 483.94 C 173.97 485.68, 175.25 486.51, 177.78 488.01 C 180.32 489.50, 181.93 490.05, 184.68 491.42 C 187.42 492.79, 189.00 493.49, 191.50 494.84 C 194.01 496.20, 195.33 496.92, 197.22 498.20 C 199.10 499.48, 199.91 500.02, 200.92 501.24 C 201.94 502.46, 202.18 503.04, 202.27 504.29 C 202.36 505.54, 202.23 506.11, 201.37 507.48 C 200.51 508.85, 199.73 509.44, 197.96 511.14 C 196.20 512.84, 195.13 514.10, 192.53 516.00 C 189.93 517.90, 188.23 518.95, 184.98 520.63 C 181.73 522.31, 179.77 523.11, 176.26 524.40 C 172.75 525.69, 170.74 526.29, 167.43 527.09 C 164.11 527.89, 162.39 527.97, 159.69 528.38 C 156.98 528.79, 155.72 528.95, 153.92 529.14 C 152.12 529.32, 151.44 529.33, 150.70 529.31 C 149.96 529.29, 149.96 529.32, 150.23 529.05 C 150.49 528.77, 150.89 528.64, 152.03 527.94 C 153.17 527.24, 153.98 526.81, 155.93 525.55 C 157.87 524.30, 159.05 523.23, 161.76 521.67 C 164.47 520.10, 166.13 519.21, 169.49 517.72 C 172.85 516.24, 174.81 515.56, 178.54 514.26 C 182.28 512.96, 184.32 512.33, 188.17 511.23 C 192.03 510.13, 194.04 509.62, 197.82 508.75 C 201.60 507.89, 203.55 507.60, 207.09 506.91 C 210.63 506.22, 212.41 505.90, 215.52 505.31 C 218.64 504.71, 220.11 504.52, 222.66 503.93 C 225.21 503.35, 226.35 503.01, 228.28 502.38 C 230.22 501.76, 231.07 501.51, 232.35 500.81 C 233.62 500.12, 234.16 499.78, 234.65 498.89 C 235.14 498.01, 235.12 497.33, 234.81 496.39 C 234.49 495.44, 234.05 494.75, 233.08 494.19 C 232.11 493.62, 231.43 493.37, 229.96 493.57 C 228.48 493.76, 227.51 494.14, 225.71 495.16 C 223.90 496.18, 222.87 497.00, 220.93 498.66 C 218.99 500.33, 217.85 501.32, 215.99 503.47 C 214.13 505.62, 213.03 506.94, 211.62 509.41 C 210.21 511.87, 209.51 513.36, 208.94 515.81 C 208.37 518.27, 208.31 519.56, 208.78 521.67 C 209.24 523.78, 209.82 524.88, 211.28 526.35 C 212.74 527.81, 213.89 528.44, 216.07 528.98 C 218.26 529.52, 219.64 529.45, 222.18 529.04 C 224.73 528.64, 226.17 528.15, 228.78 526.96 C 231.39 525.78, 232.83 524.88, 235.24 523.11 C 237.64 521.34, 238.88 520.18, 240.81 518.09 C 242.75 516.01, 243.62 514.88, 244.91 512.70 C 246.19 510.51, 246.72 509.31, 247.26 507.16 C 247.80 505.02, 247.81 503.83, 247.61 501.97 C 247.42 500.11, 247.02 499.23, 246.29 497.86 C 245.55 496.49, 244.97 495.68, 243.94 495.11 C 242.91 494.54, 241.96 494.49, 241.15 495.01 C 240.34 495.53, 239.82 496.66, 239.88 497.73 C 239.94 498.80, 240.36 499.58, 241.45 500.35 C 242.55 501.12, 243.42 501.32, 245.36 501.57 C 247.31 501.81, 248.60 501.72, 251.18 501.55 C 253.76 501.38, 255.32 501.14, 258.28 500.72 C 261.23 500.30, 262.89 499.90, 265.97 499.45 C 269.04 499.00, 270.76 498.80, 273.65 498.47 C 276.54 498.13, 278.04 497.98, 280.42 497.78 C 282.79 497.58, 283.92 497.53, 285.53 497.47 C 287.14 497.41, 287.86 497.28, 288.46 497.48 C 289.07 497.67, 288.97 497.61, 288.55 498.46 C 288.14 499.31, 287.47 499.88, 286.38 501.74 C 285.30 503.60, 284.71 504.97, 283.13 507.74 C 281.54 510.51, 280.57 512.27, 278.44 515.59 C 276.31 518.91, 274.90 520.85, 272.47 524.33 C 270.05 527.81, 268.70 529.68, 266.33 532.97 C 263.97 536.26, 262.74 537.94, 260.66 540.79 C 258.59 543.63, 257.30 544.94, 255.95 547.20 C 254.60 549.46, 254.16 550.55, 253.92 552.09 C 253.68 553.63, 253.92 554.32, 254.74 554.91 C 255.56 555.49, 256.48 555.68, 258.02 555.02 C 259.55 554.36, 260.67 553.70, 262.43 551.61 C 264.18 549.51, 264.66 547.64, 266.78 544.53 C 268.91 541.43, 270.28 539.54, 273.07 536.08 C 275.86 532.61, 277.54 530.69, 280.75 527.21 C 283.97 523.73, 285.74 521.90, 289.15 518.69 C 292.55 515.47, 294.40 513.86, 297.76 511.14 C 301.12 508.41, 302.86 507.13, 305.95 505.07 C 309.04 503.02, 310.63 502.23, 313.23 500.86 C 315.83 499.49, 316.99 498.96, 318.94 498.23 C 320.89 497.50, 321.64 497.32, 322.97 497.23 C 324.30 497.14, 324.78 497.37, 325.58 497.78 C 326.37 498.19, 326.56 498.55, 326.94 499.29 C 327.33 500.03, 327.37 500.53, 327.50 501.48 C 327.63 502.42, 327.72 502.97, 327.58 504.02 C 327.44 505.08, 327.34 505.59, 326.79 506.73 C 326.24 507.87, 325.82 508.50, 324.82 509.71 C 323.82 510.92, 323.16 511.56, 321.79 512.76 C 320.42 513.97, 319.54 514.63, 317.97 515.73 C 316.39 516.84, 315.48 517.39, 313.90 518.27 C 312.33 519.15, 311.46 519.54, 310.09 520.13 C 308.72 520.73, 308.05 520.84, 307.03 521.24 C 306.01 521.63, 305.52 521.58, 305.01 522.10 C 304.51 522.62, 304.41 523.10, 304.51 523.83 C 304.61 524.56, 304.87 525.22, 305.49 525.75 C 306.12 526.28, 306.44 526.48, 307.64 526.48 C 308.85 526.48, 309.66 526.33, 311.53 525.77 C 313.40 525.21, 314.59 524.73, 317.00 523.67 C 319.41 522.62, 320.70 521.93, 323.58 520.49 C 326.46 519.05, 328.05 518.23, 331.39 516.47 C 334.72 514.72, 336.62 513.78, 340.26 511.72 C 343.91 509.66, 345.89 508.57, 349.62 506.19 C 353.34 503.80, 355.29 502.49, 358.88 499.79 C 362.47 497.09, 364.27 495.63, 367.58 492.69 C 370.90 489.74, 372.54 488.14, 375.45 485.07 C 378.37 482.00, 379.74 480.38, 382.14 477.35 C 384.54 474.32, 385.66 472.79, 387.45 469.92 C 389.25 467.05, 390.10 465.64, 391.12 463.01 C 392.15 460.37, 392.36 459.06, 392.56 456.74 C 392.75 454.43, 392.67 453.28, 392.10 451.42 C 391.52 449.55, 391.04 448.62, 389.68 447.41 C 388.32 446.20, 387.27 445.64, 385.30 445.38 C 383.32 445.11, 382.06 445.22, 379.79 446.10 C 377.51 446.97, 376.23 447.70, 373.92 449.77 C 371.60 451.84, 370.57 453.40, 368.22 456.44 C 365.88 459.48, 364.57 461.30, 362.20 464.97 C 359.84 468.63, 358.57 470.78, 356.38 474.78 C 354.19 478.77, 353.06 480.96, 351.24 484.94 C 349.42 488.92, 348.59 491.03, 347.27 494.69 C 345.95 498.35, 345.25 500.12, 344.62 503.25 C 344.00 506.39, 343.89 507.84, 344.12 510.38 C 344.35 512.91, 344.70 514.08, 345.78 515.94 C 346.87 517.79, 347.68 518.63, 349.54 519.64 C 351.41 520.66, 352.72 520.96, 355.13 521.00 C 357.54 521.04, 358.94 520.75, 361.60 519.85 C 364.26 518.96, 365.63 518.00, 368.44 516.51 C 371.25 515.03, 372.88 514.01, 375.63 512.44 C 378.39 510.86, 380.12 510.02, 382.22 508.64 C 384.31 507.26, 385.17 506.41, 386.10 505.55 C 387.04 504.69, 387.07 504.40, 386.91 504.34 C 386.75 504.27, 386.12 504.46, 385.31 505.24 C 384.50 506.01, 383.56 506.71, 382.87 508.21 C 382.18 509.72, 381.83 510.95, 381.86 512.77 C 381.90 514.58, 382.20 515.74, 383.06 517.28 C 383.93 518.81, 384.56 519.61, 386.19 520.43 C 387.81 521.25, 388.90 521.50, 391.18 521.36 C 393.47 521.21, 394.93 520.89, 397.63 519.70 C 400.33 518.51, 401.71 517.21, 404.69 515.41 C 407.66 513.61, 409.41 512.48, 412.49 510.70 C 415.57 508.92, 417.64 508.05, 420.07 506.53 C 422.51 505.00, 423.60 504.05, 424.65 503.08 C 425.71 502.12, 425.71 501.72, 425.37 501.69 C 425.02 501.67, 424.16 501.89, 422.93 502.96 C 421.70 504.03, 420.44 505.05, 419.20 507.04 C 417.95 509.04, 417.23 510.62, 416.70 512.92 C 416.16 515.23, 416.08 516.62, 416.52 518.58 C 416.96 520.55, 417.43 521.54, 418.90 522.74 C 420.37 523.95, 421.51 524.47, 423.88 524.59 C 426.25 524.71, 427.79 524.40, 430.74 523.34 C 433.69 522.28, 435.23 521.08, 438.62 519.29 C 442.01 517.50, 444.03 516.32, 447.67 514.39 C 451.32 512.46, 453.35 511.32, 456.86 509.63 C 460.36 507.93, 462.28 507.17, 465.20 505.92 C 468.12 504.68, 469.51 504.21, 471.46 503.39 C 473.41 502.58, 474.08 502.31, 474.93 501.86 C 475.78 501.40, 475.79 501.33, 475.70 501.12 C 475.60 500.92, 475.03 500.87, 474.44 500.83 C 473.84 500.80, 473.33 500.75, 472.74 500.95 C 472.15 501.14, 471.90 501.37, 471.50 501.81 C 471.09 502.25, 470.97 502.76, 470.70 503.15 C 470.43 503.53, 470.52 503.66, 470.14 503.74 C 469.76 503.81, 469.53 503.54, 468.80 503.54 C 468.07 503.54, 467.58 503.52, 466.49 503.73 C 465.40 503.94, 464.75 503.98, 463.36 504.58 C 461.96 505.18, 461.05 505.60, 459.51 506.73 C 457.98 507.85, 457.08 508.68, 455.70 510.21 C 454.32 511.74, 453.55 512.66, 452.61 514.39 C 451.68 516.12, 451.19 517.14, 451.01 518.87 C 450.82 520.60, 450.94 521.62, 451.70 523.06 C 452.46 524.50, 453.21 525.32, 454.81 526.08 C 456.42 526.83, 457.57 527.01, 459.73 526.84 C 461.88 526.67, 463.16 526.24, 465.59 525.22 C 468.01 524.19, 469.32 523.36, 471.86 521.72 C 474.40 520.08, 475.74 518.91, 478.28 517.02 C 480.82 515.12, 482.30 514.16, 484.56 512.25 C 486.83 510.34, 488.30 509.25, 489.62 507.48 C 490.93 505.71, 491.23 504.56, 491.14 503.40 C 491.05 502.24, 490.34 501.74, 489.16 501.68 C 487.98 501.62, 486.79 501.89, 485.26 503.10 C 483.72 504.32, 482.54 505.51, 481.47 507.76 C 480.40 510.00, 480.06 511.76, 479.90 514.31 C 479.73 516.87, 479.78 518.37, 480.65 520.54 C 481.51 522.71, 482.27 523.79, 484.22 525.16 C 486.17 526.54, 487.54 527.09, 490.40 527.42 C 493.26 527.75, 495.05 527.45, 498.51 526.80 C 501.97 526.15, 504.20 525.27, 507.69 524.17 C 511.17 523.07, 513.27 522.58, 515.94 521.29 C 518.62 519.99, 520.19 518.86, 521.06 517.70 C 521.92 516.55, 521.64 515.85, 520.26 515.51 C 518.88 515.17, 517.00 515.43, 514.15 516.02 C 511.30 516.61, 509.35 517.54, 506.00 518.46 C 502.65 519.37, 500.44 520.07, 497.39 520.60 C 494.34 521.13, 492.88 521.04, 490.75 521.09 C 488.62 521.15, 487.79 521.26, 486.74 520.87 C 485.69 520.49, 485.53 520.15, 485.50 519.16 C 485.47 518.17, 485.79 517.38, 486.58 515.91 C 487.38 514.45, 488.51 513.61, 489.48 511.85 C 490.46 510.08, 491.10 508.83, 491.46 507.08 C 491.82 505.33, 491.76 504.23, 491.29 503.10 C 490.83 501.96, 490.35 501.46, 489.14 501.41 C 487.94 501.37, 487.05 501.74, 485.28 502.88 C 483.51 504.03, 482.44 505.36, 480.29 507.16 C 478.14 508.96, 476.95 510.16, 474.53 511.88 C 472.12 513.59, 470.60 514.40, 468.23 515.74 C 465.85 517.09, 464.64 517.71, 462.68 518.61 C 460.72 519.52, 459.77 519.76, 458.43 520.28 C 457.09 520.80, 456.61 520.98, 455.98 521.20 C 455.36 521.42, 455.29 521.53, 455.32 521.38 C 455.34 521.23, 455.54 521.10, 456.10 520.46 C 456.66 519.83, 457.12 519.22, 458.10 518.21 C 459.07 517.19, 459.77 516.49, 460.98 515.37 C 462.19 514.25, 463.02 513.58, 464.15 512.62 C 465.27 511.65, 465.78 511.15, 466.60 510.55 C 467.42 509.95, 467.63 509.90, 468.23 509.61 C 468.82 509.32, 468.99 509.30, 469.59 509.11 C 470.18 508.91, 470.46 508.83, 471.21 508.66 C 471.95 508.49, 472.40 508.50, 473.31 508.28 C 474.23 508.06, 474.88 508.10, 475.78 507.57 C 476.68 507.04, 477.30 506.63, 477.82 505.61 C 478.34 504.60, 478.48 503.72, 478.38 502.51 C 478.29 501.30, 478.12 500.47, 477.36 499.56 C 476.60 498.65, 476.11 498.22, 474.59 497.97 C 473.06 497.73, 472.06 497.72, 469.75 498.34 C 467.44 498.97, 466.04 499.69, 463.04 501.09 C 460.03 502.49, 458.24 503.55, 454.73 505.34 C 451.22 507.13, 449.16 508.26, 445.48 510.04 C 441.79 511.82, 439.69 512.88, 436.28 514.24 C 432.87 515.59, 431.05 515.92, 428.44 516.82 C 425.82 517.72, 424.72 518.18, 423.22 518.74 C 421.71 519.30, 421.32 519.61, 420.92 519.61 C 420.52 519.60, 420.68 519.49, 421.21 518.73 C 421.74 517.97, 422.47 517.36, 423.56 515.81 C 424.65 514.26, 425.72 513.10, 426.65 510.98 C 427.57 508.87, 428.07 507.28, 428.18 505.23 C 428.30 503.18, 428.20 502.00, 427.22 500.74 C 426.25 499.48, 425.36 498.90, 423.31 498.95 C 421.26 498.99, 419.72 499.60, 416.98 500.96 C 414.23 502.32, 412.63 503.93, 409.58 505.74 C 406.54 507.55, 404.74 508.58, 401.75 510.01 C 398.77 511.44, 397.06 511.86, 394.68 512.88 C 392.29 513.89, 391.25 514.42, 389.81 515.09 C 388.37 515.76, 387.95 516.06, 387.48 516.23 C 387.00 516.40, 387.17 516.38, 387.45 515.96 C 387.73 515.53, 388.27 515.16, 388.86 514.10 C 389.44 513.04, 390.06 512.25, 390.38 510.67 C 390.71 509.09, 390.83 507.82, 390.46 506.19 C 390.10 504.57, 389.73 503.53, 388.57 502.55 C 387.42 501.56, 386.61 501.19, 384.70 501.26 C 382.80 501.33, 381.50 501.76, 379.05 502.89 C 376.60 504.02, 375.18 505.34, 372.46 506.89 C 369.74 508.45, 368.09 509.37, 365.45 510.68 C 362.80 511.99, 361.41 512.57, 359.25 513.45 C 357.09 514.32, 356.20 514.69, 354.65 515.05 C 353.09 515.42, 352.46 515.51, 351.49 515.26 C 350.51 515.01, 350.22 514.84, 349.76 513.81 C 349.31 512.78, 349.20 512.03, 349.21 510.11 C 349.21 508.19, 349.30 507.01, 349.78 504.21 C 350.25 501.41, 350.51 499.63, 351.57 496.12 C 352.63 492.61, 353.38 490.53, 355.09 486.67 C 356.79 482.82, 357.90 480.67, 360.08 476.85 C 362.27 473.04, 363.57 470.95, 366.02 467.58 C 368.47 464.21, 369.87 462.53, 372.34 460.00 C 374.80 457.47, 376.31 456.59, 378.35 454.94 C 380.38 453.29, 381.15 452.63, 382.52 451.74 C 383.89 450.85, 384.35 450.71, 385.18 450.51 C 386.01 450.32, 386.23 450.34, 386.67 450.74 C 387.10 451.15, 387.22 451.48, 387.35 452.56 C 387.48 453.63, 387.62 454.43, 387.33 456.12 C 387.05 457.81, 386.78 458.76, 385.93 461.01 C 385.08 463.26, 384.55 464.63, 383.07 467.36 C 381.59 470.08, 380.68 471.65, 378.54 474.62 C 376.40 477.60, 375.11 479.20, 372.38 482.21 C 369.65 485.22, 368.07 486.81, 364.88 489.67 C 361.70 492.54, 359.96 493.96, 356.46 496.54 C 352.96 499.13, 351.05 500.38, 347.38 502.61 C 343.71 504.84, 341.75 505.85, 338.11 507.70 C 334.47 509.54, 332.57 510.39, 329.19 511.81 C 325.80 513.24, 324.14 513.80, 321.19 514.81 C 318.24 515.83, 316.84 516.14, 314.45 516.89 C 312.06 517.64, 310.99 517.98, 309.25 518.56 C 307.50 519.15, 306.82 519.15, 305.73 519.81 C 304.65 520.47, 304.21 520.90, 303.82 521.86 C 303.44 522.83, 303.49 523.73, 303.79 524.64 C 304.10 525.56, 304.47 526.03, 305.36 526.43 C 306.24 526.84, 306.86 526.80, 308.22 526.68 C 309.58 526.55, 310.44 526.34, 312.16 525.80 C 313.89 525.26, 314.93 524.89, 316.84 523.98 C 318.74 523.07, 319.81 522.49, 321.70 521.25 C 323.58 520.00, 324.61 519.27, 326.27 517.76 C 327.92 516.25, 328.72 515.40, 329.98 513.70 C 331.23 512.00, 331.78 511.06, 332.52 509.25 C 333.26 507.44, 333.54 506.49, 333.69 504.66 C 333.85 502.83, 333.81 501.80, 333.31 500.10 C 332.81 498.40, 332.33 497.48, 331.19 496.16 C 330.05 494.83, 329.29 494.22, 327.63 493.46 C 325.97 492.71, 324.97 492.43, 322.89 492.40 C 320.81 492.36, 319.66 492.50, 317.23 493.30 C 314.79 494.09, 313.48 494.74, 310.72 496.38 C 307.95 498.02, 306.51 499.15, 303.41 501.49 C 300.31 503.83, 298.60 505.19, 295.22 508.07 C 291.84 510.95, 289.98 512.61, 286.50 515.89 C 283.03 519.17, 281.23 521.02, 277.86 524.46 C 274.49 527.90, 272.78 529.82, 269.67 533.11 C 266.57 536.41, 264.98 538.16, 262.34 540.92 C 259.70 543.68, 258.11 544.73, 256.49 546.92 C 254.86 549.10, 254.53 550.29, 254.22 551.83 C 253.91 553.37, 254.30 554.14, 254.94 554.60 C 255.59 555.07, 256.29 555.03, 257.46 554.17 C 258.63 553.31, 259.34 552.43, 260.80 550.31 C 262.26 548.19, 262.92 546.51, 264.76 543.56 C 266.61 540.62, 267.75 538.89, 270.04 535.58 C 272.32 532.27, 273.69 530.42, 276.20 527.00 C 278.72 523.59, 280.19 521.71, 282.62 518.52 C 285.06 515.34, 286.44 513.88, 288.38 511.08 C 290.33 508.28, 291.40 507.03, 292.35 504.54 C 293.31 502.05, 293.44 500.70, 293.14 498.64 C 292.84 496.59, 292.25 495.59, 290.86 494.29 C 289.47 492.98, 288.32 492.65, 286.18 492.13 C 284.03 491.61, 282.78 491.67, 280.14 491.71 C 277.50 491.74, 275.96 491.98, 272.97 492.29 C 269.99 492.61, 268.27 492.96, 265.20 493.27 C 262.13 493.58, 260.46 493.70, 257.61 493.85 C 254.76 493.99, 253.29 494.00, 250.94 493.99 C 248.58 493.97, 247.49 493.76, 245.83 493.79 C 244.17 493.81, 243.59 493.73, 242.63 494.10 C 241.67 494.48, 241.49 494.90, 241.03 495.67 C 240.56 496.45, 240.40 497.26, 240.32 497.99 C 240.24 498.71, 240.33 498.85, 240.61 499.31 C 240.90 499.78, 241.39 499.70, 241.73 500.32 C 242.06 500.93, 242.26 501.32, 242.29 502.38 C 242.32 503.45, 242.35 504.21, 241.88 505.63 C 241.41 507.06, 241.05 507.92, 239.93 509.50 C 238.80 511.08, 237.97 511.94, 236.24 513.54 C 234.50 515.15, 233.33 516.11, 231.25 517.53 C 229.18 518.95, 227.96 519.67, 225.87 520.66 C 223.78 521.64, 222.59 521.95, 220.79 522.47 C 218.98 522.99, 218.10 523.18, 216.84 523.26 C 215.57 523.34, 215.09 523.32, 214.44 522.87 C 213.80 522.41, 213.60 522.05, 213.63 521.01 C 213.67 519.97, 213.88 519.26, 214.63 517.67 C 215.38 516.08, 216.05 514.92, 217.39 513.04 C 218.72 511.16, 219.64 510.00, 221.29 508.27 C 222.95 506.53, 224.01 505.69, 225.66 504.37 C 227.32 503.05, 228.25 502.50, 229.57 501.67 C 230.88 500.84, 231.46 500.79, 232.23 500.22 C 233.00 499.65, 233.18 499.45, 233.42 498.80 C 233.67 498.15, 233.60 497.52, 233.44 496.95 C 233.29 496.38, 233.21 496.09, 232.63 495.94 C 232.05 495.79, 231.72 495.94, 230.55 496.18 C 229.39 496.43, 228.66 496.73, 226.82 497.16 C 224.98 497.60, 223.84 497.77, 221.35 498.37 C 218.86 498.96, 217.43 499.37, 214.37 500.15 C 211.32 500.92, 209.59 501.41, 206.07 502.25 C 202.56 503.09, 200.61 503.43, 196.78 504.36 C 192.96 505.30, 190.90 505.83, 186.96 506.92 C 183.02 508.01, 180.96 508.62, 177.09 509.82 C 173.21 511.01, 171.21 511.63, 167.59 512.88 C 163.97 514.14, 162.13 514.75, 158.99 516.09 C 155.84 517.43, 154.15 517.98, 151.87 519.60 C 149.59 521.22, 148.65 522.30, 147.60 524.20 C 146.55 526.09, 146.36 527.34, 146.63 529.06 C 146.90 530.78, 147.53 531.73, 148.97 532.80 C 150.41 533.86, 151.51 534.13, 153.83 534.38 C 156.15 534.64, 157.60 534.55, 160.58 534.07 C 163.56 533.59, 165.26 533.00, 168.73 531.99 C 172.21 530.97, 174.25 530.34, 177.94 528.99 C 181.64 527.64, 183.67 526.88, 187.23 525.24 C 190.78 523.61, 192.66 522.69, 195.74 520.81 C 198.81 518.92, 200.47 518.00, 202.61 515.81 C 204.75 513.63, 205.51 512.27, 206.43 509.88 C 207.35 507.48, 207.46 506.16, 207.22 503.83 C 206.98 501.51, 206.50 500.35, 205.23 498.26 C 203.96 496.18, 202.99 495.19, 200.86 493.41 C 198.73 491.63, 197.21 490.89, 194.57 489.36 C 191.92 487.84, 190.27 487.25, 187.62 485.79 C 184.97 484.34, 183.63 483.48, 181.30 482.08 C 178.97 480.69, 177.74 480.01, 175.97 478.83 C 174.19 477.66, 173.38 477.30, 172.43 476.23 C 171.48 475.16, 171.27 474.67, 171.20 473.47 C 171.13 472.27, 171.27 471.63, 172.07 470.22 C 172.87 468.82, 173.64 468.01, 175.19 466.43 C 176.73 464.85, 177.78 463.88, 179.80 462.33 C 181.81 460.78, 183.09 459.92, 185.27 458.69 C 187.44 457.47, 188.64 456.96, 190.67 456.19 C 192.71 455.42, 193.80 455.33, 195.42 454.85 C 197.04 454.38, 197.68 454.25, 198.78 453.81 C 199.87 453.37, 200.39 453.37, 200.89 452.65 C 201.40 451.93, 201.69 451.07, 201.28 450.20"
    style="stroke: #282e43; fill: #282e43;" />
  <path
    d="M 618.92,465.94 C 618.05 466.35, 617.77 466.94, 616.87 468.48 C 615.98 470.03, 615.38 470.96, 614.46 473.65 C 613.54 476.34, 613.45 478.33, 612.27 481.93 C 611.10 485.53, 610.34 487.63, 608.58 491.67 C 606.83 495.71, 605.66 498.00, 603.51 502.12 C 601.36 506.25, 600.13 508.45, 597.83 512.29 C 595.54 516.14, 594.28 518.11, 592.04 521.35 C 589.80 524.59, 588.38 526.10, 586.65 528.48 C 584.92 530.86, 584.23 531.95, 583.39 533.26 C 582.55 534.56, 582.52 534.97, 582.45 535.01 C 582.39 535.05, 582.75 534.78, 583.06 533.46 C 583.38 532.14, 583.77 531.08, 584.02 528.42 C 584.27 525.76, 583.90 523.83, 584.33 520.18 C 584.76 516.52, 585.11 514.33, 586.19 510.16 C 587.27 506.00, 587.96 503.69, 589.72 499.35 C 591.49 495.01, 592.58 492.72, 595.02 488.47 C 597.46 484.21, 598.96 481.96, 601.93 478.05 C 604.91 474.14, 606.60 472.16, 609.89 468.91 C 613.19 465.67, 614.97 464.19, 618.40 461.82 C 621.84 459.45, 623.68 458.43, 627.07 457.06 C 630.46 455.69, 632.34 455.29, 635.35 454.96 C 638.37 454.63, 639.83 454.93, 642.17 455.42 C 644.51 455.91, 645.53 456.34, 647.06 457.42 C 648.59 458.51, 649.19 459.23, 649.81 460.85 C 650.44 462.46, 650.48 463.37, 650.18 465.51 C 649.87 467.64, 649.59 468.91, 648.31 471.54 C 647.03 474.17, 646.14 475.79, 643.79 478.64 C 641.43 481.49, 639.80 483.12, 636.54 485.80 C 633.28 488.47, 631.25 489.79, 627.49 492.03 C 623.73 494.27, 621.51 495.37, 617.74 496.98 C 613.97 498.59, 611.87 499.18, 608.63 500.06 C 605.39 500.94, 603.86 500.95, 601.56 501.37 C 599.26 501.80, 598.48 501.92, 597.12 502.17 C 595.76 502.42, 595.30 502.23, 594.75 502.62 C 594.19 503.01, 593.94 503.46, 594.35 504.11 C 594.76 504.75, 595.20 505.32, 596.79 505.83 C 598.37 506.35, 599.61 506.92, 602.26 506.69 C 604.91 506.46, 606.59 505.84, 610.04 504.69 C 613.49 503.53, 615.57 502.72, 619.49 500.90 C 623.40 499.09, 625.66 497.95, 629.62 495.62 C 633.57 493.29, 635.70 491.98, 639.27 489.23 C 642.84 486.48, 644.66 484.90, 647.46 481.87 C 650.26 478.84, 651.57 477.25, 653.27 474.10 C 654.98 470.96, 655.70 469.23, 655.99 466.16 C 656.27 463.09, 655.87 461.36, 654.70 458.77 C 653.54 456.18, 652.47 454.95, 650.18 453.21 C 647.88 451.47, 646.35 450.67, 643.25 450.06 C 640.14 449.46, 638.24 449.57, 634.67 450.19 C 631.10 450.80, 629.08 451.46, 625.38 453.15 C 621.68 454.84, 619.77 456.02, 616.16 458.65 C 612.54 461.28, 610.72 462.87, 607.30 466.31 C 603.88 469.76, 602.16 471.81, 599.07 475.88 C 595.98 479.94, 594.45 482.24, 591.86 486.63 C 589.28 491.02, 588.13 493.37, 586.14 497.82 C 584.15 502.27, 583.37 504.62, 581.92 508.88 C 580.47 513.14, 579.88 515.31, 578.88 519.13 C 577.88 522.95, 577.04 524.90, 576.93 527.97 C 576.82 531.04, 577.33 532.58, 578.33 534.47 C 579.33 536.37, 580.32 537.04, 581.93 537.44 C 583.54 537.84, 584.59 537.64, 586.40 536.47 C 588.20 535.31, 589.08 534.16, 590.95 531.61 C 592.81 529.06, 593.65 527.18, 595.72 523.72 C 597.80 520.27, 599.04 518.27, 601.31 514.33 C 603.58 510.39, 604.82 508.18, 607.09 504.03 C 609.35 499.88, 610.58 497.60, 612.63 493.58 C 614.68 489.57, 615.64 487.49, 617.33 483.95 C 619.01 480.41, 620.11 478.69, 621.05 475.88 C 621.99 473.06, 621.98 471.77, 622.02 469.88 C 622.07 467.99, 621.87 467.22, 621.25 466.43 C 620.63 465.64, 619.80 465.53, 618.92 465.94"
    style="stroke: #282e43; fill: #282e43;" />
  <path
    d="M 644.63,500.92 C 643.77 501.06, 643.57 501.42, 642.59 502.34 C 641.61 503.26, 640.91 503.79, 639.71 505.50 C 638.52 507.21, 637.77 508.62, 636.62 510.90 C 635.48 513.18, 634.84 514.55, 633.98 516.89 C 633.11 519.23, 632.51 520.49, 632.31 522.59 C 632.10 524.70, 632.13 525.85, 632.94 527.42 C 633.76 528.99, 634.60 529.79, 636.37 530.43 C 638.15 531.07, 639.45 531.13, 641.82 530.61 C 644.18 530.10, 645.56 529.43, 648.20 527.84 C 650.85 526.25, 652.18 524.85, 655.05 522.65 C 657.91 520.45, 659.59 519.10, 662.53 516.86 C 665.47 514.61, 667.18 513.44, 669.74 511.43 C 672.30 509.41, 673.87 508.47, 675.34 506.80 C 676.81 505.13, 677.17 504.02, 677.10 503.08 C 677.03 502.13, 676.28 501.77, 675.00 502.06 C 673.71 502.35, 672.44 502.92, 670.67 504.52 C 668.89 506.12, 667.76 507.61, 666.12 510.06 C 664.47 512.52, 663.53 514.24, 662.44 516.82 C 661.36 519.39, 660.84 520.78, 660.70 522.94 C 660.56 525.10, 660.78 526.13, 661.73 527.62 C 662.68 529.12, 663.52 529.82, 665.46 530.41 C 667.39 530.99, 668.81 531.13, 671.39 530.56 C 673.97 529.98, 675.48 529.07, 678.37 527.52 C 681.25 525.97, 682.78 524.70, 685.81 522.81 C 688.84 520.92, 690.63 519.84, 693.51 518.09 C 696.40 516.34, 698.25 515.55, 700.23 514.06 C 702.21 512.58, 702.86 511.62, 703.42 510.67 C 703.98 509.72, 703.75 509.38, 703.01 509.31 C 702.28 509.24, 701.24 509.43, 699.75 510.32 C 698.25 511.21, 696.93 512.04, 695.54 513.75 C 694.16 515.46, 693.37 516.87, 692.83 518.87 C 692.28 520.87, 692.24 522.18, 692.82 523.74 C 693.40 525.29, 694.01 526.05, 695.73 526.64 C 697.45 527.24, 698.80 527.44, 701.42 526.71 C 704.04 525.97, 705.63 524.69, 708.85 522.98 C 712.07 521.26, 714.02 519.87, 717.53 518.13 C 721.04 516.39, 723.38 515.55, 726.39 514.27 C 729.40 512.98, 730.92 512.46, 732.58 511.69 C 734.24 510.93, 734.55 510.50, 734.71 510.44 C 734.87 510.37, 734.34 510.56, 733.40 511.36 C 732.46 512.16, 731.34 512.83, 730.00 514.44 C 728.67 516.05, 727.69 517.31, 726.72 519.41 C 725.74 521.51, 725.25 522.88, 725.12 524.94 C 724.99 527.00, 725.10 528.13, 726.06 529.71 C 727.03 531.28, 727.89 532.14, 729.95 532.80 C 732.01 533.47, 733.52 533.63, 736.38 533.04 C 739.25 532.45, 740.83 531.35, 744.28 529.84 C 747.73 528.33, 749.74 527.38, 753.63 525.49 C 757.53 523.59, 759.80 522.37, 763.76 520.36 C 767.73 518.36, 769.91 517.20, 773.45 515.46 C 776.99 513.71, 779.03 513.19, 781.47 511.63 C 783.92 510.07, 784.84 509.09, 785.67 507.64 C 786.50 506.20, 786.38 505.36, 785.61 504.41 C 784.85 503.45, 783.81 502.93, 781.86 502.87 C 779.90 502.81, 778.35 503.06, 775.85 504.10 C 773.35 505.15, 771.87 506.34, 769.36 508.09 C 766.84 509.83, 765.33 510.90, 763.26 512.82 C 761.19 514.75, 760.12 515.82, 759.00 517.72 C 757.88 519.62, 757.53 520.66, 757.66 522.32 C 757.79 523.98, 758.34 524.96, 759.65 526.03 C 760.96 527.09, 762.09 527.49, 764.22 527.65 C 766.34 527.82, 767.68 527.57, 770.28 526.84 C 772.88 526.10, 774.47 525.29, 777.20 523.98 C 779.93 522.67, 781.64 521.75, 783.92 520.31 C 786.21 518.87, 787.40 517.94, 788.62 516.76 C 789.85 515.58, 790.09 514.87, 790.06 514.41 C 790.03 513.94, 789.44 513.71, 788.48 514.44 C 787.52 515.16, 786.48 515.82, 785.25 518.03 C 784.01 520.23, 783.67 522.09, 782.31 525.46 C 780.94 528.82, 780.16 530.88, 778.43 534.84 C 776.69 538.80, 775.68 540.97, 773.63 545.26 C 771.58 549.55, 770.46 551.90, 768.18 556.27 C 765.89 560.65, 764.67 562.99, 762.20 567.15 C 759.72 571.30, 758.38 573.41, 755.82 577.04 C 753.27 580.67, 751.90 582.46, 749.41 585.30 C 746.92 588.13, 745.58 589.33, 743.37 591.24 C 741.16 593.14, 740.09 593.81, 738.36 594.81 C 736.62 595.81, 735.88 596.06, 734.70 596.23 C 733.51 596.41, 733.10 596.26, 732.44 595.70 C 731.79 595.13, 731.67 594.68, 731.43 593.39 C 731.19 592.10, 731.08 591.24, 731.25 589.26 C 731.42 587.29, 731.39 586.15, 732.28 583.53 C 733.17 580.91, 733.73 579.29, 735.70 576.17 C 737.68 573.04, 738.98 571.22, 742.17 567.91 C 745.36 564.61, 747.38 562.91, 751.64 559.65 C 755.90 556.39, 758.45 554.68, 763.47 551.61 C 768.50 548.53, 771.37 546.97, 776.77 544.27 C 782.16 541.58, 785.22 540.34, 790.44 538.14 C 795.66 535.94, 798.28 534.91, 802.88 533.28 C 807.47 531.64, 809.71 531.00, 813.42 529.98 C 817.13 528.97, 818.94 528.91, 821.42 528.21 C 823.90 527.51, 824.60 527.12, 825.80 526.48 C 827.01 525.85, 827.09 525.49, 827.43 525.03 C 827.76 524.57, 827.49 524.41, 827.47 524.20 C 827.45 523.99, 827.41 524.14, 827.33 523.97 C 827.24 523.80, 827.52 523.61, 827.03 523.35 C 826.54 523.09, 826.28 522.67, 824.89 522.66 C 823.50 522.64, 822.61 522.60, 820.07 523.28 C 817.52 523.96, 815.84 524.70, 812.16 526.06 C 808.48 527.41, 806.25 528.22, 801.66 530.06 C 797.07 531.90, 794.46 532.97, 789.21 535.26 C 783.96 537.56, 780.88 538.82, 775.40 541.54 C 769.93 544.27, 767.01 545.84, 761.84 548.90 C 756.67 551.96, 754.07 553.62, 749.57 556.85 C 745.07 560.07, 742.91 561.72, 739.35 565.02 C 735.78 568.33, 734.27 570.10, 731.73 573.35 C 729.19 576.61, 728.03 578.18, 726.64 581.29 C 725.25 584.40, 724.90 586.09, 724.80 588.90 C 724.70 591.71, 725.13 593.22, 726.14 595.33 C 727.15 597.45, 728.07 598.37, 729.84 599.47 C 731.61 600.57, 732.79 600.87, 734.97 600.84 C 737.16 600.81, 738.41 600.51, 740.77 599.34 C 743.12 598.17, 744.36 597.23, 746.75 594.97 C 749.14 592.71, 750.26 591.18, 752.72 588.03 C 755.17 584.88, 756.48 583.02, 759.01 579.22 C 761.54 575.42, 762.88 573.26, 765.37 569.02 C 767.86 564.78, 769.10 562.41, 771.47 558.02 C 773.83 553.62, 774.97 551.27, 777.19 547.05 C 779.41 542.82, 780.47 540.68, 782.57 536.89 C 784.67 533.10, 785.83 531.26, 787.68 528.10 C 789.53 524.95, 790.84 523.61, 791.82 521.11 C 792.79 518.61, 792.79 517.36, 792.54 515.61 C 792.29 513.86, 791.82 513.13, 790.58 512.36 C 789.33 511.59, 788.32 511.43, 786.31 511.75 C 784.29 512.07, 782.95 512.85, 780.50 513.96 C 778.06 515.06, 776.60 516.14, 774.08 517.27 C 771.56 518.40, 770.03 518.81, 767.91 519.63 C 765.78 520.45, 764.80 520.78, 763.44 521.37 C 762.09 521.96, 761.63 522.30, 761.14 522.58 C 760.64 522.87, 760.57 523.06, 760.99 522.81 C 761.40 522.57, 761.88 522.28, 763.21 521.36 C 764.53 520.44, 765.55 519.59, 767.59 518.22 C 769.63 516.84, 771.02 515.85, 773.41 514.49 C 775.79 513.13, 777.45 512.67, 779.52 511.42 C 781.60 510.16, 782.66 509.39, 783.79 508.21 C 784.92 507.03, 785.25 506.22, 785.18 505.53 C 785.11 504.84, 784.77 504.55, 783.44 504.78 C 782.12 505.00, 780.99 505.36, 778.55 506.67 C 776.11 507.98, 774.60 509.38, 771.24 511.33 C 767.89 513.28, 765.68 514.44, 761.77 516.41 C 757.86 518.38, 755.58 519.55, 751.69 521.16 C 747.79 522.77, 745.69 523.45, 742.30 524.46 C 738.91 525.46, 737.11 525.52, 734.74 526.18 C 732.36 526.85, 731.54 527.41, 730.42 527.78 C 729.31 528.15, 729.16 528.24, 729.16 528.03 C 729.16 527.81, 729.54 527.63, 730.41 526.71 C 731.28 525.79, 732.26 525.08, 733.51 523.41 C 734.75 521.74, 735.75 520.48, 736.63 518.35 C 737.50 516.22, 737.96 514.73, 737.88 512.75 C 737.80 510.77, 737.51 509.62, 736.24 508.45 C 734.97 507.28, 733.94 506.80, 731.55 506.91 C 729.15 507.03, 727.54 507.76, 724.27 509.02 C 721.00 510.27, 718.82 511.55, 715.19 513.19 C 711.56 514.83, 709.38 515.86, 706.12 517.23 C 702.85 518.59, 700.99 518.93, 698.85 520.02 C 696.71 521.12, 696.04 521.94, 695.42 522.72 C 694.79 523.50, 695.06 523.91, 695.74 523.92 C 696.42 523.94, 697.44 523.72, 698.82 522.78 C 700.19 521.84, 701.36 520.93, 702.62 519.21 C 703.88 517.49, 704.62 516.09, 705.13 514.17 C 705.65 512.24, 705.77 510.93, 705.20 509.58 C 704.62 508.23, 703.91 507.59, 702.27 507.42 C 700.63 507.25, 699.37 507.58, 697.00 508.72 C 694.63 509.87, 693.26 511.34, 690.43 513.15 C 687.61 514.96, 685.88 516.13, 682.86 517.79 C 679.85 519.45, 678.07 520.24, 675.36 521.47 C 672.65 522.69, 671.24 523.09, 669.31 523.92 C 667.38 524.75, 666.67 525.21, 665.73 525.63 C 664.79 526.05, 664.61 526.28, 664.59 526.03 C 664.57 525.77, 664.80 525.50, 665.62 524.38 C 666.43 523.26, 667.17 522.31, 668.67 520.42 C 670.17 518.53, 671.48 517.20, 673.12 514.91 C 674.76 512.63, 675.88 511.20, 676.86 509.00 C 677.83 506.81, 678.13 505.47, 677.99 503.93 C 677.85 502.39, 677.39 501.61, 676.15 501.29 C 674.90 500.97, 673.76 501.22, 671.76 502.35 C 669.76 503.48, 668.64 504.89, 666.14 506.94 C 663.64 508.98, 662.15 510.37, 659.26 512.56 C 656.37 514.74, 654.63 516.02, 651.71 517.85 C 648.79 519.67, 647.08 520.36, 644.66 521.68 C 642.24 523.00, 641.17 523.55, 639.61 524.45 C 638.04 525.34, 637.49 525.77, 636.85 526.14 C 636.21 526.51, 636.22 526.69, 636.41 526.31 C 636.60 525.92, 637.00 525.48, 637.79 524.21 C 638.58 522.94, 639.19 521.86, 640.36 519.94 C 641.53 518.02, 642.42 516.80, 643.64 514.63 C 644.86 512.45, 645.68 511.08, 646.45 509.06 C 647.23 507.04, 647.43 506.02, 647.52 504.54 C 647.61 503.06, 647.47 502.39, 646.89 501.66 C 646.31 500.94, 645.49 500.79, 644.63 500.92"
    style="stroke: #282e43; fill: #282e43;" />
</svg>